<svg width="229" height="208" viewBox="0 0 229 208" fill="none" xmlns="http://www.w3.org/2000/svg">
<path d="M25.2 14.86H23.8V21H21.4V7H23.8V12.74H25.2L29.16 7H32L27.24 13.7L32.4 21H29.4L25.2 14.86ZM37.5898 21.18C36.0832 21.18 34.9032 20.7533 34.0498 19.9C33.2098 19.0467 32.7898 17.8533 32.7898 16.32V15.68C32.7898 14.92 32.8965 14.24 33.1098 13.64C33.3365 13.04 33.6565 12.5333 34.0698 12.12C34.4965 11.6933 35.0032 11.3733 35.5898 11.16C36.1765 10.9333 36.8432 10.82 37.5898 10.82C39.0965 10.82 40.2698 11.2467 41.1098 12.1C41.9632 12.9533 42.3898 14.1467 42.3898 15.68V16.32C42.3898 17.08 42.2765 17.76 42.0498 18.36C41.8365 18.96 41.5165 19.4733 41.0898 19.9C40.6765 20.3133 40.1698 20.6333 39.5698 20.86C38.9832 21.0733 38.3232 21.18 37.5898 21.18ZM37.5898 19.02C38.3498 19.02 38.9298 18.8 39.3298 18.36C39.7432 17.92 39.9498 17.24 39.9498 16.32V15.68C39.9498 14.7733 39.7365 14.1 39.3098 13.66C38.8965 13.2067 38.3232 12.98 37.5898 12.98C36.8298 12.98 36.2432 13.2 35.8298 13.64C35.4298 14.08 35.2298 14.76 35.2298 15.68V16.32C35.2298 17.2267 35.4365 17.9067 35.8498 18.36C36.2765 18.8 36.8565 19.02 37.5898 19.02ZM51.0659 16.92H46.7059V21H44.3859V11H46.7059V14.88H51.0659V11H53.3859V21H51.0659V16.92ZM54.9875 11H63.3875V13.04H60.3475V21H58.0275V13.04H54.9875V11ZM67.3961 21.18C66.3161 21.18 65.4961 20.9133 64.9361 20.38C64.3761 19.8467 64.0961 19.1067 64.0961 18.16C64.0961 17.64 64.1761 17.1733 64.3361 16.76C64.5094 16.3333 64.7761 15.98 65.1361 15.7C65.5094 15.4067 65.9828 15.1867 66.5561 15.04C67.1428 14.88 67.8561 14.8 68.6961 14.8H70.3761V14.2C70.3761 13.72 70.2428 13.36 69.9761 13.12C69.7228 12.8667 69.2961 12.74 68.6961 12.74C68.1361 12.74 67.7294 12.8467 67.4761 13.06C67.2228 13.2733 67.0694 13.5533 67.0161 13.9H64.4961C64.5494 13.0067 64.9094 12.2733 65.5761 11.7C66.2561 11.1133 67.2961 10.82 68.6961 10.82C70.0294 10.82 71.0294 11.1267 71.6961 11.74C72.3628 12.3533 72.6961 13.1733 72.6961 14.2V21H70.8761L70.6361 19.62C70.2894 20.1267 69.8361 20.5133 69.2761 20.78C68.7294 21.0467 68.1028 21.18 67.3961 21.18ZM67.7961 19.26C68.1694 19.26 68.5094 19.2 68.8161 19.08C69.1361 18.9467 69.4094 18.7733 69.6361 18.56C69.8628 18.3333 70.0428 18.08 70.1761 17.8C70.3094 17.52 70.3761 17.22 70.3761 16.9V16.6H68.6961C67.8961 16.6 67.3361 16.7333 67.0161 17C66.6961 17.2667 66.5361 17.6267 66.5361 18.08C66.5361 18.44 66.6428 18.7267 66.8561 18.94C67.0828 19.1533 67.3961 19.26 67.7961 19.26ZM78.5067 16.82H77.5067V21H75.1867V11H77.5067V14.78H78.5067L80.9067 11H83.5867L80.4267 15.72L83.9867 21H81.1867L78.5067 16.82ZM84.382 11H92.782V13.04H89.742V21H87.422V13.04H84.382V11ZM94.3859 11H96.7059V14H98.1859C99.7193 14 100.833 14.3133 101.526 14.94C102.233 15.5667 102.586 16.42 102.586 17.5C102.586 18.58 102.233 19.4333 101.526 20.06C100.833 20.6867 99.7193 21 98.1859 21H94.3859V11ZM103.666 11H105.986V21H103.666V11ZM96.7059 15.9V19.1H98.2859C98.9259 19.1 99.3926 18.96 99.6859 18.68C99.9926 18.4 100.146 18.0067 100.146 17.5C100.146 16.9933 99.9926 16.6 99.6859 16.32C99.3926 16.04 98.9259 15.9 98.2859 15.9H96.7059Z" fill="#15191C"/>
<path d="M21.584 56.56H25.832V60.952H28.424V56.56H32.72V54.16H28.424V49.816H25.832V54.16H21.584V56.56ZM34.8969 49.96H42.1449L36.4809 64H39.5049L45.4569 49.048V47.2H34.8969V49.96ZM59.3525 64H62.1125V60.112H64.2725V57.352H62.1125V53.2H59.3525V57.352H55.2485L61.3205 47.2H58.1525L51.6725 58.072V60.112H59.3525V64ZM77.1228 53.344C77.1228 49.6 74.9148 46.936 71.1708 46.936C68.4828 46.936 65.6028 49 65.6028 52.528C65.6028 55.504 67.8348 57.736 70.6668 57.736C72.0828 57.736 73.1628 57.184 73.8588 56.224C73.1868 59.344 71.0508 61.384 67.5948 62.08L68.5068 64.264C73.3068 63.688 77.1228 59.8 77.1228 53.344ZM74.1948 53.32C73.7628 54.232 72.8508 55.144 71.3388 55.144C69.5628 55.144 68.5308 53.8 68.5308 52.336C68.5308 50.992 69.6108 49.696 71.1708 49.696C73.1868 49.696 74.1948 51.4 74.1948 53.32ZM80.1393 56.128C80.6433 55.912 81.8193 55.696 82.8993 55.696C85.1553 55.696 86.4753 56.992 86.4753 58.672C86.4753 60.328 85.3233 61.504 83.7153 61.504C82.4433 61.504 81.0273 60.832 80.3073 59.776L78.7233 61.864C79.7553 63.448 81.8433 64.264 83.6433 64.264C86.8353 64.264 89.4273 62.176 89.4273 58.552C89.4273 55.24 87.1233 53.2 84.1473 53.2C83.8113 53.2 83.4513 53.248 83.1873 53.296L83.6673 49.96H89.1873V47.2H81.2433L80.1393 56.128ZM96.4974 64H107.057V61.432H100.073C101.393 60.352 106.409 56.104 106.409 51.4C106.409 49.168 104.849 47.008 101.657 47.008C98.9934 47.008 97.0734 48.544 96.6174 50.992L98.9214 52.024C99.2814 50.608 100.145 49.768 101.345 49.768C102.737 49.768 103.481 50.608 103.481 51.952C103.481 55.216 99.2334 59.104 96.4974 61.792V64ZM108.723 50.368L110.187 52.648L112.251 51.088V64H115.011V47.152H113.019L108.723 50.368ZM119.467 56.128C119.971 55.912 121.147 55.696 122.227 55.696C124.483 55.696 125.803 56.992 125.803 58.672C125.803 60.328 124.651 61.504 123.043 61.504C121.771 61.504 120.355 60.832 119.635 59.776L118.051 61.864C119.083 63.448 121.171 64.264 122.971 64.264C126.163 64.264 128.755 62.176 128.755 58.552C128.755 55.24 126.451 53.2 123.475 53.2C123.139 53.2 122.779 53.248 122.515 53.296L122.995 49.96H128.515V47.2H120.571L119.467 56.128ZM135.946 55.6C135.946 60.736 137.77 64.192 141.634 64.192C145.474 64.192 147.202 60.736 147.202 55.6C147.202 50.464 145.426 47.008 141.586 47.008C137.722 47.008 135.946 50.464 135.946 55.6ZM138.898 55.6C138.898 51.544 139.69 49.6 141.586 49.6C143.506 49.6 144.274 51.448 144.274 55.6C144.274 59.752 143.554 61.624 141.634 61.624C139.834 61.624 138.898 59.704 138.898 55.6ZM148.827 49.96H156.075L150.411 64H153.435L159.387 49.048V47.2H148.827V49.96ZM168.196 64H170.956V60.112H173.116V57.352H170.956V53.2H168.196V57.352H164.092L170.164 47.2H166.996L160.516 58.072V60.112H168.196V64ZM181.767 64H184.527V60.112H186.687V57.352H184.527V53.2H181.767V57.352H177.663L183.735 47.2H180.567L174.087 58.072V60.112H181.767V64Z" fill="#15191C"/>
<g filter="url(#filter0_d_1625_72592)">
<rect x="20" y="81" width="36" height="36" rx="5" fill="white"/>
</g>
<path d="M38.8932 106C32.06 106 28.1624 101.12 28 93H31.4229C31.5353 98.96 34.0587 101.484 36.0575 102.005V93H39.2805V98.1401C41.2542 97.9189 43.3279 95.5766 44.0275 93H47.2505C46.9869 94.3363 46.4614 95.6015 45.7069 96.7166C44.9524 97.8317 43.9852 98.7726 42.8657 99.4805C44.1153 100.127 45.2191 101.043 46.1041 102.167C46.9891 103.29 47.6353 104.597 48 106H44.4522C44.1248 104.781 43.4594 103.69 42.5394 102.864C41.6194 102.038 40.4858 101.512 39.2805 101.354V106H38.8932Z" fill="#0177FF"/>
<g filter="url(#filter1_d_1625_72592)">
<rect x="71" y="81" width="36" height="36" rx="5" fill="white"/>
</g>
<path d="M79.302 98.4425C81.348 97.3538 83.632 96.4452 85.766 95.532C89.4374 94.0361 93.1233 92.5662 96.8464 91.1978C97.5708 90.9646 98.8724 90.7366 99 91.7735C98.9301 93.2413 98.6426 94.7005 98.4454 96.1597C97.945 99.3686 97.3665 102.567 96.8024 105.765C96.608 106.83 95.2264 107.382 94.3424 106.7C92.2178 105.314 90.0769 103.941 87.9795 102.523C87.2925 101.848 87.9296 100.88 88.5432 100.398C90.293 98.7326 92.1488 97.3174 93.8071 95.5656C94.2545 94.5221 92.9327 95.4015 92.4967 95.671C90.1012 97.2656 87.7643 98.9575 85.2386 100.359C83.9485 101.045 82.4449 100.459 81.1554 100.076C79.9992 99.6135 78.305 99.1475 79.302 98.4425Z" fill="#0867D6"/>
<path d="M79.302 98.4425C81.348 97.3538 83.632 96.4452 85.766 95.532C89.4374 94.0361 93.1233 92.5662 96.8464 91.1978C97.5708 90.9646 98.8724 90.7366 99 91.7735C98.9301 93.2413 98.6426 94.7005 98.4454 96.1597C97.945 99.3686 97.3665 102.567 96.8024 105.765C96.608 106.83 95.2264 107.382 94.3424 106.7C92.2178 105.314 90.0769 103.941 87.9795 102.523C87.2925 101.848 87.9296 100.88 88.5432 100.398C90.293 98.7326 92.1488 97.3174 93.8071 95.5656C94.2545 94.5221 92.9327 95.4015 92.4967 95.671C90.1012 97.2656 87.7643 98.9575 85.2386 100.359C83.9485 101.045 82.4449 100.459 81.1554 100.076C79.9992 99.6135 78.305 99.1475 79.302 98.4425Z" fill="#0696E7"/>
<path d="M79.302 98.4425C81.348 97.3538 83.632 96.4452 85.766 95.532C89.4374 94.0361 93.1233 92.5662 96.8464 91.1978C97.5708 90.9646 98.8724 90.7366 99 91.7735C98.9301 93.2413 98.6426 94.7005 98.4454 96.1597C97.945 99.3686 97.3665 102.567 96.8024 105.765C96.608 106.83 95.2264 107.382 94.3424 106.7C92.2178 105.314 90.0769 103.941 87.9795 102.523C87.2925 101.848 87.9296 100.88 88.5432 100.398C90.293 98.7326 92.1488 97.3174 93.8071 95.5656C94.2545 94.5221 92.9327 95.4015 92.4967 95.671C90.1012 97.2656 87.7643 98.9575 85.2386 100.359C83.9485 101.045 82.4449 100.459 81.1554 100.076C79.9992 99.6135 78.305 99.1475 79.302 98.4425Z" fill="#419FD9"/>
<g filter="url(#filter2_d_1625_72592)">
<rect x="122" y="81" width="36" height="36" rx="5" fill="white"/>
</g>
<path d="M144.222 96.9891C144.151 96.4106 143.973 95.9563 143.657 95.5539C143.247 95.0358 142.723 94.7256 141.947 94.5415C141.442 94.4188 141.237 94.4329 141.055 94.6C140.884 94.7564 140.851 95.0702 140.981 95.2733C141.073 95.4208 141.178 95.4736 141.472 95.5313C141.863 95.6032 142.133 95.6966 142.379 95.8372C142.901 96.1385 143.144 96.6101 143.17 97.3735C143.182 97.7319 143.213 97.8421 143.339 97.9692C143.571 98.2016 143.984 98.1564 144.159 97.8783C144.223 97.7735 144.233 97.7279 144.24 97.4845C144.244 97.3338 144.238 97.1095 144.222 96.9891Z" fill="#0867D6"/>
<path d="M144.222 96.9891C144.151 96.4106 143.973 95.9563 143.657 95.5539C143.247 95.0358 142.723 94.7256 141.947 94.5415C141.442 94.4188 141.237 94.4329 141.055 94.6C140.884 94.7564 140.851 95.0702 140.981 95.2733C141.073 95.4208 141.178 95.4736 141.472 95.5313C141.863 95.6032 142.133 95.6966 142.379 95.8372C142.901 96.1385 143.144 96.6101 143.17 97.3735C143.182 97.7319 143.213 97.8421 143.339 97.9692C143.571 98.2016 143.984 98.1564 144.159 97.8783C144.223 97.7735 144.233 97.7279 144.24 97.4845C144.244 97.3338 144.238 97.1095 144.222 96.9891Z" fill="#EEEE36"/>
<path d="M144.222 96.9891C144.151 96.4106 143.973 95.9563 143.657 95.5539C143.247 95.0358 142.723 94.7256 141.947 94.5415C141.442 94.4188 141.237 94.4329 141.055 94.6C140.884 94.7564 140.851 95.0702 140.981 95.2733C141.073 95.4208 141.178 95.4736 141.472 95.5313C141.863 95.6032 142.133 95.6966 142.379 95.8372C142.901 96.1385 143.144 96.6101 143.17 97.3735C143.182 97.7319 143.213 97.8421 143.339 97.9692C143.571 98.2016 143.984 98.1564 144.159 97.8783C144.223 97.7735 144.233 97.7279 144.24 97.4845C144.244 97.3338 144.238 97.1095 144.222 96.9891Z" fill="#7F4DA0"/>
<path d="M146.267 97.6409C146.164 95.8684 145.47 94.4424 144.23 93.439C143.531 92.8753 142.686 92.4876 141.759 92.2991C141.42 92.2316 140.795 92.177 140.688 92.2082C140.587 92.2372 140.444 92.3467 140.38 92.4457C140.313 92.5531 140.298 92.7929 140.355 92.9315C140.448 93.1634 140.621 93.2453 141.104 93.2876C141.85 93.3528 142.619 93.6148 143.2 94.0026C143.863 94.4441 144.391 95.048 144.732 95.7576C145.027 96.3674 145.208 97.246 145.203 98.0329C145.201 98.3175 145.245 98.4782 145.359 98.5957C145.532 98.7764 145.784 98.8159 146.006 98.6959C146.253 98.5664 146.31 98.339 146.267 97.6409Z" fill="#0867D6"/>
<path d="M146.267 97.6409C146.164 95.8684 145.47 94.4424 144.23 93.439C143.531 92.8753 142.686 92.4876 141.759 92.2991C141.42 92.2316 140.795 92.177 140.688 92.2082C140.587 92.2372 140.444 92.3467 140.38 92.4457C140.313 92.5531 140.298 92.7929 140.355 92.9315C140.448 93.1634 140.621 93.2453 141.104 93.2876C141.85 93.3528 142.619 93.6148 143.2 94.0026C143.863 94.4441 144.391 95.048 144.732 95.7576C145.027 96.3674 145.208 97.246 145.203 98.0329C145.201 98.3175 145.245 98.4782 145.359 98.5957C145.532 98.7764 145.784 98.8159 146.006 98.6959C146.253 98.5664 146.31 98.339 146.267 97.6409Z" fill="#EEEE36"/>
<path d="M146.267 97.6409C146.164 95.8684 145.47 94.4424 144.23 93.439C143.531 92.8753 142.686 92.4876 141.759 92.2991C141.42 92.2316 140.795 92.177 140.688 92.2082C140.587 92.2372 140.444 92.3467 140.38 92.4457C140.313 92.5531 140.298 92.7929 140.355 92.9315C140.448 93.1634 140.621 93.2453 141.104 93.2876C141.85 93.3528 142.619 93.6148 143.2 94.0026C143.863 94.4441 144.391 95.048 144.732 95.7576C145.027 96.3674 145.208 97.246 145.203 98.0329C145.201 98.3175 145.245 98.4782 145.359 98.5957C145.532 98.7764 145.784 98.8159 146.006 98.6959C146.253 98.5664 146.31 98.339 146.267 97.6409Z" fill="#7F4DA0"/>
<path d="M148.528 104.467C148.493 104.365 148.413 104.209 148.355 104.119C147.991 103.569 146.034 102.038 145.058 101.538C144.5 101.251 144.087 101.156 143.78 101.245C143.451 101.338 143.278 101.491 142.726 102.177C142.503 102.452 142.275 102.71 142.214 102.75C142.064 102.855 141.769 102.938 141.561 102.938C141.078 102.936 140.203 102.623 139.53 102.212C139.007 101.894 138.336 101.324 137.822 100.759C137.215 100.096 136.802 99.5119 136.475 98.852C136.053 98.0041 135.946 97.486 136.123 97.1069C136.166 97.0114 136.224 96.9101 136.25 96.8782C136.276 96.8493 136.547 96.6265 136.848 96.3834C137.437 95.9145 137.533 95.8075 137.643 95.4862C137.781 95.0781 137.744 94.6614 137.53 94.2418C137.365 93.9234 136.935 93.2288 136.623 92.7803C136.209 92.1899 135.181 90.9281 134.975 90.7573C134.606 90.4563 134.132 90.4042 133.609 90.6068C133.057 90.821 132.022 91.6545 131.58 92.2362C131.181 92.7629 131.028 93.1362 131.005 93.6282C130.985 94.0334 131.019 94.2012 131.233 94.7193C132.906 98.7826 135.403 102.027 138.833 104.603C140.625 105.948 142.483 106.973 144.41 107.673C145.534 108.081 146.023 108.101 146.598 107.766C146.84 107.621 147.442 107.005 147.777 106.556C148.332 105.809 148.537 105.465 148.595 105.19C148.635 105.002 148.603 104.675 148.528 104.467Z" fill="#0867D6"/>
<path d="M148.528 104.467C148.493 104.365 148.413 104.209 148.355 104.119C147.991 103.569 146.034 102.038 145.058 101.538C144.5 101.251 144.087 101.156 143.78 101.245C143.451 101.338 143.278 101.491 142.726 102.177C142.503 102.452 142.275 102.71 142.214 102.75C142.064 102.855 141.769 102.938 141.561 102.938C141.078 102.936 140.203 102.623 139.53 102.212C139.007 101.894 138.336 101.324 137.822 100.759C137.215 100.096 136.802 99.5119 136.475 98.852C136.053 98.0041 135.946 97.486 136.123 97.1069C136.166 97.0114 136.224 96.9101 136.25 96.8782C136.276 96.8493 136.547 96.6265 136.848 96.3834C137.437 95.9145 137.533 95.8075 137.643 95.4862C137.781 95.0781 137.744 94.6614 137.53 94.2418C137.365 93.9234 136.935 93.2288 136.623 92.7803C136.209 92.1899 135.181 90.9281 134.975 90.7573C134.606 90.4563 134.132 90.4042 133.609 90.6068C133.057 90.821 132.022 91.6545 131.58 92.2362C131.181 92.7629 131.028 93.1362 131.005 93.6282C130.985 94.0334 131.019 94.2012 131.233 94.7193C132.906 98.7826 135.403 102.027 138.833 104.603C140.625 105.948 142.483 106.973 144.41 107.673C145.534 108.081 146.023 108.101 146.598 107.766C146.84 107.621 147.442 107.005 147.777 106.556C148.332 105.809 148.537 105.465 148.595 105.19C148.635 105.002 148.603 104.675 148.528 104.467Z" fill="#EEEE36"/>
<path d="M148.528 104.467C148.493 104.365 148.413 104.209 148.355 104.119C147.991 103.569 146.034 102.038 145.058 101.538C144.5 101.251 144.087 101.156 143.78 101.245C143.451 101.338 143.278 101.491 142.726 102.177C142.503 102.452 142.275 102.71 142.214 102.75C142.064 102.855 141.769 102.938 141.561 102.938C141.078 102.936 140.203 102.623 139.53 102.212C139.007 101.894 138.336 101.324 137.822 100.759C137.215 100.096 136.802 99.5119 136.475 98.852C136.053 98.0041 135.946 97.486 136.123 97.1069C136.166 97.0114 136.224 96.9101 136.25 96.8782C136.276 96.8493 136.547 96.6265 136.848 96.3834C137.437 95.9145 137.533 95.8075 137.643 95.4862C137.781 95.0781 137.744 94.6614 137.53 94.2418C137.365 93.9234 136.935 93.2288 136.623 92.7803C136.209 92.1899 135.181 90.9281 134.975 90.7573C134.606 90.4563 134.132 90.4042 133.609 90.6068C133.057 90.821 132.022 91.6545 131.58 92.2362C131.181 92.7629 131.028 93.1362 131.005 93.6282C130.985 94.0334 131.019 94.2012 131.233 94.7193C132.906 98.7826 135.403 102.027 138.833 104.603C140.625 105.948 142.483 106.973 144.41 107.673C145.534 108.081 146.023 108.101 146.598 107.766C146.84 107.621 147.442 107.005 147.777 106.556C148.332 105.809 148.537 105.465 148.595 105.19C148.635 105.002 148.603 104.675 148.528 104.467Z" fill="#7F4DA0"/>
<path d="M148.346 98.0475C148.309 97.0448 148.14 96.2225 147.788 95.3056C147.441 94.4037 147.089 93.8151 146.425 93.0191C145.797 92.2727 145.309 91.8466 144.536 91.3722C143.456 90.7112 142.143 90.2738 140.671 90.0899C140.169 90.0256 140.055 90.0302 139.901 90.133C139.603 90.3276 139.607 90.8132 139.906 91.0049C140.005 91.0659 140.093 91.0881 140.495 91.1407C141.111 91.2237 141.508 91.3019 141.978 91.4302C143.822 91.9343 145.24 92.9648 146.188 94.4946C146.982 95.7696 147.311 97.0447 147.265 98.6733C147.248 99.2238 147.26 99.3207 147.344 99.453C147.505 99.6996 147.93 99.7483 148.149 99.5437C148.284 99.4191 148.31 99.3254 148.336 98.8542C148.349 98.6084 148.352 98.2455 148.346 98.0475Z" fill="#0867D6"/>
<path d="M148.346 98.0475C148.309 97.0448 148.14 96.2225 147.788 95.3056C147.441 94.4037 147.089 93.8151 146.425 93.0191C145.797 92.2727 145.309 91.8466 144.536 91.3722C143.456 90.7112 142.143 90.2738 140.671 90.0899C140.169 90.0256 140.055 90.0302 139.901 90.133C139.603 90.3276 139.607 90.8132 139.906 91.0049C140.005 91.0659 140.093 91.0881 140.495 91.1407C141.111 91.2237 141.508 91.3019 141.978 91.4302C143.822 91.9343 145.24 92.9648 146.188 94.4946C146.982 95.7696 147.311 97.0447 147.265 98.6733C147.248 99.2238 147.26 99.3207 147.344 99.453C147.505 99.6996 147.93 99.7483 148.149 99.5437C148.284 99.4191 148.31 99.3254 148.336 98.8542C148.349 98.6084 148.352 98.2455 148.346 98.0475Z" fill="#EEEE36"/>
<path d="M148.346 98.0475C148.309 97.0448 148.14 96.2225 147.788 95.3056C147.441 94.4037 147.089 93.8151 146.425 93.0191C145.797 92.2727 145.309 91.8466 144.536 91.3722C143.456 90.7112 142.143 90.2738 140.671 90.0899C140.169 90.0256 140.055 90.0302 139.901 90.133C139.603 90.3276 139.607 90.8132 139.906 91.0049C140.005 91.0659 140.093 91.0881 140.495 91.1407C141.111 91.2237 141.508 91.3019 141.978 91.4302C143.822 91.9343 145.24 92.9648 146.188 94.4946C146.982 95.7696 147.311 97.0447 147.265 98.6733C147.248 99.2238 147.26 99.3207 147.344 99.453C147.505 99.6996 147.93 99.7483 148.149 99.5437C148.284 99.4191 148.31 99.3254 148.336 98.8542C148.349 98.6084 148.352 98.2455 148.346 98.0475Z" fill="#7F4DA0"/>
<g filter="url(#filter3_d_1625_72592)">
<rect x="173" y="81" width="36" height="36" rx="5" fill="white"/>
</g>
<path fill-rule="evenodd" clip-rule="evenodd" d="M191.544 108.92H191.54C189.79 108.919 188.07 108.48 186.543 107.647L181 109.101L182.483 103.683C181.568 102.097 181.087 100.298 181.088 98.4554C181.09 92.6904 185.781 88 191.544 88C194.341 88.0012 196.966 89.0901 198.94 91.0665C200.915 93.0429 202.001 95.6699 202 98.4637C201.998 104.227 197.309 108.917 191.544 108.92ZM186.8 105.754L187.117 105.942C188.451 106.734 189.981 107.153 191.541 107.154H191.544C196.334 107.154 200.233 103.255 200.235 98.4628C200.236 96.1406 199.332 93.9572 197.692 92.3145C196.051 90.6717 193.869 89.7666 191.547 89.7658C186.754 89.7658 182.855 93.6641 182.853 98.4558C182.852 100.098 183.312 101.697 184.182 103.081L184.389 103.41L183.511 106.617L186.8 105.754ZM196.455 100.715C196.637 100.803 196.76 100.862 196.813 100.95C196.878 101.059 196.878 101.582 196.66 102.193C196.442 102.803 195.399 103.36 194.897 103.435C194.447 103.502 193.877 103.53 193.251 103.331C192.872 103.211 192.385 103.05 191.762 102.781C189.312 101.723 187.657 99.3495 187.344 98.9008C187.322 98.8694 187.307 98.8474 187.299 98.836L187.296 98.8332C187.158 98.6487 186.232 97.4126 186.232 96.1333C186.232 94.9299 186.823 94.2991 187.095 94.0087C187.114 93.9889 187.131 93.9706 187.146 93.9538C187.386 93.6922 187.669 93.6268 187.843 93.6268C188.017 93.6268 188.191 93.6284 188.344 93.6361C188.362 93.637 188.382 93.6369 188.402 93.6368C188.554 93.6359 188.744 93.6348 188.931 94.0846C189.003 94.2577 189.109 94.5143 189.22 94.7849C189.445 95.3323 189.693 95.937 189.737 96.0245C189.802 96.1553 189.846 96.3078 189.759 96.4822C189.746 96.5084 189.734 96.533 189.722 96.5566C189.657 96.6902 189.609 96.7884 189.498 96.918C189.454 96.969 189.409 97.0239 189.364 97.0789C189.274 97.1883 189.184 97.2978 189.106 97.3758C188.975 97.506 188.839 97.6474 188.991 97.9089C189.143 98.1705 189.668 99.026 190.444 99.7188C191.279 100.464 192.005 100.778 192.373 100.938C192.445 100.969 192.503 100.994 192.546 101.016C192.807 101.146 192.959 101.124 193.111 100.95C193.264 100.776 193.765 100.187 193.939 99.9258C194.113 99.6643 194.287 99.7078 194.527 99.795C194.766 99.8823 196.051 100.514 196.312 100.645C196.363 100.671 196.411 100.694 196.455 100.715Z" fill="#0867D6"/>
<path fill-rule="evenodd" clip-rule="evenodd" d="M191.544 108.92H191.54C189.79 108.919 188.07 108.48 186.543 107.647L181 109.101L182.483 103.683C181.568 102.097 181.087 100.298 181.088 98.4554C181.09 92.6904 185.781 88 191.544 88C194.341 88.0012 196.966 89.0901 198.94 91.0665C200.915 93.0429 202.001 95.6699 202 98.4637C201.998 104.227 197.309 108.917 191.544 108.92ZM186.8 105.754L187.117 105.942C188.451 106.734 189.981 107.153 191.541 107.154H191.544C196.334 107.154 200.233 103.255 200.235 98.4628C200.236 96.1406 199.332 93.9572 197.692 92.3145C196.051 90.6717 193.869 89.7666 191.547 89.7658C186.754 89.7658 182.855 93.6641 182.853 98.4558C182.852 100.098 183.312 101.697 184.182 103.081L184.389 103.41L183.511 106.617L186.8 105.754ZM196.455 100.715C196.637 100.803 196.76 100.862 196.813 100.95C196.878 101.059 196.878 101.582 196.66 102.193C196.442 102.803 195.399 103.36 194.897 103.435C194.447 103.502 193.877 103.53 193.251 103.331C192.872 103.211 192.385 103.05 191.762 102.781C189.312 101.723 187.657 99.3495 187.344 98.9008C187.322 98.8694 187.307 98.8474 187.299 98.836L187.296 98.8332C187.158 98.6487 186.232 97.4126 186.232 96.1333C186.232 94.9299 186.823 94.2991 187.095 94.0087C187.114 93.9889 187.131 93.9706 187.146 93.9538C187.386 93.6922 187.669 93.6268 187.843 93.6268C188.017 93.6268 188.191 93.6284 188.344 93.6361C188.362 93.637 188.382 93.6369 188.402 93.6368C188.554 93.6359 188.744 93.6348 188.931 94.0846C189.003 94.2577 189.109 94.5143 189.22 94.7849C189.445 95.3323 189.693 95.937 189.737 96.0245C189.802 96.1553 189.846 96.3078 189.759 96.4822C189.746 96.5084 189.734 96.533 189.722 96.5566C189.657 96.6902 189.609 96.7884 189.498 96.918C189.454 96.969 189.409 97.0239 189.364 97.0789C189.274 97.1883 189.184 97.2978 189.106 97.3758C188.975 97.506 188.839 97.6474 188.991 97.9089C189.143 98.1705 189.668 99.026 190.444 99.7188C191.279 100.464 192.005 100.778 192.373 100.938C192.445 100.969 192.503 100.994 192.546 101.016C192.807 101.146 192.959 101.124 193.111 100.95C193.264 100.776 193.765 100.187 193.939 99.9258C194.113 99.6643 194.287 99.7078 194.527 99.795C194.766 99.8823 196.051 100.514 196.312 100.645C196.363 100.671 196.411 100.694 196.455 100.715Z" fill="#0696E7"/>
<path fill-rule="evenodd" clip-rule="evenodd" d="M191.544 108.92H191.54C189.79 108.919 188.07 108.48 186.543 107.647L181 109.101L182.483 103.683C181.568 102.097 181.087 100.298 181.088 98.4554C181.09 92.6904 185.781 88 191.544 88C194.341 88.0012 196.966 89.0901 198.94 91.0665C200.915 93.0429 202.001 95.6699 202 98.4637C201.998 104.227 197.309 108.917 191.544 108.92ZM186.8 105.754L187.117 105.942C188.451 106.734 189.981 107.153 191.541 107.154H191.544C196.334 107.154 200.233 103.255 200.235 98.4628C200.236 96.1406 199.332 93.9572 197.692 92.3145C196.051 90.6717 193.869 89.7666 191.547 89.7658C186.754 89.7658 182.855 93.6641 182.853 98.4558C182.852 100.098 183.312 101.697 184.182 103.081L184.389 103.41L183.511 106.617L186.8 105.754ZM196.455 100.715C196.637 100.803 196.76 100.862 196.813 100.95C196.878 101.059 196.878 101.582 196.66 102.193C196.442 102.803 195.399 103.36 194.897 103.435C194.447 103.502 193.877 103.53 193.251 103.331C192.872 103.211 192.385 103.05 191.762 102.781C189.312 101.723 187.657 99.3495 187.344 98.9008C187.322 98.8694 187.307 98.8474 187.299 98.836L187.296 98.8332C187.158 98.6487 186.232 97.4126 186.232 96.1333C186.232 94.9299 186.823 94.2991 187.095 94.0087C187.114 93.9889 187.131 93.9706 187.146 93.9538C187.386 93.6922 187.669 93.6268 187.843 93.6268C188.017 93.6268 188.191 93.6284 188.344 93.6361C188.362 93.637 188.382 93.6369 188.402 93.6368C188.554 93.6359 188.744 93.6348 188.931 94.0846C189.003 94.2577 189.109 94.5143 189.22 94.7849C189.445 95.3323 189.693 95.937 189.737 96.0245C189.802 96.1553 189.846 96.3078 189.759 96.4822C189.746 96.5084 189.734 96.533 189.722 96.5566C189.657 96.6902 189.609 96.7884 189.498 96.918C189.454 96.969 189.409 97.0239 189.364 97.0789C189.274 97.1883 189.184 97.2978 189.106 97.3758C188.975 97.506 188.839 97.6474 188.991 97.9089C189.143 98.1705 189.668 99.026 190.444 99.7188C191.279 100.464 192.005 100.778 192.373 100.938C192.445 100.969 192.503 100.994 192.546 101.016C192.807 101.146 192.959 101.124 193.111 100.95C193.264 100.776 193.765 100.187 193.939 99.9258C194.113 99.6643 194.287 99.7078 194.527 99.795C194.766 99.8823 196.051 100.514 196.312 100.645C196.363 100.671 196.411 100.694 196.455 100.715Z" fill="#25D366"/>
<path d="M25.68 149.128C24.9653 149.128 24.3147 149.011 23.728 148.776C23.1413 148.531 22.6347 148.184 22.208 147.736C21.792 147.288 21.4667 146.739 21.232 146.088C20.9973 145.437 20.88 144.696 20.88 143.864V142.936C20.88 142.115 20.9973 141.379 21.232 140.728C21.4667 140.077 21.7973 139.528 22.224 139.08C22.6507 138.621 23.1573 138.275 23.744 138.04C24.3307 137.795 24.976 137.672 25.68 137.672C26.3947 137.672 27.0453 137.795 27.632 138.04C28.2187 138.275 28.72 138.616 29.136 139.064C29.5627 139.512 29.8933 140.061 30.128 140.712C30.3627 141.363 30.48 142.104 30.48 142.936V143.864C30.48 144.685 30.3627 145.421 30.128 146.072C29.8933 146.723 29.5627 147.277 29.136 147.736C28.7093 148.184 28.2027 148.531 27.616 148.776C27.0293 149.011 26.384 149.128 25.68 149.128ZM25.68 147.688C26.1493 147.688 26.5813 147.608 26.976 147.448C27.3707 147.277 27.712 147.032 28 146.712C28.288 146.392 28.512 145.997 28.672 145.528C28.832 145.048 28.912 144.493 28.912 143.864V142.936C28.912 142.317 28.832 141.773 28.672 141.304C28.512 140.824 28.288 140.424 28 140.104C27.712 139.773 27.3707 139.528 26.976 139.368C26.5813 139.197 26.1493 139.112 25.68 139.112C25.2107 139.112 24.7787 139.197 24.384 139.368C23.9893 139.528 23.648 139.768 23.36 140.088C23.072 140.408 22.848 140.808 22.688 141.288C22.528 141.768 22.448 142.317 22.448 142.936V143.864C22.448 144.483 22.528 145.032 22.688 145.512C22.848 145.981 23.072 146.381 23.36 146.712C23.648 147.032 23.9893 147.277 24.384 147.448C24.7787 147.608 25.2107 147.688 25.68 147.688ZM41.9994 145.576H37.9994V149H36.5594V141H37.9994V144.264H41.9994V141H43.4394V149H41.9994V145.576ZM47.8406 149.128C47.0086 149.128 46.374 148.92 45.9366 148.504C45.4993 148.077 45.2806 147.496 45.2806 146.76C45.2806 146.355 45.3446 145.992 45.4726 145.672C45.6006 145.341 45.8033 145.064 46.0806 144.84C46.3686 144.616 46.7313 144.445 47.1686 144.328C47.6166 144.211 48.1606 144.152 48.8006 144.152H50.4006V143.56C50.4006 143.112 50.2673 142.765 50.0006 142.52C49.7446 142.275 49.3446 142.152 48.8006 142.152C48.2566 142.152 47.862 142.253 47.6166 142.456C47.382 142.659 47.2433 142.92 47.2006 143.24H45.6006C45.6433 142.557 45.9206 141.992 46.4326 141.544C46.9553 141.096 47.7446 140.872 48.8006 140.872C49.8033 140.872 50.5606 141.112 51.0726 141.592C51.5846 142.072 51.8406 142.728 51.8406 143.56V149H50.7206L50.5446 147.688C50.2566 148.147 49.878 148.504 49.4086 148.76C48.95 149.005 48.4273 149.128 47.8406 149.128ZM48.0006 147.848C48.3526 147.848 48.6726 147.789 48.9606 147.672C49.2593 147.555 49.5153 147.4 49.7286 147.208C49.942 147.005 50.1073 146.771 50.2246 146.504C50.342 146.237 50.4006 145.955 50.4006 145.656V145.368H48.8006C48.0646 145.368 47.542 145.496 47.2326 145.752C46.934 145.997 46.7846 146.323 46.7846 146.728C46.7846 147.069 46.8913 147.341 47.1046 147.544C47.318 147.747 47.6166 147.848 48.0006 147.848ZM57.2731 149.128C56.1638 149.128 55.2838 148.797 54.6331 148.136C53.9931 147.475 53.6731 146.531 53.6731 145.304V144.696C53.6731 144.088 53.7585 143.549 53.9291 143.08C54.0998 142.611 54.3398 142.211 54.6491 141.88C54.9585 141.549 55.3371 141.299 55.7851 141.128C56.2331 140.957 56.7291 140.872 57.2731 140.872C57.7425 140.872 58.1585 140.936 58.5211 141.064C58.8945 141.192 59.2145 141.368 59.4811 141.592C59.7585 141.805 59.9825 142.061 60.1531 142.36C60.3345 142.659 60.4678 142.979 60.5531 143.32H59.0171C58.8998 143.043 58.6971 142.797 58.4091 142.584C58.1318 142.36 57.7265 142.248 57.1931 142.248C56.5851 142.248 56.0945 142.451 55.7211 142.856C55.3585 143.261 55.1771 143.875 55.1771 144.696V145.304C55.1771 146.115 55.3638 146.728 55.7371 147.144C56.1105 147.549 56.5958 147.752 57.1931 147.752C57.7371 147.752 58.1478 147.64 58.4251 147.416C58.7025 147.192 58.8998 146.893 59.0171 146.52H60.5531C60.3931 147.288 60.0411 147.917 59.4971 148.408C58.9531 148.888 58.2118 149.128 57.2731 149.128Z" fill="#3A3F43"/>
<path d="M25.68 176.128C24.9653 176.128 24.3147 176.011 23.728 175.776C23.1413 175.531 22.6347 175.184 22.208 174.736C21.792 174.288 21.4667 173.739 21.232 173.088C20.9973 172.437 20.88 171.696 20.88 170.864V169.936C20.88 169.115 20.9973 168.379 21.232 167.728C21.4667 167.077 21.7973 166.528 22.224 166.08C22.6507 165.621 23.1573 165.275 23.744 165.04C24.3307 164.795 24.976 164.672 25.68 164.672C26.3947 164.672 27.0453 164.795 27.632 165.04C28.2187 165.275 28.72 165.616 29.136 166.064C29.5627 166.512 29.8933 167.061 30.128 167.712C30.3627 168.363 30.48 169.104 30.48 169.936V170.864C30.48 171.685 30.3627 172.421 30.128 173.072C29.8933 173.723 29.5627 174.277 29.136 174.736C28.7093 175.184 28.2027 175.531 27.616 175.776C27.0293 176.011 26.384 176.128 25.68 176.128ZM25.68 174.688C26.1493 174.688 26.5813 174.608 26.976 174.448C27.3707 174.277 27.712 174.032 28 173.712C28.288 173.392 28.512 172.997 28.672 172.528C28.832 172.048 28.912 171.493 28.912 170.864V169.936C28.912 169.317 28.832 168.773 28.672 168.304C28.512 167.824 28.288 167.424 28 167.104C27.712 166.773 27.3707 166.528 26.976 166.368C26.5813 166.197 26.1493 166.112 25.68 166.112C25.2107 166.112 24.7787 166.197 24.384 166.368C23.9893 166.528 23.648 166.768 23.36 167.088C23.072 167.408 22.848 167.808 22.688 168.288C22.528 168.768 22.448 169.317 22.448 169.936V170.864C22.448 171.483 22.528 172.032 22.688 172.512C22.848 172.981 23.072 173.381 23.36 173.712C23.648 174.032 23.9893 174.277 24.384 174.448C24.7787 174.608 25.2107 174.688 25.68 174.688ZM37.6794 169.312H33.9994V176H32.5594V168H39.1194V176H37.6794V169.312ZM40.6325 168H47.1925V169.312H44.6325V176H43.1925V169.312H40.6325V168ZM51.6031 176.128C51.0378 176.128 50.5258 176.043 50.0671 175.872C49.6191 175.691 49.2351 175.44 48.9151 175.12C48.5951 174.789 48.3498 174.389 48.1791 173.92C48.0085 173.44 47.9231 172.901 47.9231 172.304V171.696C47.9231 171.109 48.0085 170.581 48.1791 170.112C48.3605 169.632 48.6111 169.227 48.9311 168.896C49.2511 168.565 49.6351 168.315 50.0831 168.144C50.5418 167.963 51.0485 167.872 51.6031 167.872C52.1578 167.872 52.6591 167.963 53.1071 168.144C53.5658 168.315 53.9551 168.565 54.2751 168.896C54.5951 169.216 54.8405 169.616 55.0111 170.096C55.1925 170.565 55.2831 171.099 55.2831 171.696V172.304C55.2831 172.901 55.1925 173.435 55.0111 173.904C54.8405 174.373 54.5951 174.773 54.2751 175.104C53.9551 175.435 53.5658 175.691 53.1071 175.872C52.6591 176.043 52.1578 176.128 51.6031 176.128ZM51.6031 174.752C52.2751 174.752 52.8031 174.549 53.1871 174.144C53.5818 173.728 53.7791 173.115 53.7791 172.304V171.696C53.7791 170.896 53.5818 170.288 53.1871 169.872C52.8031 169.456 52.2751 169.248 51.6031 169.248C50.9311 169.248 50.3978 169.456 50.0031 169.872C49.6191 170.277 49.4271 170.885 49.4271 171.696V172.304C49.4271 173.104 49.6191 173.712 50.0031 174.128C50.3978 174.544 50.9311 174.752 51.6031 174.752ZM57.2 168H60.24C61.3173 168 62.0907 168.203 62.56 168.608C63.04 169.013 63.28 169.552 63.28 170.224C63.28 170.555 63.2 170.859 63.04 171.136C62.88 171.413 62.6293 171.648 62.288 171.84C62.736 172.021 63.0667 172.277 63.28 172.608C63.4933 172.928 63.6 173.285 63.6 173.68C63.6 174.405 63.36 174.976 62.88 175.392C62.4107 175.797 61.6373 176 60.56 176H57.2V168ZM58.64 172.544V174.688H60.56C61.136 174.688 61.536 174.597 61.76 174.416C61.984 174.224 62.096 173.952 62.096 173.6C62.096 173.259 61.984 172.997 61.76 172.816C61.536 172.635 61.136 172.544 60.56 172.544H58.64ZM58.64 169.312V171.296H60.24C60.8267 171.296 61.2267 171.211 61.44 171.04C61.664 170.859 61.776 170.613 61.776 170.304C61.776 169.995 61.664 169.755 61.44 169.584C61.2267 169.403 60.8267 169.312 60.24 169.312H58.64ZM65.5125 168H66.9525V170.56H68.4725C69.6778 170.56 70.5525 170.805 71.0965 171.296C71.6405 171.776 71.9125 172.437 71.9125 173.28C71.9125 174.133 71.6405 174.8 71.0965 175.28C70.5525 175.76 69.6778 176 68.4725 176H65.5125V168ZM73.0325 168H74.4725V176H73.0325V168ZM66.9525 171.872V174.688H68.5525C69.2565 174.688 69.7472 174.571 70.0245 174.336C70.3018 174.091 70.4405 173.739 70.4405 173.28C70.4405 172.821 70.3018 172.475 70.0245 172.24C69.7472 171.995 69.2565 171.872 68.5525 171.872H66.9525ZM79.9919 176.128C79.4585 176.128 78.9679 176.043 78.5199 175.872C78.0825 175.691 77.7039 175.435 77.3839 175.104C77.0745 174.773 76.8292 174.373 76.6479 173.904C76.4772 173.435 76.3919 172.901 76.3919 172.304V171.696C76.3919 171.109 76.4772 170.581 76.6479 170.112C76.8292 169.643 77.0799 169.243 77.3999 168.912C77.7199 168.581 78.0985 168.325 78.5359 168.144C78.9732 167.963 79.4585 167.872 79.9919 167.872C80.5252 167.872 81.0105 167.963 81.4479 168.144C81.8959 168.315 82.2745 168.565 82.5839 168.896C82.9039 169.227 83.1492 169.632 83.3199 170.112C83.5012 170.581 83.5919 171.109 83.5919 171.696V172.464H77.8959C77.9172 173.243 78.1199 173.829 78.5039 174.224C78.8879 174.619 79.3839 174.816 79.9919 174.816C80.6212 174.816 81.0799 174.704 81.3679 174.48C81.6559 174.256 81.8799 173.936 82.0399 173.52H83.5119C83.3519 174.309 82.9945 174.944 82.4399 175.424C81.8852 175.893 81.0692 176.128 79.9919 176.128ZM79.9919 169.184C79.4159 169.184 78.9412 169.355 78.5679 169.696C78.2052 170.027 77.9865 170.533 77.9119 171.216H82.0559C81.9919 170.512 81.7839 170 81.4319 169.68C81.0799 169.349 80.5999 169.184 79.9919 169.184ZM94.6325 169.312H90.9525V176H89.5125V168H96.0725V176H94.6325V169.312ZM102.338 176.128C101.282 176.128 100.471 175.781 99.9056 175.088V179.2H98.4656V168H99.5856L99.7296 169.152C100.007 168.725 100.37 168.405 100.818 168.192C101.266 167.979 101.778 167.872 102.354 167.872C102.802 167.872 103.218 167.957 103.602 168.128C103.996 168.288 104.332 168.533 104.61 168.864C104.887 169.184 105.106 169.584 105.266 170.064C105.426 170.533 105.506 171.077 105.506 171.696V172.304C105.506 172.923 105.426 173.472 105.266 173.952C105.106 174.421 104.882 174.821 104.594 175.152C104.316 175.472 103.98 175.717 103.586 175.888C103.202 176.048 102.786 176.128 102.338 176.128ZM101.954 174.752C102.594 174.752 103.095 174.555 103.458 174.16C103.82 173.765 104.002 173.147 104.002 172.304V171.696C104.002 170.864 103.82 170.251 103.458 169.856C103.095 169.451 102.594 169.248 101.954 169.248C101.378 169.248 100.898 169.445 100.514 169.84C100.13 170.235 99.927 170.816 99.9056 171.584V172.304C99.9056 173.093 100.098 173.701 100.482 174.128C100.866 174.544 101.356 174.752 101.954 174.752ZM110.619 176.128C110.053 176.128 109.541 176.043 109.083 175.872C108.635 175.691 108.251 175.44 107.931 175.12C107.611 174.789 107.365 174.389 107.195 173.92C107.024 173.44 106.939 172.901 106.939 172.304V171.696C106.939 171.109 107.024 170.581 107.195 170.112C107.376 169.632 107.627 169.227 107.947 168.896C108.267 168.565 108.651 168.315 109.099 168.144C109.557 167.963 110.064 167.872 110.619 167.872C111.173 167.872 111.675 167.963 112.123 168.144C112.581 168.315 112.971 168.565 113.291 168.896C113.611 169.216 113.856 169.616 114.027 170.096C114.208 170.565 114.299 171.099 114.299 171.696V172.304C114.299 172.901 114.208 173.435 114.027 173.904C113.856 174.373 113.611 174.773 113.291 175.104C112.971 175.435 112.581 175.691 112.123 175.872C111.675 176.043 111.173 176.128 110.619 176.128ZM110.619 174.752C111.291 174.752 111.819 174.549 112.203 174.144C112.597 173.728 112.795 173.115 112.795 172.304V171.696C112.795 170.896 112.597 170.288 112.203 169.872C111.819 169.456 111.291 169.248 110.619 169.248C109.947 169.248 109.413 169.456 109.019 169.872C108.635 170.277 108.443 170.885 108.443 171.696V172.304C108.443 173.104 108.635 173.712 109.019 174.128C109.413 174.544 109.947 174.752 110.619 174.752ZM121.979 176H116.459V178.08H115.019V174.688H115.883C116.054 174.453 116.193 174.213 116.299 173.968C116.417 173.712 116.507 173.419 116.571 173.088C116.635 172.757 116.678 172.379 116.699 171.952C116.731 171.515 116.747 170.997 116.747 170.4V168H122.379V174.688H123.419V178.08H121.979V176ZM118.155 170.4C118.155 171.04 118.139 171.589 118.107 172.048C118.075 172.507 118.027 172.901 117.963 173.232C117.899 173.563 117.819 173.845 117.723 174.08C117.638 174.304 117.542 174.507 117.435 174.688H120.939V169.312H118.155V170.4ZM127.013 176.128C126.181 176.128 125.546 175.92 125.109 175.504C124.671 175.077 124.453 174.496 124.453 173.76C124.453 173.355 124.517 172.992 124.645 172.672C124.773 172.341 124.975 172.064 125.253 171.84C125.541 171.616 125.903 171.445 126.341 171.328C126.789 171.211 127.333 171.152 127.973 171.152H129.573V170.56C129.573 170.112 129.439 169.765 129.173 169.52C128.917 169.275 128.517 169.152 127.973 169.152C127.429 169.152 127.034 169.253 126.789 169.456C126.554 169.659 126.415 169.92 126.373 170.24H124.773C124.815 169.557 125.093 168.992 125.605 168.544C126.127 168.096 126.917 167.872 127.973 167.872C128.975 167.872 129.733 168.112 130.245 168.592C130.757 169.072 131.013 169.728 131.013 170.56V176H129.893L129.717 174.688C129.429 175.147 129.05 175.504 128.581 175.76C128.122 176.005 127.599 176.128 127.013 176.128ZM127.173 174.848C127.525 174.848 127.845 174.789 128.133 174.672C128.431 174.555 128.687 174.4 128.901 174.208C129.114 174.005 129.279 173.771 129.397 173.504C129.514 173.237 129.573 172.955 129.573 172.656V172.368H127.973C127.237 172.368 126.714 172.496 126.405 172.752C126.106 172.997 125.957 173.323 125.957 173.728C125.957 174.069 126.063 174.341 126.277 174.544C126.49 174.747 126.789 174.848 127.173 174.848ZM139.725 172.496H138.605V176H137.165V172.496H136.045L134.093 176H132.365L134.765 171.888L132.669 168H134.397L136.029 171.184H137.165V168H138.605V171.184H139.709L141.389 168H143.085L141.005 171.792L143.405 176H141.645L139.725 172.496ZM150.281 169.712L149.401 171.36L146.697 176H144.841V168H146.281V174.288L147.161 172.64L149.865 168H151.721V176H150.281V169.712Z" fill="#3A3F43"/>
<path d="M20.24 201.688H20.56C20.8053 201.688 21.0293 201.635 21.232 201.528C21.4453 201.421 21.6267 201.213 21.776 200.904C21.9253 200.595 22.0373 200.168 22.112 199.624C22.1973 199.08 22.24 198.365 22.24 197.48V191.8H29.6V203H28.096V193.176H23.744V197.48C23.744 198.621 23.6747 199.555 23.536 200.28C23.3973 201.005 23.1947 201.581 22.928 202.008C22.6613 202.435 22.3307 202.728 21.936 202.888C21.5413 203.048 21.0827 203.128 20.56 203.128H20.24V201.688ZM37.515 196.712L36.635 198.36L33.931 203H32.075V195H33.515V201.288L34.395 199.64L37.099 195H38.955V203H37.515V196.712ZM45.8363 200.264C45.6016 200.317 45.3349 200.365 45.0363 200.408C44.7483 200.44 44.4283 200.456 44.0763 200.456C42.9456 200.456 42.1296 200.211 41.6283 199.72C41.1269 199.229 40.8763 198.456 40.8763 197.4V195H42.3163V197.4C42.3163 197.731 42.3429 198.008 42.3963 198.232C42.4603 198.456 42.5616 198.637 42.7003 198.776C42.8389 198.904 43.0203 199 43.2443 199.064C43.4683 199.117 43.7456 199.144 44.0763 199.144C44.4176 199.144 44.7376 199.128 45.0363 199.096C45.3456 199.053 45.6123 199.005 45.8363 198.952V195H47.2763V203H45.8363V200.264ZM55.1088 199.576H51.1088V203H49.6688V195H51.1088V198.264H55.1088V195H56.5487V203H55.1088V199.576ZM58.95 195H60.39V197.56H61.91C63.1153 197.56 63.99 197.805 64.534 198.296C65.078 198.776 65.35 199.437 65.35 200.28C65.35 201.133 65.078 201.8 64.534 202.28C63.99 202.76 63.1153 203 61.91 203H58.95V195ZM66.47 195H67.91V203H66.47V195ZM60.39 198.872V201.688H61.99C62.694 201.688 63.1847 201.571 63.462 201.336C63.7393 201.091 63.878 200.739 63.878 200.28C63.878 199.821 63.7393 199.475 63.462 199.24C63.1847 198.995 62.694 198.872 61.99 198.872H60.39ZM75.7494 196.712L74.8694 198.36L72.1654 203H70.3094V195H71.7494V201.288L72.6294 199.64L75.3334 195H77.1894V203H75.7494V196.712ZM73.7494 194.008C73.0454 194.008 72.496 193.816 72.1014 193.432C71.7067 193.037 71.5094 192.493 71.5094 191.8H72.7574C72.7574 192.216 72.8427 192.525 73.0134 192.728C73.1947 192.92 73.44 193.016 73.7494 193.016C74.0694 193.016 74.32 192.92 74.5014 192.728C74.6827 192.525 74.7734 192.216 74.7734 191.8H75.9894C75.9894 192.493 75.792 193.037 75.3974 193.432C75.0027 193.816 74.4534 194.008 73.7494 194.008ZM86.1346 199.496H85.0306V203H83.5906V195H85.0306V198.184H86.1506L88.2946 195H89.9906L87.3346 198.808L90.3106 203H88.5506L86.1346 199.496ZM93.5906 203.128C92.7586 203.128 92.124 202.92 91.6866 202.504C91.2493 202.077 91.0306 201.496 91.0306 200.76C91.0306 200.355 91.0946 199.992 91.2226 199.672C91.3506 199.341 91.5533 199.064 91.8306 198.84C92.1186 198.616 92.4813 198.445 92.9186 198.328C93.3666 198.211 93.9106 198.152 94.5506 198.152H96.1506V197.56C96.1506 197.112 96.0173 196.765 95.7506 196.52C95.4946 196.275 95.0946 196.152 94.5506 196.152C94.0066 196.152 93.612 196.253 93.3666 196.456C93.132 196.659 92.9933 196.92 92.9506 197.24H91.3506C91.3933 196.557 91.6706 195.992 92.1826 195.544C92.7053 195.096 93.4946 194.872 94.5506 194.872C95.5533 194.872 96.3106 195.112 96.8226 195.592C97.3346 196.072 97.5906 196.728 97.5906 197.56V203H96.4706L96.2946 201.688C96.0066 202.147 95.628 202.504 95.1586 202.76C94.7 203.005 94.1773 203.128 93.5906 203.128ZM93.7506 201.848C94.1026 201.848 94.4226 201.789 94.7106 201.672C95.0093 201.555 95.2653 201.4 95.4786 201.208C95.692 201.005 95.8573 200.771 95.9746 200.504C96.092 200.237 96.1506 199.955 96.1506 199.656V199.368H94.5506C93.8146 199.368 93.292 199.496 92.9826 199.752C92.684 199.997 92.5346 200.323 92.5346 200.728C92.5346 201.069 92.6413 201.341 92.8546 201.544C93.068 201.747 93.3666 201.848 93.7506 201.848ZM103.103 203.128C101.962 203.128 101.06 202.765 100.399 202.04C99.7485 201.315 99.4231 200.189 99.4231 198.664V197.736C99.4231 197.181 99.4498 196.648 99.5031 196.136C99.5671 195.613 99.6738 195.128 99.8231 194.68C99.9725 194.232 100.17 193.832 100.415 193.48C100.671 193.128 100.991 192.84 101.375 192.616C101.716 192.413 102.052 192.28 102.383 192.216C102.724 192.152 103.082 192.109 103.455 192.088C103.828 192.056 104.228 192.019 104.655 191.976C105.092 191.933 105.583 191.832 106.127 191.672V192.968C105.722 193.117 105.327 193.213 104.943 193.256C104.57 193.288 104.207 193.315 103.855 193.336C103.503 193.357 103.172 193.395 102.863 193.448C102.554 193.491 102.271 193.592 102.015 193.752C101.674 193.976 101.407 194.275 101.215 194.648C101.034 195.021 100.9 195.517 100.815 196.136C101.114 195.763 101.476 195.485 101.903 195.304C102.33 195.123 102.81 195.032 103.343 195.032C103.855 195.032 104.319 195.117 104.735 195.288C105.162 195.459 105.524 195.704 105.823 196.024C106.132 196.344 106.367 196.739 106.527 197.208C106.698 197.667 106.783 198.189 106.783 198.776V199.384C106.783 199.96 106.692 200.483 106.511 200.952C106.34 201.411 106.095 201.8 105.775 202.12C105.455 202.44 105.066 202.691 104.607 202.872C104.159 203.043 103.658 203.128 103.103 203.128ZM103.103 196.408C102.452 196.408 101.93 196.6 101.535 196.984C101.151 197.357 100.948 197.896 100.927 198.6V199.32C100.927 200.109 101.124 200.712 101.519 201.128C101.924 201.544 102.452 201.752 103.103 201.752C103.775 201.752 104.303 201.549 104.687 201.144C105.082 200.739 105.279 200.152 105.279 199.384V198.776C105.279 198.019 105.082 197.437 104.687 197.032C104.292 196.616 103.764 196.408 103.103 196.408ZM114.14 196.712L113.26 198.36L110.556 203H108.7V195H110.14V201.288L111.02 199.64L113.724 195H115.58V203H114.14V196.712ZM123.421 199.576H119.421V203H117.981V195H119.421V198.264H123.421V195H124.861V203H123.421V199.576ZM130.383 203.128C129.849 203.128 129.359 203.043 128.911 202.872C128.473 202.691 128.095 202.435 127.775 202.104C127.465 201.773 127.22 201.373 127.039 200.904C126.868 200.435 126.783 199.901 126.783 199.304V198.696C126.783 198.109 126.868 197.581 127.039 197.112C127.22 196.643 127.471 196.243 127.791 195.912C128.111 195.581 128.489 195.325 128.927 195.144C129.364 194.963 129.849 194.872 130.383 194.872C130.916 194.872 131.401 194.963 131.839 195.144C132.287 195.315 132.665 195.565 132.975 195.896C133.295 196.227 133.54 196.632 133.711 197.112C133.892 197.581 133.983 198.109 133.983 198.696V199.464H128.287C128.308 200.243 128.511 200.829 128.895 201.224C129.279 201.619 129.775 201.816 130.383 201.816C131.012 201.816 131.471 201.704 131.759 201.48C132.047 201.256 132.271 200.936 132.431 200.52H133.903C133.743 201.309 133.385 201.944 132.831 202.424C132.276 202.893 131.46 203.128 130.383 203.128ZM130.383 196.184C129.807 196.184 129.332 196.355 128.959 196.696C128.596 197.027 128.377 197.533 128.303 198.216H132.447C132.383 197.512 132.175 197 131.823 196.68C131.471 196.349 130.991 196.184 130.383 196.184ZM134.711 195H141.271V196.312H138.711V203H137.271V196.312H134.711V195Z" fill="#3A3F43"/>
<defs>
<filter id="filter0_d_1625_72592" x="0" y="66" width="76" height="76" filterUnits="userSpaceOnUse" color-interpolation-filters="sRGB">
<feFlood flood-opacity="0" result="BackgroundImageFix"/>
<feColorMatrix in="SourceAlpha" type="matrix" values="0 0 0 0 0 0 0 0 0 0 0 0 0 0 0 0 0 0 127 0" result="hardAlpha"/>
<feOffset dy="5"/>
<feGaussianBlur stdDeviation="10"/>
<feComposite in2="hardAlpha" operator="out"/>
<feColorMatrix type="matrix" values="0 0 0 0 0.247135 0 0 0 0 0.259458 0 0 0 0 0.270833 0 0 0 0.05 0"/>
<feBlend mode="normal" in2="BackgroundImageFix" result="effect1_dropShadow_1625_72592"/>
<feBlend mode="normal" in="SourceGraphic" in2="effect1_dropShadow_1625_72592" result="shape"/>
</filter>
<filter id="filter1_d_1625_72592" x="51" y="66" width="76" height="76" filterUnits="userSpaceOnUse" color-interpolation-filters="sRGB">
<feFlood flood-opacity="0" result="BackgroundImageFix"/>
<feColorMatrix in="SourceAlpha" type="matrix" values="0 0 0 0 0 0 0 0 0 0 0 0 0 0 0 0 0 0 127 0" result="hardAlpha"/>
<feOffset dy="5"/>
<feGaussianBlur stdDeviation="10"/>
<feComposite in2="hardAlpha" operator="out"/>
<feColorMatrix type="matrix" values="0 0 0 0 0.247135 0 0 0 0 0.259458 0 0 0 0 0.270833 0 0 0 0.05 0"/>
<feBlend mode="normal" in2="BackgroundImageFix" result="effect1_dropShadow_1625_72592"/>
<feBlend mode="normal" in="SourceGraphic" in2="effect1_dropShadow_1625_72592" result="shape"/>
</filter>
<filter id="filter2_d_1625_72592" x="102" y="66" width="76" height="76" filterUnits="userSpaceOnUse" color-interpolation-filters="sRGB">
<feFlood flood-opacity="0" result="BackgroundImageFix"/>
<feColorMatrix in="SourceAlpha" type="matrix" values="0 0 0 0 0 0 0 0 0 0 0 0 0 0 0 0 0 0 127 0" result="hardAlpha"/>
<feOffset dy="5"/>
<feGaussianBlur stdDeviation="10"/>
<feComposite in2="hardAlpha" operator="out"/>
<feColorMatrix type="matrix" values="0 0 0 0 0.247135 0 0 0 0 0.259458 0 0 0 0 0.270833 0 0 0 0.05 0"/>
<feBlend mode="normal" in2="BackgroundImageFix" result="effect1_dropShadow_1625_72592"/>
<feBlend mode="normal" in="SourceGraphic" in2="effect1_dropShadow_1625_72592" result="shape"/>
</filter>
<filter id="filter3_d_1625_72592" x="153" y="66" width="76" height="76" filterUnits="userSpaceOnUse" color-interpolation-filters="sRGB">
<feFlood flood-opacity="0" result="BackgroundImageFix"/>
<feColorMatrix in="SourceAlpha" type="matrix" values="0 0 0 0 0 0 0 0 0 0 0 0 0 0 0 0 0 0 127 0" result="hardAlpha"/>
<feOffset dy="5"/>
<feGaussianBlur stdDeviation="10"/>
<feComposite in2="hardAlpha" operator="out"/>
<feColorMatrix type="matrix" values="0 0 0 0 0.247135 0 0 0 0 0.259458 0 0 0 0 0.270833 0 0 0 0.05 0"/>
<feBlend mode="normal" in2="BackgroundImageFix" result="effect1_dropShadow_1625_72592"/>
<feBlend mode="normal" in="SourceGraphic" in2="effect1_dropShadow_1625_72592" result="shape"/>
</filter>
</defs>
</svg>
