<svg width="162" height="78" viewBox="0 0 162 78" fill="none" xmlns="http://www.w3.org/2000/svg">
<path d="M4.9 14.112C4.29333 14.112 3.738 14.0093 3.234 13.804C2.73 13.5893 2.296 13.286 1.932 12.894C1.568 12.502 1.28333 12.0213 1.078 11.452C0.872667 10.8827 0.77 10.234 0.77 9.506V8.694C0.77 7.97533 0.872667 7.33133 1.078 6.762C1.28333 6.19267 1.568 5.712 1.932 5.32C2.296 4.91867 2.73 4.61533 3.234 4.41C3.738 4.19533 4.29333 4.088 4.9 4.088C5.44133 4.088 5.93133 4.172 6.37 4.34C6.80867 4.49867 7.19133 4.718 7.518 4.998C7.854 5.26867 8.12467 5.586 8.33 5.95C8.53533 6.30467 8.67533 6.678 8.75 7.07H7.322C7.24733 6.846 7.14 6.63133 7 6.426C6.86933 6.22067 6.70133 6.03867 6.496 5.88C6.29067 5.72133 6.05267 5.59533 5.782 5.502C5.52067 5.39933 5.22667 5.348 4.9 5.348C4.508 5.348 4.13933 5.42267 3.794 5.572C3.458 5.712 3.16867 5.92667 2.926 6.216C2.68333 6.496 2.492 6.846 2.352 7.266C2.212 7.67667 2.142 8.15267 2.142 8.694V9.506C2.142 10.0473 2.212 10.528 2.352 10.948C2.492 11.3587 2.68333 11.7087 2.926 11.998C3.178 12.278 3.472 12.4927 3.808 12.642C4.144 12.782 4.508 12.852 4.9 12.852C5.55333 12.852 6.08533 12.6653 6.496 12.292C6.90667 11.9187 7.182 11.438 7.322 10.85H8.75C8.67533 11.3073 8.53533 11.7367 8.33 12.138C8.12467 12.53 7.854 12.8753 7.518 13.174C7.19133 13.4633 6.804 13.692 6.356 13.86C5.91733 14.028 5.432 14.112 4.9 14.112ZM14.9089 8.148H11.6889V14H10.4289V7H16.1689V14H14.9089V8.148ZM21.0629 14.112C20.5682 14.112 20.1202 14.0373 19.7189 13.888C19.3269 13.7293 18.9909 13.51 18.7109 13.23C18.4309 12.9407 18.2162 12.5907 18.0669 12.18C17.9176 11.76 17.8429 11.2887 17.8429 10.766V10.234C17.8429 9.72067 17.9176 9.25867 18.0669 8.848C18.2256 8.428 18.4449 8.07333 18.7249 7.784C19.0049 7.49467 19.3409 7.27533 19.7329 7.126C20.1342 6.96733 20.5776 6.888 21.0629 6.888C21.5482 6.888 21.9869 6.96733 22.3789 7.126C22.7802 7.27533 23.1209 7.49467 23.4009 7.784C23.6809 8.064 23.8956 8.414 24.0449 8.834C24.2036 9.24467 24.2829 9.71133 24.2829 10.234V10.766C24.2829 11.2887 24.2036 11.7553 24.0449 12.166C23.8956 12.5767 23.6809 12.9267 23.4009 13.216C23.1209 13.5053 22.7802 13.7293 22.3789 13.888C21.9869 14.0373 21.5482 14.112 21.0629 14.112ZM21.0629 12.908C21.6509 12.908 22.1129 12.7307 22.4489 12.376C22.7942 12.012 22.9669 11.4753 22.9669 10.766V10.234C22.9669 9.534 22.7942 9.002 22.4489 8.638C22.1129 8.274 21.6509 8.092 21.0629 8.092C20.4749 8.092 20.0082 8.274 19.6629 8.638C19.3269 8.99267 19.1589 9.52467 19.1589 10.234V10.766C19.1589 11.466 19.3269 11.998 19.6629 12.362C20.0082 12.726 20.4749 12.908 21.0629 12.908ZM28.6902 14.112C27.7195 14.112 26.9495 13.8227 26.3802 13.244C25.8202 12.6653 25.5402 11.8393 25.5402 10.766V10.234C25.5402 9.702 25.6148 9.23067 25.7642 8.82C25.9135 8.40933 26.1235 8.05933 26.3942 7.77C26.6648 7.48067 26.9962 7.26133 27.3882 7.112C27.7802 6.96267 28.2142 6.888 28.6902 6.888C29.1008 6.888 29.4648 6.944 29.7822 7.056C30.1088 7.168 30.3888 7.322 30.6222 7.518C30.8648 7.70467 31.0608 7.92867 31.2102 8.19C31.3688 8.45133 31.4855 8.73133 31.5602 9.03H30.2162C30.1135 8.78733 29.9362 8.57267 29.6842 8.386C29.4415 8.19 29.0868 8.092 28.6202 8.092C28.0882 8.092 27.6588 8.26933 27.3322 8.624C27.0148 8.97867 26.8562 9.51533 26.8562 10.234V10.766C26.8562 11.4753 27.0195 12.012 27.3462 12.376C27.6728 12.7307 28.0975 12.908 28.6202 12.908C29.0962 12.908 29.4555 12.81 29.6982 12.614C29.9408 12.418 30.1135 12.1567 30.2162 11.83H31.5602C31.4202 12.502 31.1122 13.0527 30.6362 13.482C30.1602 13.902 29.5115 14.112 28.6902 14.112ZM35.8285 14.112C35.3338 14.112 34.8858 14.0373 34.4845 13.888C34.0925 13.7293 33.7565 13.51 33.4765 13.23C33.1965 12.9407 32.9818 12.5907 32.8325 12.18C32.6832 11.76 32.6085 11.2887 32.6085 10.766V10.234C32.6085 9.72067 32.6832 9.25867 32.8325 8.848C32.9912 8.428 33.2105 8.07333 33.4905 7.784C33.7705 7.49467 34.1065 7.27533 34.4985 7.126C34.8998 6.96733 35.3432 6.888 35.8285 6.888C36.3138 6.888 36.7525 6.96733 37.1445 7.126C37.5458 7.27533 37.8865 7.49467 38.1665 7.784C38.4465 8.064 38.6612 8.414 38.8105 8.834C38.9692 9.24467 39.0485 9.71133 39.0485 10.234V10.766C39.0485 11.2887 38.9692 11.7553 38.8105 12.166C38.6612 12.5767 38.4465 12.9267 38.1665 13.216C37.8865 13.5053 37.5458 13.7293 37.1445 13.888C36.7525 14.0373 36.3138 14.112 35.8285 14.112ZM35.8285 12.908C36.4165 12.908 36.8785 12.7307 37.2145 12.376C37.5598 12.012 37.7325 11.4753 37.7325 10.766V10.234C37.7325 9.534 37.5598 9.002 37.2145 8.638C36.8785 8.274 36.4165 8.092 35.8285 8.092C35.2405 8.092 34.7738 8.274 34.4285 8.638C34.0925 8.99267 33.9245 9.52467 33.9245 10.234V10.766C33.9245 11.466 34.0925 11.998 34.4285 12.362C34.7738 12.726 35.2405 12.908 35.8285 12.908ZM43.5258 14.112C42.5271 14.112 41.7384 13.7947 41.1598 13.16C40.5904 12.5253 40.3058 11.5407 40.3058 10.206V9.394C40.3058 8.90867 40.3291 8.442 40.3758 7.994C40.4318 7.53667 40.5251 7.112 40.6558 6.72C40.7864 6.328 40.9591 5.978 41.1738 5.67C41.3978 5.362 41.6778 5.11 42.0138 4.914C42.3124 4.73667 42.6064 4.62 42.8958 4.564C43.1944 4.508 43.5071 4.47067 43.8338 4.452C44.1604 4.424 44.5104 4.39133 44.8838 4.354C45.2664 4.31667 45.6958 4.228 46.1718 4.088V5.222C45.8171 5.35267 45.4718 5.43667 45.1358 5.474C44.8091 5.502 44.4918 5.52533 44.1838 5.544C43.8758 5.56267 43.5864 5.59533 43.3158 5.642C43.0451 5.67933 42.7978 5.768 42.5738 5.908C42.2751 6.104 42.0418 6.36533 41.8738 6.692C41.7151 7.01867 41.5984 7.45267 41.5238 7.994C41.7851 7.66733 42.1024 7.42467 42.4758 7.266C42.8491 7.10733 43.2691 7.028 43.7358 7.028C44.1838 7.028 44.5898 7.10267 44.9538 7.252C45.3271 7.40133 45.6444 7.616 45.9058 7.896C46.1764 8.176 46.3818 8.52133 46.5218 8.932C46.6711 9.33333 46.7458 9.79067 46.7458 10.304V10.836C46.7458 11.34 46.6664 11.7973 46.5078 12.208C46.3584 12.6093 46.1438 12.95 45.8638 13.23C45.5838 13.51 45.2431 13.7293 44.8418 13.888C44.4498 14.0373 44.0111 14.112 43.5258 14.112ZM43.5258 8.232C42.9564 8.232 42.4991 8.4 42.1538 8.736C41.8178 9.06267 41.6404 9.534 41.6218 10.15V10.78C41.6218 11.4707 41.7944 11.998 42.1398 12.362C42.4944 12.726 42.9564 12.908 43.5258 12.908C44.1138 12.908 44.5758 12.7307 44.9118 12.376C45.2571 12.0213 45.4298 11.508 45.4298 10.836V10.304C45.4298 9.64133 45.2571 9.13267 44.9118 8.778C44.5664 8.414 44.1044 8.232 43.5258 8.232ZM48.423 7H49.683V9.24H51.013C52.0677 9.24 52.833 9.45467 53.309 9.884C53.785 10.304 54.023 10.8827 54.023 11.62C54.023 12.3667 53.785 12.95 53.309 13.37C52.833 13.79 52.0677 14 51.013 14H48.423V7ZM55.003 7H56.263V14H55.003V7ZM49.683 10.388V12.852H51.083C51.699 12.852 52.1284 12.7493 52.371 12.544C52.6137 12.3293 52.735 12.0213 52.735 11.62C52.735 11.2187 52.6137 10.9153 52.371 10.71C52.1284 10.4953 51.699 10.388 51.083 10.388H49.683ZM64.6625 14.112C64.1678 14.112 63.7198 14.0373 63.3185 13.888C62.9265 13.7293 62.5905 13.51 62.3105 13.23C62.0305 12.9407 61.8158 12.5907 61.6665 12.18C61.5172 11.76 61.4425 11.2887 61.4425 10.766V10.234C61.4425 9.72067 61.5172 9.25867 61.6665 8.848C61.8252 8.428 62.0445 8.07333 62.3245 7.784C62.6045 7.49467 62.9405 7.27533 63.3325 7.126C63.7338 6.96733 64.1772 6.888 64.6625 6.888C65.1478 6.888 65.5865 6.96733 65.9785 7.126C66.3798 7.27533 66.7205 7.49467 67.0005 7.784C67.2805 8.064 67.4952 8.414 67.6445 8.834C67.8032 9.24467 67.8825 9.71133 67.8825 10.234V10.766C67.8825 11.2887 67.8032 11.7553 67.6445 12.166C67.4952 12.5767 67.2805 12.9267 67.0005 13.216C66.7205 13.5053 66.3798 13.7293 65.9785 13.888C65.5865 14.0373 65.1478 14.112 64.6625 14.112ZM64.6625 12.908C65.2505 12.908 65.7125 12.7307 66.0485 12.376C66.3938 12.012 66.5665 11.4753 66.5665 10.766V10.234C66.5665 9.534 66.3938 9.002 66.0485 8.638C65.7125 8.274 65.2505 8.092 64.6625 8.092C64.0745 8.092 63.6078 8.274 63.2625 8.638C62.9265 8.99267 62.7585 9.52467 62.7585 10.234V10.766C62.7585 11.466 62.9265 11.998 63.2625 12.362C63.6078 12.726 64.0745 12.908 64.6625 12.908ZM74.0398 8.148H70.8198V14H69.5598V7H75.2998V14H74.0398V8.148ZM76.5538 12.908H76.7638C76.9131 12.908 77.0531 12.8707 77.1838 12.796C77.3238 12.7213 77.4451 12.5907 77.5478 12.404C77.6504 12.2173 77.7298 11.9653 77.7858 11.648C77.8511 11.3307 77.8838 10.9293 77.8838 10.444V7H82.9238V14H81.6638V8.148H79.1438V10.444C79.1438 11.1347 79.0878 11.7133 78.9758 12.18C78.8638 12.6467 78.7051 13.0247 78.4998 13.314C78.2944 13.6033 78.0424 13.8087 77.7438 13.93C77.4544 14.0513 77.1278 14.112 76.7638 14.112H76.5538V12.908ZM86.7727 14.112C86.0447 14.112 85.4893 13.93 85.1067 13.566C84.724 13.1927 84.5327 12.684 84.5327 12.04C84.5327 11.6853 84.5887 11.368 84.7007 11.088C84.8127 10.7987 84.99 10.556 85.2327 10.36C85.4847 10.164 85.802 10.0147 86.1847 9.912C86.5767 9.80933 87.0527 9.758 87.6127 9.758H89.0127V9.24C89.0127 8.848 88.896 8.54467 88.6627 8.33C88.4387 8.11533 88.0887 8.008 87.6127 8.008C87.1367 8.008 86.7913 8.09667 86.5767 8.274C86.3713 8.45133 86.25 8.68 86.2127 8.96H84.8127C84.85 8.36267 85.0927 7.868 85.5407 7.476C85.998 7.084 86.6887 6.888 87.6127 6.888C88.49 6.888 89.1527 7.098 89.6007 7.518C90.0487 7.938 90.2727 8.512 90.2727 9.24V14H89.2927L89.1387 12.852C88.8867 13.2533 88.5553 13.566 88.1447 13.79C87.7433 14.0047 87.286 14.112 86.7727 14.112ZM86.9127 12.992C87.2207 12.992 87.5007 12.9407 87.7527 12.838C88.014 12.7353 88.238 12.6 88.4247 12.432C88.6113 12.2547 88.756 12.0493 88.8587 11.816C88.9613 11.5827 89.0127 11.3353 89.0127 11.074V10.822H87.6127C86.9687 10.822 86.5113 10.934 86.2407 11.158C85.9793 11.3727 85.8487 11.6573 85.8487 12.012C85.8487 12.3107 85.942 12.5487 86.1287 12.726C86.3153 12.9033 86.5767 12.992 86.9127 12.992ZM91.3894 7H97.1294V8.148H94.8894V14H93.6294V8.148H91.3894V7ZM98.4621 7H99.7221V9.24H101.052C102.107 9.24 102.872 9.45467 103.348 9.884C103.824 10.304 104.062 10.8827 104.062 11.62C104.062 12.3667 103.824 12.95 103.348 13.37C102.872 13.79 102.107 14 101.052 14H98.4621V7ZM105.042 7H106.302V14H105.042V7ZM99.7221 10.388V12.852H101.122C101.738 12.852 102.167 12.7493 102.41 12.544C102.653 12.3293 102.774 12.0213 102.774 11.62C102.774 11.2187 102.653 10.9153 102.41 10.71C102.167 10.4953 101.738 10.388 101.122 10.388H99.7221ZM109.102 8.848C108.812 8.848 108.574 8.75467 108.388 8.568C108.21 8.372 108.122 8.13867 108.122 7.868C108.122 7.59733 108.21 7.36867 108.388 7.182C108.574 6.986 108.812 6.888 109.102 6.888C109.391 6.888 109.624 6.986 109.802 7.182C109.988 7.36867 110.082 7.59733 110.082 7.868C110.082 8.13867 109.988 8.372 109.802 8.568C109.624 8.75467 109.391 8.848 109.102 8.848ZM109.102 14.112C108.812 14.112 108.574 14.0187 108.388 13.832C108.21 13.636 108.122 13.4027 108.122 13.132C108.122 12.8613 108.21 12.6327 108.388 12.446C108.574 12.25 108.812 12.152 109.102 12.152C109.391 12.152 109.624 12.25 109.802 12.446C109.988 12.6327 110.082 12.8613 110.082 13.132C110.082 13.4027 109.988 13.636 109.802 13.832C109.624 14.0187 109.391 14.112 109.102 14.112Z" fill="#747883"/>
<g clip-path="url(#clip0_405_38362)">
<path d="M1.56252 31.293H17.1875C18.0469 31.293 18.75 31.9961 18.75 32.8555V34.7305C18.75 35.5899 18.0469 36.293 17.1875 36.293H1.56252C0.703122 36.2929 0 35.5898 0 34.7305V32.8554C0 31.9961 0.703122 31.293 1.56252 31.293Z" fill="#A86A3F"/>
<path d="M4.98438 32.9643L14.7656 30.3706C15.0938 30.2768 15.4375 30.48 15.5312 30.8081L17.1562 36.8081C17.25 37.1362 17.0469 37.48 16.7187 37.5737L3.98438 40.9643C3.65625 41.0581 3.31252 40.8549 3.21878 40.5268L2.03125 36.1206L4.98438 32.9643Z" fill="#5EBA6D"/>
<path d="M15.4534 36.6204L13.3441 37.1829C13.1722 37.2298 13.0003 37.136 12.9691 36.9641C12.9222 36.7923 13.016 36.6204 13.1878 36.5891L15.0003 36.1048L14.0316 32.4798L12.2191 32.9642C12.0472 33.011 11.8753 32.9173 11.8441 32.7454C11.7972 32.5735 11.891 32.4016 12.0629 32.3704L14.1722 31.8079C14.3441 31.761 14.516 31.8548 14.5472 32.0267L15.6722 36.2454C15.719 36.4173 15.6253 36.5891 15.4534 36.6204ZM6.70342 38.9798L4.59405 39.5423C4.42219 39.5892 4.25029 39.4954 4.21906 39.3235L3.09406 35.1048C3.04717 34.9329 3.14096 34.761 3.31282 34.7298L5.42218 34.1673C5.59405 34.1204 5.76595 34.2142 5.79717 34.3861C5.84406 34.5579 5.75028 34.7298 5.57841 34.7611L3.76592 35.2454L4.73465 38.8704L6.54715 38.386C6.71901 38.3392 6.89091 38.4329 6.92213 38.6048C6.96903 38.761 6.87528 38.9329 6.70342 38.9798Z" fill="#B3F0BD"/>
<path d="M0.125046 35.1521C2.90627 33.5583 10.4063 29.1677 10.4063 29.1677C10.7032 28.9958 11.0938 29.0896 11.2657 29.3864L14.3907 34.7614C14.5626 35.0583 14.4532 35.4333 14.1563 35.6052L2.71878 42.1677C2.42191 42.3395 2.03129 42.2458 1.85938 41.9489C1.85938 41.9489 0.984399 40.1677 0.109375 38.6677C0.109415 35.1521 0.125046 36.3083 0.125046 35.1521Z" fill="#5EBA6D"/>
<path d="M12.7971 34.5891L10.6096 30.8079C10.5159 30.6516 10.3284 30.6047 10.1877 30.6985L8.29714 31.7922C8.1409 31.886 8.09401 32.0735 8.18776 32.2141C8.2815 32.3703 8.469 32.4172 8.60964 32.3235L10.2346 31.386L12.1097 34.636L10.4847 35.5735C10.3284 35.6672 10.2815 35.8547 10.3753 35.9954C10.469 36.1516 10.6565 36.1985 10.7972 36.1047L12.6878 35.011C12.8284 34.9329 12.8909 34.7454 12.7971 34.5891ZM4.51588 39.011L2.89088 39.9485L1.01586 36.6985L2.64086 35.761C2.79709 35.6672 2.84398 35.4797 2.75024 35.3391C2.65649 35.1829 2.469 35.136 2.32836 35.2297L0.437747 36.3235C0.281515 36.4172 0.234622 36.6047 0.328369 36.7453L2.51585 40.5266C2.6096 40.6828 2.79709 40.7297 2.93773 40.636L4.82834 39.5422C4.98457 39.4485 5.03147 39.261 4.93772 39.1204C4.8596 38.9798 4.67211 38.9172 4.51588 39.011ZM5.31275 33.4954C4.10963 34.1829 3.70338 35.7141 4.39087 36.9172C5.09399 38.1204 6.60961 38.5266 7.81273 37.8391C9.01585 37.1516 9.4221 35.6204 8.73461 34.4173C8.03149 33.2297 6.51586 32.8079 5.31275 33.4954ZM12.7971 34.5891L10.6096 30.8079C10.5159 30.6516 10.3284 30.6047 10.1877 30.6985L8.29714 31.7922C8.1409 31.886 8.09401 32.0735 8.18776 32.2141C8.2815 32.3703 8.469 32.4172 8.60964 32.3235L10.2346 31.386L12.1097 34.636L10.4847 35.5735C10.3284 35.6672 10.2815 35.8547 10.3753 35.9954C10.469 36.1516 10.6565 36.1985 10.7972 36.1047L12.6878 35.011C12.8284 34.9329 12.8909 34.7454 12.7971 34.5891ZM4.51588 39.011L2.89088 39.9485L1.01586 36.6985L2.64086 35.761C2.79709 35.6672 2.84398 35.4797 2.75024 35.3391C2.65649 35.1829 2.469 35.136 2.32836 35.2297L0.437747 36.3235C0.281515 36.4172 0.234622 36.6047 0.328369 36.7453L2.51585 40.5266C2.6096 40.6828 2.79709 40.7297 2.93773 40.636L4.82834 39.5422C4.98457 39.4485 5.03147 39.261 4.93772 39.1204C4.8596 38.9798 4.67211 38.9172 4.51588 39.011ZM5.31275 33.4954C4.10963 34.1829 3.70338 35.7141 4.39087 36.9172C5.09399 38.1204 6.60961 38.5266 7.81273 37.8391C9.01585 37.1516 9.4221 35.6204 8.73461 34.4173C8.03149 33.2297 6.51586 32.8079 5.31275 33.4954Z" fill="#B3F0BD"/>
<path d="M17.8125 46.918H1.56252C0.703122 46.918 0 46.2149 0 45.3555V34.1055H17.8125C18.6719 34.1055 19.375 34.8086 19.375 35.668V45.3555C19.375 46.2149 18.6719 46.918 17.8125 46.918ZM1.25001 34.1055H0V32.8555C0 33.543 0.562482 34.1055 1.25001 34.1055Z" fill="#C47E4D"/>
<path d="M19.375 43.0117H16.875C15.6719 43.0117 14.6875 42.0273 14.6875 40.8242C14.6875 39.6211 15.6719 38.6367 16.875 38.6367H19.375C19.7187 38.6367 20 38.918 20 39.2617V42.3867C20 42.7304 19.7187 43.0117 19.375 43.0117Z" fill="#A86A3F"/>
<path d="M16.875 39.5742C17.5625 39.5742 18.125 40.1367 18.125 40.8242C18.125 41.5118 17.5625 42.0742 16.875 42.0742C16.1875 42.0742 15.625 41.5118 15.625 40.8242C15.625 40.1367 16.1875 39.5742 16.875 39.5742Z" fill="#EFC75E"/>
<path d="M17.1875 41.7617C16.5 41.7617 15.9375 41.1992 15.9375 40.5117C15.9375 40.2461 16.0156 39.9961 16.1563 39.793C15.8281 40.0117 15.625 40.3867 15.625 40.8242C15.625 41.5117 16.1875 42.0742 16.875 42.0742C17.2969 42.0742 17.6719 41.8555 17.9063 41.543C17.7031 41.6836 17.4531 41.7617 17.1875 41.7617Z" fill="#D7B354"/>
<path d="M17.8125 46.293H1.56252C0.703122 46.293 0 45.5899 0 44.7305V45.3555C0 46.2149 0.703122 46.918 1.56252 46.918H17.8125C18.6719 46.918 19.375 46.2149 19.375 45.3555V44.7305C19.375 45.5899 18.6719 46.293 17.8125 46.293Z" fill="#B27245"/>
<path d="M17.8125 34.1055H1.25001C0.562482 34.1055 0 33.543 0 32.8555V33.4805C0 34.168 0.562482 34.7305 1.25001 34.7305H17.8125C18.6719 34.7305 19.375 35.4336 19.375 36.293V35.668C19.375 34.8086 18.6719 34.1055 17.8125 34.1055Z" fill="#CA8B5F"/>
</g>
<path d="M54.9082 45.7661H51.1865L53.5144 30.7471H57.2358L54.9082 45.7661Z" fill="#00579F"/>
<path d="M68.3993 31.114C67.6652 30.8101 66.5009 30.4746 65.0613 30.4746C61.386 30.4746 58.798 32.5197 58.7821 35.4434C58.7515 37.6006 60.6351 38.7988 62.0438 39.518C63.4836 40.253 63.9731 40.7327 63.9731 41.3879C63.9584 42.3941 62.8096 42.8578 61.7381 42.8578C60.2523 42.8578 59.4561 42.6187 58.2462 42.059L57.7561 41.819L57.2354 45.1904C58.1083 45.6054 59.7164 45.9736 61.386 45.9898C65.291 45.9898 67.8334 43.9764 67.8634 40.8606C67.8783 39.1509 66.8838 37.8408 64.7396 36.7703C63.4378 36.0831 62.6407 35.6197 62.6407 34.9166C62.656 34.2774 63.3149 33.6227 64.7843 33.6227C65.9942 33.5906 66.8832 33.8941 67.5565 34.1977L67.8932 34.3572L68.3993 31.114Z" fill="#00579F"/>
<path d="M73.3459 40.4454C73.6524 39.5826 74.8317 36.2432 74.8317 36.2432C74.8163 36.2753 75.1376 35.3645 75.3214 34.8053L75.5815 36.0994C75.5815 36.0994 76.2863 39.6945 76.4393 40.4454C75.8577 40.4454 74.081 40.4454 73.3459 40.4454ZM77.9398 30.7471H75.0611C74.1734 30.7471 73.499 31.0185 73.1159 31.9932L67.5879 45.766H71.4929C71.4929 45.766 72.1358 43.9122 72.274 43.513C72.7024 43.513 76.5012 43.513 77.0523 43.513C77.1591 44.0403 77.4964 45.766 77.4964 45.766H80.9422L77.9398 30.7471Z" fill="#00579F"/>
<path d="M48.0781 30.7471L44.4333 40.9887L44.0351 38.9116C43.3612 36.5148 41.248 33.9108 38.8896 32.6161L42.2281 45.7502H46.1636L52.0134 30.7471H48.0781Z" fill="#00579F"/>
<path d="M41.049 30.7471H35.0613L35 31.0505C39.6708 32.2969 42.7643 35.3012 44.0352 38.9122L42.7335 32.0096C42.5192 31.0503 41.8606 30.7787 41.049 30.7471Z" fill="#FAA61A"/>
<g clip-path="url(#clip1_405_38362)">
<path d="M121.469 47.7291V47.7811H121.517C121.528 47.7811 121.537 47.7787 121.544 47.7746C121.55 47.7706 121.554 47.7635 121.554 47.7549C121.554 47.7463 121.55 47.7398 121.544 47.7357C121.537 47.7311 121.528 47.7291 121.517 47.7291H121.469ZM121.518 47.6928C121.543 47.6928 121.562 47.6983 121.576 47.7095C121.59 47.7205 121.597 47.7357 121.597 47.7549C121.597 47.7711 121.591 47.7842 121.58 47.7948C121.569 47.8049 121.554 47.8115 121.534 47.814L121.598 47.8873H121.548L121.488 47.8145H121.469V47.8873H121.427V47.6928H121.518ZM121.505 47.9545C121.528 47.9545 121.549 47.9499 121.569 47.9414C121.589 47.9328 121.606 47.9211 121.621 47.9065C121.636 47.8918 121.648 47.8747 121.656 47.8545C121.665 47.8348 121.669 47.8135 121.669 47.7908C121.669 47.7681 121.665 47.7468 121.656 47.7271C121.648 47.7075 121.636 47.6898 121.621 47.6751C121.606 47.6605 121.589 47.6488 121.569 47.6402C121.549 47.6321 121.528 47.6281 121.505 47.6281C121.482 47.6281 121.46 47.6321 121.44 47.6402C121.42 47.6488 121.402 47.6605 121.387 47.6751C121.372 47.6898 121.36 47.7075 121.352 47.7271C121.344 47.7468 121.34 47.7681 121.34 47.7908C121.34 47.8135 121.344 47.8348 121.352 47.8545C121.36 47.8747 121.372 47.8918 121.387 47.9065C121.402 47.9211 121.42 47.9328 121.44 47.9414C121.46 47.9499 121.482 47.9545 121.505 47.9545ZM121.505 47.5811C121.535 47.5811 121.563 47.5867 121.589 47.5978C121.615 47.6084 121.638 47.6235 121.658 47.6428C121.677 47.6615 121.693 47.6837 121.704 47.7095C121.715 47.7347 121.721 47.762 121.721 47.7908C121.721 47.8196 121.715 47.8468 121.704 47.8721C121.693 47.8974 121.677 47.9196 121.658 47.9388C121.638 47.9575 121.615 47.9727 121.589 47.9838C121.563 47.9949 121.535 48.0005 121.505 48.0005C121.474 48.0005 121.446 47.9949 121.42 47.9838C121.393 47.9727 121.37 47.9575 121.351 47.9388C121.331 47.9196 121.316 47.8974 121.305 47.8721C121.294 47.8468 121.288 47.8196 121.288 47.7908C121.288 47.762 121.294 47.7347 121.305 47.7095C121.316 47.6837 121.331 47.6615 121.351 47.6428C121.37 47.6235 121.393 47.6084 121.42 47.5978C121.446 47.5867 121.474 47.5811 121.505 47.5811ZM101.596 46.8318C101.596 46.461 101.842 46.1564 102.243 46.1564C102.627 46.1564 102.886 46.4479 102.886 46.8318C102.886 47.2158 102.627 47.5074 102.243 47.5074C101.842 47.5074 101.596 47.2027 101.596 46.8318ZM103.323 46.8318V45.7769H102.859V46.0331C102.712 45.8431 102.489 45.7239 102.185 45.7239C101.587 45.7239 101.118 46.1877 101.118 46.8318C101.118 47.4765 101.587 47.9398 102.185 47.9398C102.489 47.9398 102.712 47.8206 102.859 47.6306V47.8868H103.323V46.8318ZM119.003 46.8318C119.003 46.461 119.249 46.1564 119.651 46.1564C120.035 46.1564 120.293 46.4479 120.293 46.8318C120.293 47.2158 120.035 47.5074 119.651 47.5074C119.249 47.5074 119.003 47.2027 119.003 46.8318ZM120.731 46.8318V44.9297H120.267V46.0331C120.12 45.8431 119.896 45.7239 119.593 45.7239C118.994 45.7239 118.525 46.1877 118.525 46.8318C118.525 47.4765 118.994 47.9398 119.593 47.9398C119.896 47.9398 120.12 47.8206 120.267 47.6306V47.8868H120.731V46.8318ZM109.083 46.1346C109.382 46.1346 109.574 46.3201 109.623 46.6465H108.516C108.565 46.3418 108.752 46.1346 109.083 46.1346ZM109.092 45.7239C108.467 45.7239 108.029 46.1741 108.029 46.8318C108.029 47.5028 108.485 47.9398 109.123 47.9398C109.445 47.9398 109.739 47.8605 109.998 47.6443L109.771 47.3042C109.592 47.4452 109.364 47.5251 109.15 47.5251C108.851 47.5251 108.579 47.3881 108.512 47.0081H110.096C110.101 46.9511 110.106 46.8935 110.106 46.8318C110.101 46.1741 109.69 45.7239 109.092 45.7239ZM114.695 46.8318C114.695 46.461 114.941 46.1564 115.342 46.1564C115.726 46.1564 115.985 46.4479 115.985 46.8318C115.985 47.2158 115.726 47.5074 115.342 47.5074C114.941 47.5074 114.695 47.2027 114.695 46.8318ZM116.423 46.8318V45.7769H115.959V46.0331C115.811 45.8431 115.588 45.7239 115.285 45.7239C114.686 45.7239 114.217 46.1877 114.217 46.8318C114.217 47.4765 114.686 47.9398 115.285 47.9398C115.588 47.9398 115.811 47.8206 115.959 47.6306V47.8868H116.423V46.8318ZM112.074 46.8318C112.074 47.472 112.525 47.9398 113.213 47.9398C113.534 47.9398 113.749 47.8691 113.98 47.6882L113.758 47.3174C113.583 47.4411 113.401 47.5074 113.199 47.5074C112.829 47.5028 112.556 47.2381 112.556 46.8318C112.556 46.4257 112.829 46.1609 113.199 46.1564C113.401 46.1564 113.583 46.2225 113.758 46.3463L113.98 45.9755C113.749 45.7946 113.534 45.7239 113.213 45.7239C112.525 45.7239 112.074 46.1918 112.074 46.8318ZM118.057 45.7239C117.789 45.7239 117.615 45.8477 117.494 46.0331V45.7769H117.034V47.8868H117.499V46.7041C117.499 46.3549 117.651 46.1609 117.954 46.1609C118.048 46.1609 118.146 46.1741 118.244 46.214L118.387 45.7815C118.285 45.7416 118.151 45.7239 118.057 45.7239ZM105.618 45.9447C105.395 45.7991 105.087 45.7239 104.748 45.7239C104.207 45.7239 103.86 45.9801 103.86 46.3994C103.86 46.7435 104.119 46.9556 104.596 47.0218L104.815 47.0526C105.07 47.088 105.19 47.1542 105.19 47.2735C105.19 47.4366 105.02 47.5296 104.703 47.5296C104.382 47.5296 104.15 47.428 103.993 47.3088L103.775 47.666C104.029 47.8514 104.351 47.9398 104.699 47.9398C105.315 47.9398 105.672 47.6528 105.672 47.2512C105.672 46.8804 105.391 46.6864 104.927 46.6201L104.708 46.5888C104.507 46.5626 104.346 46.5231 104.346 46.3817C104.346 46.2271 104.498 46.1346 104.752 46.1346C105.025 46.1346 105.288 46.2362 105.418 46.3155L105.618 45.9447ZM111.605 45.7239C111.338 45.7239 111.163 45.8477 111.043 46.0331V45.7769H110.583V47.8868H111.047V46.7041C111.047 46.3549 111.199 46.1609 111.503 46.1609C111.597 46.1609 111.695 46.1741 111.793 46.214L111.936 45.7815C111.833 45.7416 111.699 45.7239 111.605 45.7239ZM107.646 45.7769H106.887V45.1368H106.418V45.7769H105.985V46.1963H106.418V47.1588C106.418 47.6483 106.61 47.9398 107.159 47.9398C107.36 47.9398 107.592 47.8782 107.739 47.7766L107.605 47.3835C107.467 47.4629 107.315 47.5028 107.194 47.5028C106.962 47.5028 106.887 47.3614 106.887 47.1497V46.1963H107.646V45.7769ZM100.708 47.8868V46.5626C100.708 46.0639 100.386 45.7285 99.8681 45.7239C99.5957 45.7194 99.3146 45.8032 99.1179 46.0993C98.9707 45.8654 98.7387 45.7239 98.4127 45.7239C98.1848 45.7239 97.962 45.7901 97.7877 46.0371V45.7769H97.3232V47.8868H97.7918V46.7171C97.7918 46.3509 97.9973 46.1564 98.3146 46.1564C98.6227 46.1564 98.7786 46.3549 98.7786 46.7126V47.8868H99.2477V46.7171C99.2477 46.3509 99.4618 46.1564 99.7699 46.1564C100.087 46.1564 100.239 46.3549 100.239 46.7126V47.8868H100.708Z" fill="#9A9C9E"/>
<path d="M121.754 40.8697V40.5615H121.673L121.579 40.7732L121.486 40.5615H121.404V40.8697H121.461V40.6373L121.549 40.8378H121.609L121.697 40.6368V40.8697H121.754ZM121.239 40.8697V40.6141H121.343V40.562H121.077V40.6141H121.181V40.8697H121.239Z" fill="#F79410"/>
<path d="M112.516 42.1955H105.483V29.7002H112.516V42.1955Z" fill="#FF5F00"/>
<path d="M105.934 35.9467C105.934 33.412 107.134 31.1541 109.004 29.6991C107.637 28.6351 105.911 28 104.037 28C99.598 28 96 31.5578 96 35.9467C96 40.3356 99.598 43.8935 104.037 43.8935C105.911 43.8935 107.637 43.2584 109.004 42.1944C107.134 40.7393 105.934 38.4815 105.934 35.9467Z" fill="#EB001B"/>
<path d="M122 35.9467C122 40.3356 118.402 43.8935 113.964 43.8935C112.089 43.8935 110.364 43.2584 108.996 42.1944C110.866 40.7393 112.066 38.4815 112.066 35.9467C112.066 33.412 110.866 31.1541 108.996 29.6991C110.364 28.6351 112.089 28 113.964 28C118.402 28 122 31.5578 122 35.9467Z" fill="#F79E1B"/>
</g>
<g clip-path="url(#clip2_405_38362)">
<path d="M152.716 42.3616H146.095V30.2451H152.716V42.3616Z" fill="#6C6BBD"/>
<path d="M161.415 41.0762V40.7773H161.338L161.25 40.9827L161.162 40.7773H161.085V41.0762H161.139V40.8509L161.222 41.0453H161.278L161.361 40.8503V41.0762H161.415ZM160.929 41.0762V40.8283H161.027V40.7779H160.777V40.8283H160.875V41.0762H160.929Z" fill="#0099DF"/>
<path d="M158.105 47.7275V47.778H158.151C158.161 47.778 158.169 47.7755 158.175 47.7716C158.181 47.7677 158.185 47.7608 158.185 47.7525C158.185 47.7442 158.181 47.7378 158.175 47.7339C158.169 47.7294 158.161 47.7275 158.151 47.7275H158.105ZM158.151 47.6922C158.175 47.6922 158.193 47.6977 158.206 47.7084C158.219 47.7192 158.225 47.7339 158.225 47.7525C158.225 47.7682 158.22 47.7809 158.21 47.7912C158.2 47.801 158.185 47.8074 158.166 47.8098L158.227 47.8808H158.179L158.123 47.8103H158.105V47.8808H158.065V47.6922H158.151ZM158.139 47.9455C158.161 47.9455 158.181 47.9416 158.199 47.9333C158.218 47.925 158.234 47.9137 158.248 47.8994C158.262 47.8853 158.273 47.8686 158.281 47.849C158.289 47.8299 158.294 47.8094 158.294 47.7873C158.294 47.7652 158.289 47.7447 158.281 47.7256C158.273 47.7064 158.262 47.6893 158.248 47.6751C158.234 47.6609 158.218 47.6496 158.199 47.6418C158.181 47.6334 158.161 47.6295 158.139 47.6295C158.117 47.6295 158.097 47.6334 158.078 47.6418C158.059 47.6496 158.042 47.6609 158.028 47.6751C158.014 47.6893 158.003 47.7064 157.995 47.7256C157.987 47.7447 157.983 47.7652 157.983 47.7873C157.983 47.8094 157.987 47.8299 157.995 47.849C158.003 47.8686 158.014 47.8853 158.028 47.8994C158.042 47.9137 158.059 47.925 158.078 47.9333C158.097 47.9416 158.117 47.9455 158.139 47.9455ZM158.139 47.584C158.167 47.584 158.193 47.5894 158.218 47.6001C158.243 47.6104 158.264 47.6251 158.283 47.6438C158.301 47.6619 158.316 47.6834 158.326 47.7084C158.337 47.7329 158.342 47.7594 158.342 47.7873C158.342 47.8152 158.337 47.8417 158.326 47.8661C158.316 47.8907 158.301 47.9122 158.283 47.9304C158.264 47.949 158.243 47.9637 158.218 47.9744C158.193 47.9852 158.167 47.9906 158.139 47.9906C158.11 47.9906 158.084 47.9852 158.059 47.9744C158.034 47.9637 158.012 47.949 157.994 47.9304C157.975 47.9122 157.961 47.8907 157.95 47.8661C157.94 47.8417 157.935 47.8152 157.935 47.7873C157.935 47.7594 157.94 47.7329 157.95 47.7084C157.961 47.6834 157.975 47.6619 157.994 47.6438C158.012 47.6251 158.034 47.6104 158.059 47.6001C158.084 47.5894 158.11 47.584 158.139 47.584Z" fill="#231F20"/>
<path d="M154.948 45.7831C155.036 45.7831 155.163 45.8003 155.259 45.8389L155.125 46.2583C155.032 46.2196 154.94 46.2069 154.851 46.2069C154.565 46.2069 154.423 46.395 154.423 46.733V47.8804H153.985V45.8346H154.418V46.0829C154.532 45.9032 154.696 45.7831 154.948 45.7831ZM153.332 46.2412H152.618V47.1656C152.618 47.3709 152.689 47.5081 152.908 47.5081C153.021 47.5081 153.164 47.4694 153.294 47.3925L153.42 47.7732C153.282 47.8716 153.063 47.9319 152.874 47.9319C152.357 47.9319 152.176 47.6492 152.176 47.1739V46.2412H151.768V45.8346H152.176V45.2139H152.618V45.8346H153.332V46.2412ZM147.737 46.6777C147.783 46.3823 147.959 46.1809 148.271 46.1809C148.552 46.1809 148.733 46.3607 148.779 46.6777H147.737ZM149.234 46.8575C149.229 46.2196 148.842 45.7831 148.279 45.7831C147.691 45.7831 147.279 46.2196 147.279 46.8575C147.279 47.5076 147.707 47.9314 148.309 47.9314C148.611 47.9314 148.889 47.8545 149.133 47.6448L148.918 47.3151C148.75 47.4523 148.535 47.5292 148.334 47.5292C148.052 47.5292 147.796 47.3964 147.733 47.0285H149.225C149.229 46.9726 149.234 46.9173 149.234 46.8575ZM151.154 46.3568C151.033 46.2794 150.785 46.1809 150.528 46.1809C150.289 46.1809 150.146 46.2711 150.146 46.421C150.146 46.5576 150.297 46.5964 150.486 46.6219L150.692 46.6517C151.129 46.7164 151.394 46.9046 151.394 47.2641C151.394 47.6536 151.058 47.9319 150.478 47.9319C150.15 47.9319 149.847 47.8462 149.608 47.6663L149.813 47.3195C149.961 47.4351 150.18 47.5336 150.482 47.5336C150.781 47.5336 150.94 47.4439 150.94 47.2852C150.94 47.1701 150.827 47.1054 150.587 47.0716L150.381 47.0417C149.931 46.977 149.687 46.7718 149.687 46.4381C149.687 46.0315 150.016 45.7831 150.524 45.7831C150.844 45.7831 151.134 45.8561 151.344 45.9972L151.154 46.3568ZM156.546 46.2059C156.456 46.2059 156.373 46.2221 156.295 46.2539C156.218 46.2863 156.151 46.3313 156.095 46.3892C156.039 46.4469 155.994 46.5165 155.962 46.5973C155.93 46.6782 155.914 46.7673 155.914 46.8643C155.914 46.9619 155.93 47.0506 155.962 47.1313C155.994 47.2122 156.039 47.2818 156.095 47.3396C156.151 47.3974 156.218 47.4425 156.295 47.4748C156.373 47.5071 156.456 47.5228 156.546 47.5228C156.636 47.5228 156.72 47.5071 156.797 47.4748C156.874 47.4425 156.941 47.3974 156.998 47.3396C157.055 47.2818 157.099 47.2122 157.132 47.1313C157.164 47.0506 157.18 46.9619 157.18 46.8643C157.18 46.7673 157.164 46.6782 157.132 46.5973C157.099 46.5165 157.055 46.4469 156.998 46.3892C156.941 46.3313 156.874 46.2863 156.797 46.2539C156.72 46.2221 156.636 46.2059 156.546 46.2059ZM156.546 45.7831C156.702 45.7831 156.846 45.8106 156.979 45.8659C157.112 45.9208 157.227 45.9967 157.323 46.0933C157.421 46.1897 157.496 46.3039 157.551 46.4352C157.606 46.5669 157.633 46.71 157.633 46.8643C157.633 47.0187 157.606 47.1617 157.551 47.2935C157.496 47.4248 157.421 47.5395 157.323 47.6359C157.227 47.7325 157.112 47.8079 156.979 47.8633C156.846 47.9182 156.702 47.9456 156.546 47.9456C156.39 47.9456 156.246 47.9182 156.113 47.8633C155.98 47.8079 155.866 47.7325 155.77 47.6359C155.674 47.5395 155.598 47.4248 155.543 47.2935C155.488 47.1617 155.461 47.0187 155.461 46.8643C155.461 46.71 155.488 46.5669 155.543 46.4352C155.598 46.3039 155.674 46.1897 155.77 46.0933C155.866 45.9967 155.98 45.9208 156.113 45.8659C156.246 45.8106 156.39 45.7831 156.546 45.7831ZM145.183 46.8575C145.183 46.4979 145.414 46.2025 145.792 46.2025C146.154 46.2025 146.398 46.4852 146.398 46.8575C146.398 47.2299 146.154 47.512 145.792 47.512C145.414 47.512 145.183 47.2171 145.183 46.8575ZM146.81 46.8575V45.8346H146.373V46.0829C146.234 45.8987 146.024 45.7831 145.738 45.7831C145.175 45.7831 144.733 46.2323 144.733 46.8575C144.733 47.4821 145.175 47.9319 145.738 47.9319C146.024 47.9319 146.234 47.8163 146.373 47.632V47.8804H146.81V46.8575ZM144.346 47.8804V46.5964C144.346 46.1128 144.044 45.7876 143.556 45.7831C143.3 45.7787 143.035 45.86 142.85 46.1471C142.711 45.9203 142.493 45.7831 142.186 45.7831C141.971 45.7831 141.761 45.8473 141.597 46.0869V45.8346H141.16V47.8804H141.601V46.7463C141.601 46.3911 141.795 46.2025 142.093 46.2025C142.383 46.2025 142.531 46.395 142.531 46.7419V47.8804H142.972V46.7463C142.972 46.3911 143.174 46.2025 143.463 46.2025C143.762 46.2025 143.905 46.395 143.905 46.7419V47.8804H144.346Z" fill="#9A9C9E"/>
<path d="M161.646 36.3025C161.646 40.5584 158.258 44.0084 154.079 44.0084C152.313 44.0084 150.689 43.3925 149.401 42.3608C151.162 40.9498 152.292 38.7605 152.292 36.3025C152.292 33.8446 151.162 31.6552 149.401 30.2443C150.689 29.2125 152.313 28.5967 154.079 28.5967C158.258 28.5967 161.646 32.0466 161.646 36.3025Z" fill="#0099DF"/>
<path d="M146.518 36.3025C146.518 33.8446 147.648 31.6552 149.408 30.2443C148.121 29.2125 146.497 28.5967 144.731 28.5967C140.552 28.5967 137.164 32.0466 137.164 36.3025C137.164 40.5584 140.552 44.0084 144.731 44.0084C146.497 44.0084 148.121 43.3925 149.408 42.3608C147.648 40.9498 146.518 38.7605 146.518 36.3025Z" fill="#EB001B"/>
</g>
<g clip-path="url(#clip3_405_38362)">
<path fill-rule="evenodd" clip-rule="evenodd" d="M13.2001 61.415V61.421C13.1941 61.421 11.3021 61.415 10.7977 63.1995C10.3351 64.8357 9.03175 69.353 8.99576 69.4775H8.63539C8.63539 69.4775 7.30197 64.8594 6.83348 63.1935C6.32896 61.4091 4.43097 61.415 4.43097 61.415H0.106445V74.9908H4.43097V66.9283H4.61115H4.79134L7.31399 74.9908H10.3172L12.8397 66.9343H13.2001V74.9908H17.5247V61.415H13.2001Z" fill="#4DB45E"/>
<path fill-rule="evenodd" clip-rule="evenodd" d="M28.9968 61.415C28.9968 61.415 27.7295 61.5277 27.1348 62.8378L24.0717 69.4775H23.7113V61.415H19.3867V74.9908H23.471C23.471 74.9908 24.7984 74.8722 25.393 73.568L28.3961 66.9283H28.7565V74.9908H33.0811V61.415H28.9968Z" fill="#4DB45E"/>
<path fill-rule="evenodd" clip-rule="evenodd" d="M35.0029 67.5811V74.9914H39.3274V70.6637H44.0123C46.0544 70.6637 47.7843 69.3773 48.4269 67.5811H35.0029Z" fill="#4DB45E"/>
<path fill-rule="evenodd" clip-rule="evenodd" d="M44.0126 61.415H34.3965C34.877 63.9998 36.8411 66.0747 39.3817 66.7505C39.9583 66.9046 40.565 66.9876 41.1896 66.9876H48.6014C48.6674 66.6794 48.6974 66.3652 48.6974 66.0391C48.6974 63.484 46.6012 61.415 44.0126 61.415Z" fill="url(#paint0_linear_405_38362)"/>
</g>
<mask id="mask0_405_38362" style="mask-type:alpha" maskUnits="userSpaceOnUse" x="64" y="59" width="19" height="19">
<path fill-rule="evenodd" clip-rule="evenodd" d="M80.996 68.24C80.999 68.327 81 68.413 81 68.5C81 72.642 77.642 76 73.5 76C69.358 76 66 72.642 66 68.5C66 64.358 69.358 61 73.5 61C75.024 61 76.441 61.454 77.624 62.235L79.257 60.942C77.66 59.724 75.664 59 73.5 59C68.253 59 64 63.253 64 68.5C64 73.747 68.253 78 73.5 78C78.747 78 83 73.747 83 68.5C83 67.913 82.947 67.338 82.845 66.78L80.996 68.24Z" fill="#C4C4C4"/>
</mask>
<g mask="url(#mask0_405_38362)">
<path d="M80.994 68.203C80.998 68.302 81 68.401 81 68.5C81 72.642 77.642 76 73.5 76C69.358 76 66 72.642 66 68.5C66 64.358 69.358 61 73.5 61C75.024 61 76.441 61.454 77.624 62.235L79.257 60.942C77.66 59.724 75.664 59 73.5 59C68.253 59 64 63.253 64 68.5C64 73.747 68.253 78 73.5 78C78.747 78 83 73.747 83 68.5C83 67.895 82.943 67.303 82.835 66.729L80.994 68.203Z" fill="#24A236"/>
<path d="M72.4039 67.0391C77.0452 67.0391 80.8077 63.2766 80.8077 58.6353C80.8077 53.994 77.0452 50.2314 72.4039 50.2314C67.7625 50.2314 64 53.994 64 58.6353C64 63.2766 67.7625 67.0391 72.4039 67.0391Z" fill="#008ACB"/>
<g filter="url(#filter0_f_405_38362)">
<path d="M71.3077 86.0392C75.3436 86.0392 78.6154 82.7674 78.6154 78.7315C78.6154 74.6956 75.3436 71.4238 71.3077 71.4238C67.2718 71.4238 64 74.6956 64 78.7315C64 82.7674 67.2718 86.0392 71.3077 86.0392Z" fill="#77F628"/>
</g>
<g filter="url(#filter1_f_405_38362)">
<path d="M64.7305 72.1544C68.7665 72.1544 72.0382 68.8827 72.0382 64.8467C72.0382 60.8108 68.7665 57.5391 64.7305 57.5391C60.6946 57.5391 57.4229 60.8108 57.4229 64.8467C57.4229 68.8827 60.6946 72.1544 64.7305 72.1544Z" fill="#19E7E8"/>
</g>
<g filter="url(#filter2_f_405_38362)">
<path d="M63.9995 78.0009C67.2282 78.0009 69.8456 75.3835 69.8456 72.1548C69.8456 68.926 67.2282 66.3086 63.9995 66.3086C60.7707 66.3086 58.1533 68.926 58.1533 72.1548C58.1533 75.3835 60.7707 78.0009 63.9995 78.0009Z" fill="#DEFA1B"/>
</g>
</g>
<path fill-rule="evenodd" clip-rule="evenodd" d="M82.049 64.351L73.5 71V68.5L80.999 62.667C81.405 63.188 81.757 63.752 82.049 64.351Z" fill="#24A236"/>
<path fill-rule="evenodd" clip-rule="evenodd" d="M70 68.8045L73.5 70.9995V68.4995L70 66.3115V68.8045Z" fill="#24A236"/>
<g clip-path="url(#clip4_405_38362)">
<path fill-rule="evenodd" clip-rule="evenodd" d="M116.28 77.44C121.648 77.44 126 73.0887 126 67.72C126 62.3513 121.648 58 116.28 58C110.911 58 106.56 62.3513 106.56 67.72C106.56 73.0887 110.911 77.44 116.28 77.44ZM116.28 71.5C118.367 71.5 120.06 69.8076 120.06 67.72C120.06 65.6324 118.367 63.94 116.28 63.94C114.192 63.94 112.5 65.6324 112.5 67.72C112.5 69.8076 114.192 71.5 116.28 71.5Z" fill="#8A42F9"/>
<path d="M106.56 61.2402H99L103.032 74.2002H106.56V61.2402Z" fill="#8A42F9"/>
</g>
<defs>
<filter id="filter0_f_405_38362" x="56" y="63.4238" width="30.6152" height="30.6152" filterUnits="userSpaceOnUse" color-interpolation-filters="sRGB">
<feFlood flood-opacity="0" result="BackgroundImageFix"/>
<feBlend mode="normal" in="SourceGraphic" in2="BackgroundImageFix" result="shape"/>
<feGaussianBlur stdDeviation="4" result="effect1_foregroundBlur_405_38362"/>
</filter>
<filter id="filter1_f_405_38362" x="49.4229" y="49.5391" width="30.6152" height="30.6152" filterUnits="userSpaceOnUse" color-interpolation-filters="sRGB">
<feFlood flood-opacity="0" result="BackgroundImageFix"/>
<feBlend mode="normal" in="SourceGraphic" in2="BackgroundImageFix" result="shape"/>
<feGaussianBlur stdDeviation="4" result="effect1_foregroundBlur_405_38362"/>
</filter>
<filter id="filter2_f_405_38362" x="52.1533" y="60.3086" width="23.6924" height="23.6924" filterUnits="userSpaceOnUse" color-interpolation-filters="sRGB">
<feFlood flood-opacity="0" result="BackgroundImageFix"/>
<feBlend mode="normal" in="SourceGraphic" in2="BackgroundImageFix" result="shape"/>
<feGaussianBlur stdDeviation="3" result="effect1_foregroundBlur_405_38362"/>
</filter>
<linearGradient id="paint0_linear_405_38362" x1="34.3976" y1="64.2013" x2="48.6974" y2="64.2013" gradientUnits="userSpaceOnUse">
<stop offset="0.3" stop-color="#00B4E6"/>
<stop offset="1" stop-color="#088CCB"/>
</linearGradient>
<clipPath id="clip0_405_38362">
<rect width="20" height="20" fill="white" transform="translate(0 28)"/>
</clipPath>
<clipPath id="clip1_405_38362">
<rect width="26" height="20" fill="white" transform="translate(96 28)"/>
</clipPath>
<clipPath id="clip2_405_38362">
<rect width="25" height="20" fill="white" transform="translate(137 28)"/>
</clipPath>
<clipPath id="clip3_405_38362">
<rect width="49" height="14" fill="white" transform="translate(0 61)"/>
</clipPath>
<clipPath id="clip4_405_38362">
<rect width="27" height="20" fill="white" transform="translate(99 58)"/>
</clipPath>
</defs>
</svg>
