<svg width="375" height="95" viewBox="0 0 375 95" fill="none" xmlns="http://www.w3.org/2000/svg">
<g filter="url(#filter0_d_1769_46012)">
<rect width="375" height="60" fill="white"/>
</g>
<path d="M312 35.064C312 35.352 311.936 35.648 311.8 35.936C311.663 36.224 311.487 36.496 311.255 36.752C310.862 37.184 310.43 37.496 309.941 37.696C309.46 37.896 308.939 38 308.379 38C307.561 38 306.688 37.808 305.767 37.416C304.845 37.024 303.924 36.496 303.011 35.832C302.089 35.16 301.216 34.416 300.383 33.592C299.557 32.76 298.812 31.888 298.147 30.976C297.49 30.064 296.961 29.152 296.577 28.248C296.192 27.336 296 26.464 296 25.632C296 25.088 296.096 24.568 296.288 24.088C296.481 23.6 296.785 23.152 297.21 22.752C297.723 22.248 298.283 22 298.876 22C299.101 22 299.325 22.048 299.525 22.144C299.734 22.24 299.918 22.384 300.062 22.592L301.921 25.208C302.065 25.408 302.169 25.592 302.241 25.768C302.313 25.936 302.354 26.104 302.354 26.256C302.354 26.448 302.297 26.64 302.185 26.824C302.081 27.008 301.929 27.2 301.737 27.392L301.128 28.024C301.04 28.112 300.999 28.216 300.999 28.344C300.999 28.408 301.008 28.464 301.024 28.528C301.048 28.592 301.072 28.64 301.088 28.688C301.232 28.952 301.48 29.296 301.833 29.712C302.193 30.128 302.578 30.552 302.994 30.976C303.427 31.4 303.844 31.792 304.268 32.152C304.685 32.504 305.03 32.744 305.302 32.888C305.342 32.904 305.39 32.928 305.446 32.952C305.51 32.976 305.574 32.984 305.646 32.984C305.783 32.984 305.887 32.936 305.975 32.848L306.584 32.248C306.784 32.048 306.976 31.896 307.161 31.8C307.345 31.688 307.529 31.632 307.73 31.632C307.882 31.632 308.042 31.664 308.218 31.736C308.395 31.808 308.579 31.912 308.779 32.048L311.431 33.928C311.639 34.072 311.784 34.24 311.872 34.44C311.952 34.64 312 34.84 312 35.064Z" stroke="#535E69" stroke-width="1.5" stroke-miterlimit="10"/>
<path d="M346.5 36C350.642 36 354 32.6421 354 28.5C354 24.3579 350.642 21 346.5 21C342.358 21 339 24.3579 339 28.5C339 32.6421 342.358 36 346.5 36Z" stroke="#535E69" stroke-width="1.5" stroke-linecap="round" stroke-linejoin="round"/>
<path d="M356 38L352 34" stroke="#535E69" stroke-width="1.5" stroke-linecap="round" stroke-linejoin="round"/>
<path d="M18 23H36" stroke="#15191C" stroke-width="1.5" stroke-linecap="round" stroke-linejoin="round"/>
<path d="M18 30H36" stroke="#15191C" stroke-width="1.5" stroke-linecap="round" stroke-linejoin="round"/>
<path d="M18 37H36" stroke="#15191C" stroke-width="1.5" stroke-linecap="round" stroke-linejoin="round"/>
<g clip-path="url(#clip0_1769_46012)">
<path d="M104.276 22.6731H101.477V20.7589H109.236V22.6731H106.436V30.5793H104.275V22.6731H104.276Z" fill="#333333"/>
<path d="M114.905 29.4132C114.572 29.8387 114.152 30.1665 113.643 30.3977C113.136 30.6288 112.609 30.7444 112.063 30.7444C111.546 30.7444 111.058 30.6606 110.601 30.4942C110.145 30.3278 109.747 30.0902 109.41 29.7803C109.072 29.4704 108.807 29.0982 108.613 28.6637C108.419 28.2293 108.322 27.7441 108.322 27.208C108.322 26.672 108.419 26.1867 108.613 25.7523C108.807 25.3178 109.072 24.9457 109.41 24.6357C109.747 24.3258 110.145 24.0882 110.601 23.9218C111.058 23.7554 111.546 23.6716 112.063 23.6716C112.543 23.6716 112.98 23.7554 113.373 23.9218C113.765 24.0882 114.098 24.3258 114.371 24.6357C114.643 24.9457 114.853 25.3178 115.001 25.7523C115.149 26.1867 115.223 26.672 115.223 27.208V27.8597H110.401C110.485 28.2572 110.664 28.5735 110.942 28.8098C111.218 29.0461 111.561 29.1629 111.967 29.1629C112.308 29.1629 112.598 29.0867 112.832 28.9343C113.067 28.7819 113.273 28.585 113.449 28.3449L114.905 29.4132ZM113.145 26.4458C113.154 26.094 113.038 25.7942 112.798 25.544C112.558 25.295 112.249 25.1692 111.869 25.1692C111.638 25.1692 111.435 25.2061 111.26 25.2797C111.085 25.3534 110.934 25.4487 110.81 25.5643C110.685 25.6799 110.588 25.8132 110.519 25.9669C110.45 26.1207 110.41 26.2794 110.401 26.4458H113.145Z" fill="#333333"/>
<path d="M116.512 20.0932H118.59V30.578H116.512V20.0932Z" fill="#333333"/>
<path d="M126.461 29.4131C126.128 29.8387 125.708 30.1664 125.199 30.3976C124.691 30.6288 124.165 30.7444 123.619 30.7444C123.101 30.7444 122.614 30.6605 122.157 30.4941C121.7 30.3277 121.303 30.0902 120.966 29.7802C120.628 29.4703 120.363 29.0981 120.169 28.6637C119.974 28.2292 119.878 27.744 119.878 27.2079C119.878 26.6719 119.974 26.1866 120.169 25.7522C120.363 25.3178 120.628 24.9456 120.966 24.6356C121.303 24.3257 121.7 24.0882 122.157 23.9218C122.614 23.7553 123.101 23.6715 123.619 23.6715C124.099 23.6715 124.535 23.7553 124.929 23.9218C125.321 24.0882 125.653 24.3257 125.926 24.6356C126.199 24.9456 126.408 25.3178 126.557 25.7522C126.704 26.1866 126.779 26.6719 126.779 27.2079V27.8596H121.957C122.04 28.2572 122.219 28.5735 122.497 28.8098C122.774 29.046 123.117 29.1629 123.523 29.1629C123.864 29.1629 124.153 29.0867 124.388 28.9342C124.623 28.7818 124.829 28.5849 125.005 28.3448L126.461 29.4131ZM124.7 26.4458C124.709 26.0939 124.594 25.7941 124.354 25.5439C124.114 25.2949 123.804 25.1692 123.425 25.1692C123.194 25.1692 122.991 25.206 122.816 25.2797C122.641 25.3533 122.49 25.4486 122.365 25.5642C122.241 25.6798 122.143 25.8132 122.075 25.9669C122.006 26.1206 121.966 26.2794 121.957 26.4458H124.7Z" fill="#333333"/>
<path d="M131.059 27.9574H127.65V26.2934H131.059V27.9574Z" fill="#333333"/>
<path d="M137.17 30.8282C136.421 30.8282 135.733 30.6961 135.105 30.4332C134.477 30.1702 133.939 29.807 133.491 29.3446C133.043 28.8822 132.691 28.3372 132.437 27.7085C132.184 27.0797 132.057 26.4001 132.057 25.6697C132.057 24.9393 132.184 24.2597 132.437 23.6309C132.691 23.0021 133.043 22.4572 133.491 21.9948C133.939 21.5324 134.477 21.1691 135.105 20.9062C135.733 20.6419 136.421 20.5111 137.17 20.5111C137.918 20.5111 138.606 20.6432 139.234 20.9062C139.863 21.1691 140.401 21.5324 140.849 21.9948C141.297 22.4572 141.648 23.0021 141.902 23.6309C142.156 24.2597 142.283 24.9393 142.283 25.6697C142.283 26.4001 142.156 27.0797 141.902 27.7085C141.648 28.3372 141.297 28.8835 140.849 29.3446C140.401 29.807 139.863 30.1702 139.234 30.4332C138.606 30.6961 137.918 30.8282 137.17 30.8282ZM137.17 29.5796C137.733 29.5796 138.241 29.4754 138.694 29.2671C139.147 29.0588 139.534 28.7793 139.858 28.4274C140.181 28.0756 140.43 27.6627 140.606 27.1864C140.781 26.71 140.869 26.2045 140.869 25.6671C140.869 25.1311 140.781 24.6242 140.606 24.1479C140.431 23.6715 140.181 23.2574 139.858 22.9068C139.534 22.555 139.146 22.2755 138.694 22.0672C138.241 21.8589 137.733 21.7547 137.17 21.7547C136.606 21.7547 136.097 21.8589 135.646 22.0672C135.192 22.2755 134.805 22.555 134.482 22.9068C134.158 23.2587 133.909 23.6715 133.733 24.1479C133.558 24.6242 133.469 25.1298 133.469 25.6671C133.469 26.2032 133.557 26.71 133.733 27.1864C133.908 27.6627 134.158 28.0768 134.482 28.4274C134.805 28.7793 135.192 29.0588 135.646 29.2671C136.099 29.4754 136.606 29.5796 137.17 29.5796Z" fill="#333333"/>
<path d="M143.877 24.0044H145.124V24.9469H145.152C145.392 24.5963 145.722 24.3232 146.143 24.1288C146.564 23.9345 146.995 23.838 147.439 23.838C147.947 23.838 148.406 23.9256 148.817 24.1009C149.229 24.2762 149.579 24.5214 149.871 24.8364C150.161 25.1514 150.386 25.5185 150.543 25.939C150.701 26.3594 150.779 26.8104 150.779 27.2918C150.779 27.7821 150.701 28.2369 150.543 28.6574C150.386 29.0778 150.163 29.4437 149.871 29.7523C149.58 30.0623 149.229 30.3049 148.817 30.4802C148.406 30.6555 147.947 30.7444 147.439 30.7444C146.968 30.7444 146.524 30.6453 146.109 30.4459C145.694 30.2465 145.374 29.9772 145.154 29.6342H145.126V34.4892H143.878V24.0044H143.877ZM147.286 25.0028C146.953 25.0028 146.652 25.0612 146.385 25.1755C146.117 25.2911 145.891 25.4487 145.706 25.6468C145.52 25.8463 145.378 26.0863 145.277 26.3683C145.175 26.6503 145.124 26.9577 145.124 27.2905C145.124 27.6234 145.175 27.9308 145.277 28.2128C145.378 28.4948 145.522 28.7348 145.706 28.9343C145.891 29.1337 146.117 29.29 146.385 29.4055C146.652 29.5211 146.953 29.5796 147.286 29.5796C147.618 29.5796 147.919 29.5224 148.187 29.4055C148.454 29.29 148.68 29.1324 148.866 28.9343C149.051 28.7361 149.193 28.4948 149.295 28.2128C149.396 27.9308 149.447 27.6234 149.447 27.2905C149.447 26.9577 149.396 26.6503 149.295 26.3683C149.193 26.0863 149.05 25.8463 148.866 25.6468C148.68 25.4487 148.454 25.2911 148.187 25.1755C147.918 25.0612 147.618 25.0028 147.286 25.0028Z" fill="#333333"/>
<path d="M155.862 25.0866H154.075V28.0692C154.075 28.2547 154.08 28.4363 154.089 28.6167C154.098 28.7971 154.132 28.9584 154.193 29.1019C154.253 29.2455 154.345 29.3611 154.47 29.4487C154.594 29.5364 154.777 29.5808 155.017 29.5808C155.164 29.5808 155.316 29.5669 155.473 29.5389C155.631 29.511 155.774 29.4602 155.902 29.3865V30.5234C155.754 30.6072 155.563 30.6644 155.327 30.6961C155.091 30.7279 154.91 30.7444 154.78 30.7444C154.299 30.7444 153.929 30.6771 153.665 30.5437C153.402 30.4103 153.208 30.2363 153.084 30.0242C152.959 29.812 152.884 29.5732 152.862 29.3103C152.839 29.046 152.827 28.7806 152.827 28.5125V25.0866H151.386V24.0043H152.827V22.1599H154.075V24.0043H155.862V25.0866Z" fill="#333333"/>
<path d="M157.276 21.6467C157.276 21.3977 157.366 21.1818 157.547 21.0014C157.727 20.821 157.941 20.7308 158.191 20.7308C158.44 20.7308 158.656 20.821 158.836 21.0014C159.016 21.1818 159.106 21.3965 159.106 21.6467C159.106 21.8969 159.016 22.1116 158.836 22.292C158.656 22.4724 158.441 22.5626 158.191 22.5626C157.941 22.5626 157.727 22.4724 157.547 22.292C157.366 22.1116 157.276 21.8957 157.276 21.6467ZM157.567 24.0043H158.814V30.578H157.567V24.0043Z" fill="#333333"/>
<path d="M165.493 25.7523C165.262 25.5122 165.019 25.3293 164.766 25.2048C164.512 25.0803 164.209 25.0181 163.858 25.0181C163.517 25.0181 163.219 25.0803 162.965 25.2048C162.711 25.3293 162.498 25.5008 162.328 25.718C162.157 25.9352 162.027 26.1854 161.939 26.4674C161.852 26.7494 161.808 27.0429 161.808 27.3477C161.808 27.6526 161.858 27.9422 161.96 28.2141C162.061 28.4872 162.205 28.7247 162.389 28.9279C162.574 29.1312 162.795 29.2912 163.054 29.4068C163.313 29.5224 163.603 29.5809 163.927 29.5809C164.278 29.5809 164.578 29.5186 164.828 29.3941C165.077 29.2696 165.308 29.0867 165.521 28.8466L166.408 29.7346C166.084 30.0953 165.709 30.3545 165.278 30.5107C164.848 30.6669 164.394 30.747 163.914 30.747C163.407 30.747 162.942 30.6631 162.522 30.4967C162.102 30.3303 161.739 30.0966 161.434 29.7968C161.13 29.497 160.894 29.1363 160.728 28.7145C160.561 28.2941 160.478 27.8292 160.478 27.321C160.478 26.8129 160.561 26.3455 160.728 25.9199C160.894 25.4944 161.127 25.1298 161.427 24.8237C161.726 24.5188 162.087 24.28 162.508 24.1098C162.928 23.9383 163.396 23.8532 163.914 23.8532C164.394 23.8532 164.855 23.9383 165.292 24.1098C165.731 24.2813 166.112 24.5417 166.436 24.8936L165.493 25.7523Z" fill="#333333"/>
<path d="M170.966 25.6544C170.817 25.469 170.636 25.314 170.419 25.1895C170.202 25.065 169.937 25.0028 169.622 25.0028C169.326 25.0028 169.07 25.065 168.853 25.1895C168.636 25.314 168.527 25.4969 168.527 25.737C168.527 25.9313 168.589 26.0889 168.713 26.2083C168.838 26.3289 168.986 26.4255 169.156 26.4992C169.328 26.5728 169.509 26.6287 169.703 26.6656C169.897 26.7024 170.064 26.7354 170.202 26.7621C170.47 26.8269 170.721 26.9056 170.957 26.9984C171.193 27.0911 171.396 27.2105 171.566 27.3591C171.738 27.5078 171.871 27.6869 171.969 27.9003C172.065 28.1137 172.114 28.3715 172.114 28.6764C172.114 29.046 172.036 29.3636 171.878 29.6266C171.721 29.8908 171.518 30.1055 171.269 30.2719C171.019 30.4383 170.736 30.5589 170.418 30.6326C170.099 30.7063 169.778 30.7431 169.455 30.7431C168.909 30.7431 168.432 30.6593 168.02 30.4929C167.609 30.3265 167.243 30.0216 166.919 29.577L167.861 28.8009C168.064 29.0041 168.29 29.1845 168.54 29.342C168.79 29.4995 169.094 29.5783 169.455 29.5783C169.612 29.5783 169.771 29.5618 169.933 29.53C170.094 29.4983 170.238 29.4462 170.362 29.3776C170.486 29.3077 170.588 29.2201 170.666 29.1134C170.745 29.0067 170.784 28.8847 170.784 28.7463C170.784 28.5608 170.726 28.4084 170.611 28.289C170.495 28.1683 170.357 28.0743 170.194 28.0044C170.033 27.9346 169.862 27.8799 169.682 27.838C169.501 27.7961 169.343 27.7618 169.203 27.7339C168.935 27.6691 168.682 27.5954 168.441 27.5116C168.201 27.4277 167.987 27.3172 167.803 27.1787C167.618 27.0403 167.471 26.865 167.361 26.6516C167.25 26.4395 167.194 26.1752 167.194 25.8615C167.194 25.5198 167.265 25.2213 167.409 24.9672C167.552 24.7132 167.741 24.5023 167.977 24.3359C168.213 24.1695 168.481 24.045 168.781 23.9612C169.08 23.8773 169.383 23.8367 169.688 23.8367C170.131 23.8367 170.556 23.9205 170.962 24.0856C171.368 24.252 171.692 24.529 171.932 24.9177L170.966 25.6544Z" fill="#333333"/>
<path d="M102.103 36.6702H102.651L103.336 38.7356L104.028 36.6702H104.576L105.072 39.6312H104.528L104.211 37.7613L103.583 39.6312H103.086L102.463 37.7613L102.138 39.6312H101.589L102.103 36.6702Z" fill="#5499D1"/>
<path d="M106.425 36.6702H106.996L108.134 39.6312H107.549L107.318 39.0214H106.111L105.87 39.6312H105.285L106.425 36.6702ZM106.713 37.4552L106.316 38.4714H107.108L106.713 37.4552Z" fill="#5499D1"/>
<path d="M108.567 36.6702H110.036V37.2215H109.127V39.6312H108.567V36.6702Z" fill="#5499D1"/>
<path d="M111.378 36.6702H111.949L113.087 39.6312H112.502L112.271 39.0214H111.064L110.823 39.6312H110.238L111.378 36.6702ZM111.667 37.4552L111.27 38.4714H112.062L111.667 37.4552Z" fill="#5499D1"/>
<path d="M113.663 38.8601C113.813 39.0684 113.987 39.1726 114.187 39.1726C114.321 39.1726 114.428 39.1345 114.51 39.0596C114.591 38.9846 114.633 38.8843 114.633 38.7598C114.633 38.6378 114.593 38.5362 114.513 38.4562C114.434 38.3761 114.269 38.3355 114.017 38.3355H113.897V37.8325H114.017C114.166 37.8325 114.279 37.7982 114.356 37.7296C114.434 37.661 114.472 37.5695 114.472 37.4539C114.472 37.3485 114.44 37.2634 114.375 37.2024C114.31 37.1414 114.225 37.1097 114.119 37.1097C113.992 37.1097 113.862 37.1719 113.729 37.2964L113.397 36.9255C113.576 36.7642 113.724 36.6676 113.843 36.6371C113.963 36.6054 114.073 36.5901 114.173 36.5901C114.416 36.5901 114.618 36.66 114.783 36.801C114.947 36.942 115.029 37.1326 115.029 37.3714C115.029 37.4768 115.01 37.581 114.973 37.6813C114.936 37.7817 114.833 37.8884 114.665 38.0014C115.011 38.1551 115.184 38.4193 115.184 38.7928C115.184 39.0684 115.091 39.2895 114.907 39.4559C114.723 39.6236 114.486 39.7061 114.195 39.7061C114.012 39.7061 113.848 39.6731 113.704 39.607C113.559 39.541 113.401 39.3974 113.23 39.1777L113.663 38.8601Z" fill="#5499D1"/>
<path d="M117.877 36.6702V39.6312H117.313V37.7766L116.211 39.6312H115.721V36.6702H116.284V38.5845L117.402 36.6702H117.877Z" fill="#5499D1"/>
<path d="M118.551 36.6702H119.122V37.7867H120.109V36.6702H120.679V39.6312H120.109V38.3329H119.122V39.6312H118.551V36.6702Z" fill="#5499D1"/>
<path d="M123.904 36.5952C124.323 36.5952 124.682 36.7464 124.984 37.05C125.285 37.3536 125.436 37.7232 125.436 38.1589C125.436 38.5908 125.287 38.9566 124.991 39.2564C124.694 39.5562 124.333 39.7048 123.909 39.7048C123.465 39.7048 123.096 39.5511 122.803 39.2437C122.508 38.9363 122.362 38.5718 122.362 38.1488C122.362 37.8655 122.431 37.6051 122.568 37.3675C122.705 37.13 122.893 36.942 123.133 36.8023C123.37 36.6651 123.628 36.5952 123.904 36.5952ZM123.898 37.1465C123.624 37.1465 123.394 37.2418 123.207 37.4323C123.021 37.6229 122.927 37.8655 122.927 38.1589C122.927 38.4866 123.045 38.7458 123.28 38.9363C123.463 39.0849 123.672 39.1599 123.908 39.1599C124.175 39.1599 124.403 39.0634 124.591 38.8703C124.779 38.6772 124.872 38.4384 124.872 38.1551C124.872 37.8731 124.777 37.6343 124.588 37.4399C124.399 37.2456 124.169 37.1465 123.898 37.1465Z" fill="#5499D1"/>
<path d="M125.965 36.6702H128.093V39.6312H127.523V37.1973H126.536V39.6312H125.965V36.6702Z" fill="#5499D1"/>
<path d="M128.476 36.6702H130.11V37.2253H129.571V39.6312H129V37.2253H128.475V36.6702H128.476Z" fill="#5499D1"/>
<path d="M132.651 36.6702V39.6312H132.088V37.7766L130.985 39.6312H130.495V36.6702H131.059V38.5845L132.177 36.6702H132.651Z" fill="#5499D1"/>
<path d="M134.622 38.3329H134.433C134.162 38.3329 133.96 38.319 133.831 38.291C133.701 38.2631 133.577 38.2034 133.46 38.1106C133.342 38.0192 133.26 37.9074 133.21 37.7766C133.162 37.6457 133.138 37.473 133.138 37.257V36.6702H133.709V37.2481C133.709 37.4488 133.746 37.5898 133.818 37.6686C133.89 37.7474 134.045 37.7867 134.281 37.7867H134.622V36.6702H135.19V39.6312H134.622V38.3329Z" fill="#5499D1"/>
<path d="M135.867 36.6702H137.483V37.2215H136.427V37.7575H137.483V38.2987H136.427V39.0773H137.483V39.6312H135.867V36.6702Z" fill="#5499D1"/>
<path d="M140.727 37.1897L140.333 37.5657C140.066 37.2825 139.764 37.1402 139.429 37.1402C139.146 37.1402 138.908 37.2367 138.714 37.4298C138.52 37.6229 138.424 37.8617 138.424 38.145C138.424 38.3419 138.467 38.5184 138.552 38.6709C138.638 38.8246 138.759 38.944 138.916 39.0316C139.073 39.1193 139.247 39.1625 139.439 39.1625C139.602 39.1625 139.751 39.132 139.887 39.071C140.023 39.01 140.171 38.8982 140.333 38.7369L140.715 39.1358C140.497 39.3492 140.29 39.4978 140.096 39.5804C139.902 39.6629 139.68 39.7036 139.43 39.7036C138.97 39.7036 138.594 39.5575 138.3 39.2653C138.007 38.9732 137.861 38.5997 137.861 38.1424C137.861 37.8477 137.929 37.5848 138.062 37.3549C138.195 37.1249 138.387 36.9408 138.635 36.801C138.884 36.6613 139.152 36.5914 139.439 36.5914C139.682 36.5914 139.917 36.6435 140.143 36.7464C140.369 36.8531 140.563 37.0005 140.727 37.1897Z" fill="#5499D1"/>
<path d="M141.224 36.6702H141.793V37.6915L142.597 36.6702H143.273L142.24 37.9912L143.373 39.6312H142.706L141.793 38.3152V39.6312H141.224V36.6702Z" fill="#5499D1"/>
<path d="M145.929 36.6702V39.6312H145.365V37.7766L144.262 39.6312H143.772V36.6702H144.336V38.5845L145.454 36.6702H145.929Z" fill="#5499D1"/>
<path d="M146.412 36.6702H147.045L147.667 37.6203L148.29 36.6702H148.923L147.984 38.1056L148.982 39.6312H148.348L147.667 38.5895L146.987 39.6312H146.35L147.351 38.1043L146.412 36.6702Z" fill="#5499D1"/>
<path d="M150.556 36.6702H152.684V39.6312H152.114V37.1973H151.127V39.6312H150.556V36.6702Z" fill="#5499D1"/>
<path d="M153.358 36.6702H153.955C154.279 36.6702 154.511 36.6994 154.655 36.7604C154.797 36.8201 154.91 36.9166 154.992 37.05C155.075 37.1834 155.115 37.3434 155.115 37.5301C155.115 37.7372 155.061 37.9087 154.953 38.0459C154.845 38.1831 154.699 38.2783 154.514 38.3317C154.405 38.3622 154.207 38.3787 153.92 38.3787V39.6324H153.356V36.6702H153.358ZM153.921 37.8274H154.1C154.241 37.8274 154.339 37.8172 154.393 37.7969C154.448 37.7766 154.491 37.7435 154.523 37.6965C154.554 37.6495 154.57 37.5937 154.57 37.5276C154.57 37.4133 154.525 37.3294 154.436 37.2774C154.372 37.238 154.252 37.2189 154.079 37.2189H153.92V37.8274H153.921Z" fill="#5499D1"/>
<path d="M157.821 36.6702V39.6312H157.258V37.7766L156.155 39.6312H155.665V36.6702H156.229V38.5845L157.347 36.6702H157.821Z" fill="#5499D1"/>
<path d="M158.495 39.6312V36.6702H160.042V37.2202H159.059V37.788H159.182C159.432 37.788 159.635 37.816 159.793 37.8706C159.952 37.9252 160.083 38.0294 160.188 38.1818C160.293 38.3342 160.345 38.5146 160.345 38.7229C160.345 38.93 160.306 39.0938 160.226 39.2171C160.146 39.3403 160.038 39.4394 159.899 39.5168C159.759 39.5943 159.567 39.6324 159.323 39.6324H158.495V39.6312ZM159.059 38.291V39.0938H159.199C159.457 39.0938 159.62 39.0608 159.688 38.9935C159.757 38.9262 159.791 38.836 159.791 38.7216C159.791 38.4346 159.585 38.291 159.175 38.291H159.059Z" fill="#5499D1"/>
<path d="M162.236 36.5952C162.655 36.5952 163.014 36.7464 163.316 37.05C163.617 37.3536 163.768 37.7232 163.768 38.1589C163.768 38.5908 163.62 38.9566 163.323 39.2564C163.026 39.5562 162.665 39.7048 162.241 39.7048C161.797 39.7048 161.428 39.5511 161.135 39.2437C160.84 38.9363 160.694 38.5718 160.694 38.1488C160.694 37.8655 160.763 37.6051 160.9 37.3675C161.037 37.13 161.225 36.942 161.465 36.8023C161.702 36.6651 161.961 36.5952 162.236 36.5952ZM162.231 37.1465C161.957 37.1465 161.727 37.2418 161.541 37.4323C161.354 37.6229 161.26 37.8655 161.26 38.1589C161.26 38.4866 161.378 38.7458 161.613 38.9363C161.796 39.0849 162.005 39.1599 162.241 39.1599C162.508 39.1599 162.736 39.0634 162.924 38.8703C163.112 38.6772 163.206 38.4384 163.206 38.1551C163.206 37.8731 163.111 37.6343 162.922 37.4399C162.732 37.2456 162.501 37.1465 162.231 37.1465Z" fill="#5499D1"/>
<path d="M164.296 36.6702H164.894C165.218 36.6702 165.45 36.6994 165.593 36.7604C165.735 36.8201 165.848 36.9166 165.931 37.05C166.013 37.1834 166.054 37.3434 166.054 37.5301C166.054 37.7372 165.999 37.9087 165.891 38.0459C165.784 38.1831 165.638 38.2783 165.452 38.3317C165.343 38.3622 165.145 38.3787 164.858 38.3787V39.6324H164.295V36.6702H164.296ZM164.86 37.8274H165.039C165.179 37.8274 165.277 37.8172 165.332 37.7969C165.386 37.7766 165.429 37.7435 165.461 37.6965C165.493 37.6495 165.508 37.5937 165.508 37.5276C165.508 37.4133 165.464 37.3294 165.375 37.2774C165.31 37.238 165.191 37.2189 165.017 37.2189H164.858V37.8274H164.86Z" fill="#5499D1"/>
<path d="M168.002 36.5952C168.421 36.5952 168.78 36.7464 169.082 37.05C169.383 37.3536 169.534 37.7232 169.534 38.1589C169.534 38.5908 169.385 38.9566 169.088 39.2564C168.791 39.5562 168.431 39.7048 168.007 39.7048C167.563 39.7048 167.193 39.5511 166.9 39.2437C166.606 38.9363 166.46 38.5718 166.46 38.1488C166.46 37.8655 166.528 37.6051 166.666 37.3675C166.803 37.13 166.99 36.942 167.23 36.8023C167.468 36.6651 167.725 36.5952 168.002 36.5952ZM167.996 37.1465C167.721 37.1465 167.492 37.2418 167.305 37.4323C167.119 37.6229 167.025 37.8655 167.025 38.1589C167.025 38.4866 167.143 38.7458 167.377 38.9363C167.56 39.0849 167.77 39.1599 168.006 39.1599C168.272 39.1599 168.501 39.0634 168.688 38.8703C168.876 38.6772 168.97 38.4384 168.97 38.1551C168.97 37.8731 168.875 37.6343 168.686 37.4399C168.497 37.2456 168.267 37.1465 167.996 37.1465Z" fill="#5499D1"/>
<path d="M170.064 39.6312V36.6702H170.53C170.801 36.6702 170.997 36.6879 171.123 36.7222C171.301 36.7692 171.441 36.8569 171.545 36.9839C171.651 37.1109 171.703 37.2621 171.703 37.4349C171.703 37.5479 171.679 37.6495 171.632 37.7423C171.584 37.8337 171.507 37.9201 171.399 38.0014C171.58 38.0865 171.71 38.1919 171.794 38.319C171.878 38.446 171.919 38.5959 171.919 38.7687C171.919 38.9351 171.875 39.0862 171.789 39.2234C171.703 39.3606 171.592 39.4622 171.457 39.5308C171.321 39.5981 171.134 39.6324 170.894 39.6324H170.064V39.6312ZM170.628 37.2075V37.8312H170.751C170.888 37.8312 170.991 37.802 171.057 37.7448C171.124 37.6876 171.157 37.6089 171.157 37.5098C171.157 37.4171 171.125 37.3434 171.062 37.2888C170.998 37.2342 170.902 37.2075 170.773 37.2075H170.628ZM170.628 38.3342V39.0926H170.769C171.002 39.0926 171.16 39.0634 171.242 39.0037C171.323 38.9452 171.364 38.8588 171.364 38.7458C171.364 38.6188 171.316 38.5171 171.221 38.4435C171.125 38.3698 170.967 38.3329 170.745 38.3329H170.628V38.3342Z" fill="#5499D1"/>
<path d="M67.5215 38.9821C68.35 38.9821 69.0215 38.3099 69.0215 37.4806C69.0215 36.6514 68.35 35.9792 67.5215 35.9792C66.6931 35.9792 66.0215 36.6514 66.0215 37.4806C66.0215 38.3099 66.6931 38.9821 67.5215 38.9821Z" fill="#F9E585"/>
<path d="M90.5324 38.3254C84.4384 44.4252 74.6134 44.5129 68.4115 38.5883C68.1475 38.7344 67.8442 38.8183 67.5219 38.8183C66.5054 38.8183 65.6818 37.9938 65.6818 36.9764C65.6818 36.5343 65.8379 36.1291 66.0968 35.8115C64.6767 33.6495 63.8416 31.2157 63.5904 28.7336C63.4787 28.7717 63.3581 28.7933 63.2325 28.7933C62.6208 28.7933 62.1246 28.2966 62.1246 27.6843C62.1246 27.0721 62.6208 26.5754 63.2325 26.5754C63.3302 26.5754 63.4254 26.5894 63.5155 26.6135C63.6386 22.729 65.1818 18.8814 68.1437 15.9166C69.296 14.7631 70.5803 13.8257 71.9496 13.1029C69.1273 13.9006 66.4635 15.411 64.2427 17.634C57.3123 24.5709 57.3123 35.8179 64.2427 42.7561C71.173 49.6943 82.4092 49.693 89.3408 42.7561C92.3954 39.6986 94.1036 35.8039 94.4652 31.8089C93.7292 34.1907 92.4195 36.4378 90.5324 38.3254Z" fill="#F9E585"/>
<path d="M63.2325 28.839C63.7217 28.839 64.1183 28.4421 64.1183 27.9524C64.1183 27.4627 63.7217 27.0657 63.2325 27.0657C62.7433 27.0657 62.3467 27.4627 62.3467 27.9524C62.3467 28.4421 62.7433 28.839 63.2325 28.839Z" fill="#F9E585"/>
<path d="M94.4636 16.0867C94.6248 17.1525 95.4611 17.9896 96.5258 18.1509C95.4611 18.3122 94.6248 19.1494 94.4636 20.2151C94.3024 19.1494 93.4661 18.3122 92.4014 18.1509C93.4661 17.9909 94.3024 17.1538 94.4636 16.0867Z" fill="#F9E585"/>
<path d="M72.8534 17.5514C72.9359 18.0963 73.3636 18.5244 73.908 18.607C73.3636 18.6896 72.9359 19.1176 72.8534 19.6626C72.7709 19.1176 72.3433 18.6896 71.7988 18.607C72.3433 18.5257 72.7709 18.0976 72.8534 17.5514Z" fill="#F9E585"/>
<path d="M62.163 12.0447C62.2455 12.5897 62.6731 13.0178 63.2176 13.1003C62.6731 13.1829 62.2455 13.611 62.163 14.1559C62.0805 13.611 61.6528 13.1829 61.1084 13.1003C61.6528 13.0178 62.0792 12.5897 62.163 12.0447Z" fill="#F9E585"/>
<path d="M95.3187 40.9891C95.4773 42.0371 96.2984 42.859 97.3454 43.0178C96.2984 43.1765 95.4773 43.9984 95.3187 45.0464C95.16 43.9984 94.339 43.1765 93.292 43.0178C94.339 42.859 95.16 42.0371 95.3187 40.9891Z" fill="#F9E585"/>
<path d="M94.464 24.7233C94.5554 25.328 95.03 25.8031 95.6341 25.8945C95.03 25.986 94.5554 26.4611 94.464 27.0657C94.3726 26.4611 93.898 25.986 93.2939 25.8945C93.898 25.8018 94.3726 25.328 94.464 24.7233Z" fill="#F9E585"/>
<path d="M91.5515 26.4432L89.436 20.2926C89.3928 20.1668 89.2545 20.0995 89.1289 20.1427L88.3662 20.4056C88.2875 20.4323 88.2329 20.4958 88.2113 20.5708L82.8356 22.4241L82.4156 21.2034L84.177 20.5962C84.2366 20.6851 84.3509 20.7283 84.4562 20.6915L85.1999 20.4349C85.3255 20.3917 85.3928 20.2532 85.3496 20.1275L84.7265 18.316C84.6834 18.1903 84.545 18.123 84.4194 18.1662L83.677 18.4227C83.5514 18.4659 83.4841 18.6044 83.5272 18.7302L80.097 19.9128C80.012 19.942 79.9549 20.0157 79.9396 20.0982C79.9295 20.1008 79.9181 20.102 79.9079 20.1059L78.3647 20.6381C78.2391 20.6813 78.1718 20.8197 78.215 20.9455L78.6223 22.1281C78.6655 22.2539 78.8038 22.3212 78.9295 22.278L80.4726 21.7458C80.4828 21.742 80.4929 21.7369 80.5018 21.7318C80.5653 21.7877 80.6554 21.8106 80.7404 21.7813L80.8356 21.7483L81.2556 22.969L78.1503 24.0399C77.8355 24.1479 77.6667 24.4946 77.7759 24.8097L77.8673 25.0764L76.7048 25.4766L70.0791 27.7605C69.7935 27.8596 69.64 28.1733 69.739 28.4604L69.9813 29.1667L69.9839 29.1756L69.6463 29.2924L65.0561 30.8739C64.9876 30.8422 64.9064 30.8346 64.8302 30.8612L63.8404 31.2029L63.5295 30.2972C63.4977 30.2045 63.4178 30.1423 63.3264 30.1257C63.3264 30.1219 63.3251 30.1194 63.3239 30.1156C63.3442 30.1003 63.3556 30.0864 63.3505 30.0749C63.3467 30.0648 63.3315 30.0597 63.3086 30.0597L63.2845 29.9898C63.3023 29.9759 63.3125 29.9619 63.3086 29.9517C63.3048 29.9416 63.2883 29.9365 63.2655 29.9365L63.0739 29.3776C63.0256 29.2366 62.8759 29.1718 62.7401 29.2328L62.6944 29.2531C62.5599 29.314 62.3315 29.3928 62.1868 29.4284L62.1335 29.4411C61.9888 29.4766 61.9114 29.6202 61.9596 29.7612L62.1525 30.3214C62.1373 30.3341 62.1297 30.3468 62.1322 30.3557C62.136 30.3646 62.15 30.3696 62.169 30.3696L62.1944 30.4446C62.1792 30.4573 62.1703 30.47 62.1741 30.4789C62.1779 30.489 62.1931 30.4941 62.2147 30.4941C62.216 30.4979 62.2173 30.5017 62.2198 30.5043C62.1589 30.5729 62.1335 30.672 62.1652 30.7647L62.4774 31.6704C62.4774 31.6717 62.4787 31.6717 62.4787 31.6729C62.334 31.7339 62.2579 31.899 62.3099 32.0502L62.9457 33.8985C63.0003 34.056 63.1729 34.1411 63.3315 34.0864L65.664 33.2824C65.7414 33.2557 65.7998 33.2011 65.8341 33.1325L70.4242 31.5497L70.7618 31.4329L71.008 32.148C71.107 32.4338 71.4205 32.5875 71.7073 32.4885L75.0258 31.3439V32.82H73.6971C73.5296 32.82 73.3938 32.9572 73.3938 33.1236V33.5644C73.3938 33.732 73.5296 33.868 73.6971 33.868H75.267L71.4268 43.9221C71.4217 43.9349 71.4192 43.9476 71.4166 43.959L69.8912 47.9515H71.0245L74.673 38.4054L74.6667 38.4028L76.1896 34.4155V37.8579V41.219V47.9502H77.248V37.863H77.2467V34.4701L81.0018 44.3045C81.0107 44.3274 81.0234 44.3464 81.0386 44.3629L82.4117 47.9565H83.545L79.7518 38.0306L79.7391 38.0357L78.149 33.8718H79.7378C79.9054 33.8718 80.0411 33.7346 80.0411 33.5682V33.1274C80.0411 32.9597 79.9041 32.8238 79.7378 32.8238H78.4853V30.1524L79.102 29.9403L79.4307 29.8272L79.4929 29.8056L79.4904 29.7993L79.5843 30.0724C79.6922 30.3874 80.0386 30.5564 80.3533 30.4471L90.4157 26.978C90.4779 27.0238 90.5604 27.0403 90.639 27.0136L91.4017 26.7506C91.5274 26.7074 91.5946 26.569 91.5515 26.4432Z" fill="#5499D1"/>
</g>
<defs>
<filter id="filter0_d_1769_46012" x="-30" y="-25" width="435" height="120" filterUnits="userSpaceOnUse" color-interpolation-filters="sRGB">
<feFlood flood-opacity="0" result="BackgroundImageFix"/>
<feColorMatrix in="SourceAlpha" type="matrix" values="0 0 0 0 0 0 0 0 0 0 0 0 0 0 0 0 0 0 127 0" result="hardAlpha"/>
<feOffset dy="5"/>
<feGaussianBlur stdDeviation="15"/>
<feComposite in2="hardAlpha" operator="out"/>
<feColorMatrix type="matrix" values="0 0 0 0 0.247135 0 0 0 0 0.259458 0 0 0 0 0.270833 0 0 0 0.15 0"/>
<feBlend mode="normal" in2="BackgroundImageFix" result="effect1_dropShadow_1769_46012"/>
<feBlend mode="normal" in="SourceGraphic" in2="effect1_dropShadow_1769_46012" result="shape"/>
</filter>
<clipPath id="clip0_1769_46012">
<rect width="113" height="36" fill="white" transform="translate(59 12)"/>
</clipPath>
</defs>
</svg>
