<svg width="113" height="36" viewBox="0 0 113 36" fill="none" xmlns="http://www.w3.org/2000/svg">
<g clip-path="url(#clip0_1832_60894)">
<path d="M45.2761 10.6731H42.4766V8.75885H50.2356V10.6731H47.436V18.5793H45.2748V10.6731H45.2761Z" fill="#333333"/>
<path d="M55.9049 17.4132C55.5724 17.8387 55.1523 18.1665 54.6434 18.3977C54.1358 18.6288 53.6091 18.7444 53.0634 18.7444C52.5457 18.7444 52.0583 18.6606 51.6015 18.4942C51.1446 18.3278 50.7474 18.0902 50.4098 17.7803C50.0723 17.4704 49.807 17.0982 49.6129 16.6637C49.4187 16.2293 49.3223 15.7441 49.3223 15.208C49.3223 14.672 49.4187 14.1867 49.6129 13.7523C49.807 13.3178 50.0723 12.9457 50.4098 12.6357C50.7474 12.3258 51.1446 12.0882 51.6015 11.9218C52.0583 11.7554 52.5457 11.6716 53.0634 11.6716C53.5431 11.6716 53.9797 11.7554 54.3731 11.9218C54.7652 12.0882 55.0977 12.3258 55.3706 12.6357C55.6434 12.9457 55.8528 13.3178 56.0013 13.7523C56.1485 14.1867 56.2234 14.672 56.2234 15.208V15.8597H51.401C51.4847 16.2572 51.6637 16.5735 51.9416 16.8098C52.2182 17.0461 52.5609 17.1629 52.967 17.1629C53.3084 17.1629 53.5977 17.0867 53.8325 16.9343C54.0673 16.7819 54.2728 16.585 54.4492 16.3449L55.9049 17.4132ZM54.1447 14.4458C54.1536 14.094 54.0381 13.7942 53.7982 13.544C53.5584 13.295 53.2487 13.1692 52.8693 13.1692C52.6383 13.1692 52.4353 13.2061 52.2601 13.2797C52.085 13.3534 51.934 13.4487 51.8096 13.5643C51.6852 13.6799 51.5875 13.8132 51.519 13.9669C51.4505 14.1207 51.4099 14.2794 51.401 14.4458H54.1447Z" fill="#333333"/>
<path d="M57.5117 8.0932H59.5904V18.578H57.5117V8.0932Z" fill="#333333"/>
<path d="M67.4605 17.4131C67.128 17.8387 66.708 18.1664 66.1991 18.3976C65.6915 18.6288 65.1648 18.7444 64.6191 18.7444C64.1013 18.7444 63.614 18.6605 63.1572 18.4941C62.7003 18.3277 62.3031 18.0902 61.9655 17.7802C61.6279 17.4703 61.3627 17.0981 61.1685 16.6637C60.9744 16.2292 60.8779 15.744 60.8779 15.2079C60.8779 14.6719 60.9744 14.1866 61.1685 13.7522C61.3627 13.3178 61.6279 12.9456 61.9655 12.6356C62.3031 12.3257 62.7003 12.0882 63.1572 11.9218C63.614 11.7553 64.1013 11.6715 64.6191 11.6715C65.0988 11.6715 65.5354 11.7553 65.9288 11.9218C66.3209 12.0882 66.6534 12.3257 66.9262 12.6356C67.1991 12.9456 67.4085 13.3178 67.557 13.7522C67.7042 14.1866 67.7791 14.6719 67.7791 15.2079V15.8596H62.9566C63.0404 16.2572 63.2193 16.5735 63.4973 16.8098C63.7739 17.046 64.1166 17.1629 64.5227 17.1629C64.864 17.1629 65.1534 17.0867 65.3882 16.9342C65.6229 16.7818 65.8285 16.5849 66.0049 16.3448L67.4605 17.4131ZM65.7003 14.4458C65.7092 14.0939 65.5937 13.7941 65.3539 13.5439C65.114 13.2949 64.8044 13.1692 64.4249 13.1692C64.194 13.1692 63.9909 13.206 63.8158 13.2797C63.6407 13.3533 63.4896 13.4486 63.3653 13.5642C63.2409 13.6798 63.1432 13.8132 63.0747 13.9669C63.0061 14.1206 62.9655 14.2794 62.9566 14.4458H65.7003Z" fill="#333333"/>
<path d="M72.0591 15.9574H68.6504V14.2934H72.0591V15.9574Z" fill="#333333"/>
<path d="M78.1697 18.8282C77.4209 18.8282 76.7331 18.6961 76.1049 18.4332C75.4767 18.1702 74.9387 17.807 74.4907 17.3446C74.0427 16.8822 73.6912 16.3372 73.4374 15.7085C73.1835 15.0797 73.0566 14.4001 73.0566 13.6697C73.0566 12.9393 73.1835 12.2597 73.4374 11.6309C73.6912 11.0021 74.0427 10.4572 74.4907 9.99479C74.9387 9.53241 75.4767 9.16911 76.1049 8.90616C76.7331 8.64195 77.4209 8.51111 78.1697 8.51111C78.9184 8.51111 79.6062 8.64322 80.2344 8.90616C80.8626 9.16911 81.4007 9.53241 81.8487 9.99479C82.2966 10.4572 82.6482 11.0021 82.902 11.6309C83.1558 12.2597 83.2827 12.9393 83.2827 13.6697C83.2827 14.4001 83.1558 15.0797 82.902 15.7085C82.6482 16.3372 82.2966 16.8835 81.8487 17.3446C81.4007 17.807 80.8626 18.1702 80.2344 18.4332C79.6062 18.6961 78.9184 18.8282 78.1697 18.8282ZM78.1697 17.5796C78.7331 17.5796 79.2408 17.4754 79.6938 17.2671C80.1469 17.0588 80.5339 16.7793 80.8575 16.4274C81.1811 16.0756 81.4299 15.6627 81.6063 15.1864C81.7814 14.71 81.869 14.2045 81.869 13.6671C81.869 13.1311 81.7814 12.6242 81.6063 12.1479C81.4311 11.6715 81.1811 11.2574 80.8575 10.9068C80.5339 10.555 80.1456 10.2755 79.6938 10.0672C79.2408 9.85887 78.7331 9.7547 78.1697 9.7547C77.6062 9.7547 77.0973 9.85887 76.6455 10.0672C76.1925 10.2755 75.8054 10.555 75.4818 10.9068C75.1582 11.2587 74.9095 11.6715 74.7331 12.1479C74.5579 12.6242 74.4691 13.1298 74.4691 13.6671C74.4691 14.2032 74.5567 14.71 74.7331 15.1864C74.9082 15.6627 75.1582 16.0768 75.4818 16.4274C75.8054 16.7793 76.1925 17.0588 76.6455 17.2671C77.0986 17.4754 77.6062 17.5796 78.1697 17.5796Z" fill="#333333"/>
<path d="M84.877 12.0044H86.1244V12.9469H86.1524C86.3922 12.5963 86.7222 12.3232 87.1435 12.1288C87.5635 11.9345 87.995 11.838 88.4392 11.838C88.9468 11.838 89.4062 11.9256 89.8174 12.1009C90.2286 12.2762 90.5788 12.5214 90.8707 12.8364C91.1613 13.1514 91.3859 13.5185 91.5433 13.939C91.7007 14.3594 91.7794 14.8104 91.7794 15.2918C91.7794 15.7821 91.7007 16.2369 91.5433 16.6574C91.3859 17.0778 91.1626 17.4437 90.8707 17.7523C90.5801 18.0623 90.2286 18.3049 89.8174 18.4802C89.4062 18.6555 88.9468 18.7444 88.4392 18.7444C87.9684 18.7444 87.5242 18.6453 87.1092 18.4459C86.6942 18.2465 86.3744 17.9772 86.1536 17.6342H86.1257V22.4892H84.8782V12.0044H84.877ZM88.2856 13.0028C87.9531 13.0028 87.6524 13.0612 87.3846 13.1755C87.1168 13.2911 86.8909 13.4487 86.7057 13.6468C86.5204 13.8463 86.3783 14.0863 86.2767 14.3683C86.1752 14.6503 86.1244 14.9577 86.1244 15.2905C86.1244 15.6234 86.1752 15.9308 86.2767 16.2128C86.3783 16.4948 86.5217 16.7348 86.7057 16.9343C86.8909 17.1337 87.1168 17.29 87.3846 17.4055C87.6524 17.5211 87.9531 17.5796 88.2856 17.5796C88.6181 17.5796 88.9189 17.5224 89.1867 17.4055C89.4544 17.29 89.6803 17.1324 89.8656 16.9343C90.0509 16.7361 90.193 16.4948 90.2946 16.2128C90.3961 15.9308 90.4468 15.6234 90.4468 15.2905C90.4468 14.9577 90.3961 14.6503 90.2946 14.3683C90.193 14.0863 90.0496 13.8463 89.8656 13.6468C89.6803 13.4487 89.4544 13.2911 89.1867 13.1755C88.9176 13.0612 88.6181 13.0028 88.2856 13.0028Z" fill="#333333"/>
<path d="M96.8617 13.0866H95.0749V16.0692C95.0749 16.2547 95.08 16.4363 95.0888 16.6167C95.0977 16.7971 95.132 16.9584 95.1929 17.1019C95.2525 17.2455 95.3452 17.3611 95.4696 17.4487C95.5939 17.5364 95.7767 17.5808 96.0165 17.5808C96.1637 17.5808 96.316 17.5669 96.4734 17.5389C96.6307 17.511 96.7741 17.4602 96.9023 17.3865V18.5234C96.7538 18.6072 96.5635 18.6644 96.3274 18.6961C96.0914 18.7279 95.9099 18.7444 95.7805 18.7444C95.2995 18.7444 94.9289 18.6771 94.665 18.5437C94.4023 18.4103 94.2081 18.2363 94.0837 18.0242C93.9594 17.812 93.8845 17.5732 93.8617 17.3103C93.8388 17.046 93.8274 16.7806 93.8274 16.5125V13.0866H92.3857V12.0043H93.8274V10.1599H95.0749V12.0043H96.8617V13.0866V13.0866Z" fill="#333333"/>
<path d="M98.2764 9.6467C98.2764 9.39773 98.3665 9.18178 98.5467 9.0014C98.7269 8.82102 98.9414 8.73083 99.1914 8.73083C99.4401 8.73083 99.6558 8.82102 99.836 9.0014C100.016 9.18178 100.106 9.39646 100.106 9.6467C100.106 9.89694 100.016 10.1116 99.836 10.292C99.6558 10.4724 99.4414 10.5626 99.1914 10.5626C98.9414 10.5626 98.7269 10.4724 98.5467 10.292C98.3665 10.1116 98.2764 9.89567 98.2764 9.6467ZM98.567 12.0043H99.8145V18.578H98.567V12.0043Z" fill="#333333"/>
<path d="M106.493 13.7523C106.262 13.5122 106.019 13.3293 105.766 13.2048C105.512 13.0803 105.209 13.0181 104.858 13.0181C104.517 13.0181 104.219 13.0803 103.965 13.2048C103.711 13.3293 103.498 13.5008 103.328 13.718C103.157 13.9352 103.027 14.1854 102.939 14.4674C102.852 14.7494 102.808 15.0429 102.808 15.3477C102.808 15.6526 102.858 15.9422 102.96 16.2141C103.061 16.4872 103.205 16.7247 103.389 16.9279C103.574 17.1312 103.795 17.2912 104.054 17.4068C104.313 17.5224 104.603 17.5809 104.927 17.5809C105.278 17.5809 105.578 17.5186 105.828 17.3941C106.077 17.2696 106.308 17.0867 106.521 16.8466L107.408 17.7346C107.084 18.0953 106.709 18.3545 106.278 18.5107C105.848 18.6669 105.394 18.747 104.914 18.747C104.407 18.747 103.942 18.6631 103.522 18.4967C103.102 18.3303 102.739 18.0966 102.434 17.7968C102.13 17.497 101.894 17.1363 101.728 16.7145C101.561 16.2941 101.478 15.8292 101.478 15.321C101.478 14.8129 101.561 14.3455 101.728 13.9199C101.894 13.4944 102.127 13.1298 102.427 12.8237C102.726 12.5188 103.087 12.28 103.508 12.1098C103.928 11.9383 104.396 11.8532 104.914 11.8532C105.394 11.8532 105.855 11.9383 106.292 12.1098C106.731 12.2813 107.112 12.5417 107.436 12.8936L106.493 13.7523Z" fill="#333333"/>
<path d="M111.966 13.6544C111.817 13.469 111.636 13.314 111.419 13.1895C111.202 13.065 110.937 13.0028 110.622 13.0028C110.326 13.0028 110.07 13.065 109.853 13.1895C109.636 13.314 109.527 13.4969 109.527 13.737C109.527 13.9313 109.589 14.0889 109.713 14.2083C109.838 14.3289 109.986 14.4255 110.156 14.4992C110.328 14.5728 110.509 14.6287 110.703 14.6656C110.897 14.7024 111.064 14.7354 111.202 14.7621C111.47 14.8269 111.721 14.9056 111.957 14.9984C112.193 15.0911 112.396 15.2105 112.566 15.3591C112.738 15.5078 112.871 15.6869 112.969 15.9003C113.065 16.1137 113.114 16.3715 113.114 16.6764C113.114 17.046 113.036 17.3636 112.878 17.6266C112.721 17.8908 112.518 18.1055 112.269 18.2719C112.019 18.4383 111.736 18.5589 111.418 18.6326C111.099 18.7063 110.778 18.7431 110.455 18.7431C109.909 18.7431 109.432 18.6593 109.02 18.4929C108.609 18.3265 108.243 18.0216 107.919 17.577L108.861 16.8009C109.064 17.0041 109.29 17.1845 109.54 17.342C109.79 17.4995 110.094 17.5783 110.455 17.5783C110.612 17.5783 110.771 17.5618 110.933 17.53C111.094 17.4983 111.238 17.4462 111.362 17.3776C111.486 17.3077 111.588 17.2201 111.666 17.1134C111.745 17.0067 111.784 16.8847 111.784 16.7463C111.784 16.5608 111.726 16.4084 111.611 16.289C111.495 16.1683 111.357 16.0743 111.194 16.0044C111.033 15.9346 110.862 15.8799 110.682 15.838C110.501 15.7961 110.343 15.7618 110.203 15.7339C109.935 15.6691 109.682 15.5954 109.441 15.5116C109.201 15.4277 108.987 15.3172 108.803 15.1787C108.618 15.0403 108.471 14.865 108.361 14.6516C108.25 14.4395 108.194 14.1752 108.194 13.8615C108.194 13.5198 108.265 13.2213 108.409 12.9672C108.552 12.7132 108.741 12.5023 108.977 12.3359C109.213 12.1695 109.481 12.045 109.781 11.9612C110.08 11.8773 110.383 11.8367 110.688 11.8367C111.131 11.8367 111.556 11.9205 111.962 12.0856C112.368 12.252 112.692 12.529 112.932 12.9177L111.966 13.6544Z" fill="#333333"/>
<path d="M43.1028 24.6702H43.6511L44.3364 26.7356L45.028 24.6702H45.5762L46.0724 27.6312H45.528L45.2107 25.7613L44.5826 27.6312H44.0864L43.4632 25.7613L43.1384 27.6312H42.5889L43.1028 24.6702Z" fill="#5499D1"/>
<path d="M47.4248 24.6702H47.9958L49.1342 27.6312H48.5492L48.3182 27.0214H47.1113L46.8702 27.6312H46.2852L47.4248 24.6702ZM47.7128 25.4552L47.3156 26.4714H48.1075L47.7128 25.4552Z" fill="#5499D1"/>
<path d="M49.5674 24.6702H51.0357V25.2215H50.127V27.6312H49.5674V24.6702V24.6702Z" fill="#5499D1"/>
<path d="M52.3779 24.6702H52.949L54.0873 27.6312H53.5023L53.2713 27.0214H52.0644L51.8233 27.6312H51.2383L52.3779 24.6702ZM52.6672 25.4552L52.27 26.4714H53.0619L52.6672 25.4552Z" fill="#5499D1"/>
<path d="M54.6632 26.8601C54.813 27.0684 54.9868 27.1726 55.1873 27.1726C55.3206 27.1726 55.4285 27.1345 55.5097 27.0596C55.5909 26.9846 55.6328 26.8843 55.6328 26.7598C55.6328 26.6378 55.5934 26.5362 55.5135 26.4562C55.4335 26.3761 55.2686 26.3355 55.0173 26.3355H54.8967V25.8325H55.0173C55.1658 25.8325 55.2787 25.7982 55.3561 25.7296C55.4335 25.661 55.4716 25.5695 55.4716 25.4539C55.4716 25.3485 55.4399 25.2634 55.3752 25.2024C55.3104 25.1414 55.2254 25.1097 55.1188 25.1097C54.9919 25.1097 54.8625 25.1719 54.7292 25.2964L54.3967 24.9255C54.5757 24.7642 54.7241 24.6676 54.8434 24.6371C54.9627 24.6054 55.0731 24.5901 55.1734 24.5901C55.4158 24.5901 55.6175 24.66 55.7825 24.801C55.9475 24.942 56.0287 25.1326 56.0287 25.3714C56.0287 25.4768 56.0097 25.581 55.9729 25.6813C55.9361 25.7817 55.8333 25.8884 55.6645 26.0014C56.011 26.1551 56.1835 26.4193 56.1835 26.7928C56.1835 27.0684 56.0909 27.2895 55.9069 27.4559C55.7229 27.6236 55.4856 27.7061 55.195 27.7061C55.0122 27.7061 54.8485 27.6731 54.7038 27.607C54.5592 27.541 54.4005 27.3974 54.2305 27.1777L54.6632 26.8601Z" fill="#5499D1"/>
<path d="M58.8768 24.6702V27.6312H58.3134V25.7766L57.2106 27.6312H56.7207V24.6702H57.2842V26.5845L58.4022 24.6702H58.8768Z" fill="#5499D1"/>
<path d="M59.5508 24.6702H60.1219V25.7867H61.1092V24.6702H61.679V27.6312H61.1092V26.3329H60.1219V27.6312H59.5508V24.6702Z" fill="#5499D1"/>
<path d="M64.9042 24.5952C65.323 24.5952 65.6821 24.7464 65.9842 25.05C66.2849 25.3536 66.436 25.7232 66.436 26.1589C66.436 26.5908 66.2875 26.9566 65.9905 27.2564C65.6936 27.5562 65.3331 27.7048 64.9093 27.7048C64.4651 27.7048 64.0958 27.5511 63.8027 27.2437C63.5082 26.9363 63.3623 26.5718 63.3623 26.1488C63.3623 25.8655 63.4308 25.6051 63.5679 25.3675C63.7049 25.13 63.8928 24.942 64.1326 24.8023C64.3699 24.6651 64.6275 24.5952 64.9042 24.5952ZM64.8979 25.1465C64.6237 25.1465 64.394 25.2418 64.2075 25.4323C64.0209 25.6229 63.927 25.8655 63.927 26.1589C63.927 26.4866 64.0451 26.7458 64.2798 26.9363C64.4626 27.0849 64.672 27.1599 64.908 27.1599C65.1745 27.1599 65.4029 27.0634 65.5908 26.8703C65.7786 26.6772 65.8725 26.4384 65.8725 26.1551C65.8725 25.8731 65.7773 25.6343 65.5882 25.4399C65.3991 25.2456 65.1694 25.1465 64.8979 25.1465Z" fill="#5499D1"/>
<path d="M66.9648 24.6702H69.093V27.6312H68.5232V25.1973H67.5359V27.6312H66.9648V24.6702Z" fill="#5499D1"/>
<path d="M69.4759 24.6702H71.1104V25.2253H70.5711V27.6312H70V25.2253H69.4746V24.6702H69.4759Z" fill="#5499D1"/>
<path d="M73.6513 24.6702V27.6312H73.0878V25.7766L71.985 27.6312H71.4951V24.6702H72.0586V26.5845L73.1766 24.6702H73.6513Z" fill="#5499D1"/>
<path d="M75.6225 26.3329H75.4334C75.1618 26.3329 74.96 26.319 74.8306 26.291C74.7012 26.2631 74.5768 26.2034 74.46 26.1106C74.342 26.0192 74.2595 25.9074 74.21 25.7766C74.1618 25.6457 74.1377 25.473 74.1377 25.257V24.6702H74.7088V25.2481C74.7088 25.4488 74.7456 25.5898 74.8179 25.6686C74.8902 25.7474 75.0451 25.7867 75.2811 25.7867H75.6225V24.6702H76.1898V27.6312H75.6225V26.3329Z" fill="#5499D1"/>
<path d="M76.8672 24.6702H78.4827V25.2215H77.4268V25.7575H78.4827V26.2987H77.4268V27.0773H78.4827V27.6312H76.8672V24.6702Z" fill="#5499D1"/>
<path d="M81.7269 25.1897L81.3334 25.5657C81.0657 25.2825 80.7636 25.1402 80.4286 25.1402C80.1456 25.1402 79.9083 25.2367 79.7141 25.4298C79.52 25.6229 79.4235 25.8617 79.4235 26.145C79.4235 26.3419 79.4667 26.5184 79.5517 26.6709C79.638 26.8246 79.7586 26.944 79.9159 27.0316C80.0733 27.1193 80.2471 27.1625 80.4388 27.1625C80.6025 27.1625 80.7509 27.132 80.8867 27.071C81.0225 27.01 81.171 26.8982 81.3334 26.7369L81.7154 27.1358C81.4972 27.3492 81.2903 27.4978 81.0961 27.5804C80.902 27.6629 80.6799 27.7036 80.4299 27.7036C79.9705 27.7036 79.5936 27.5575 79.3004 27.2653C79.0073 26.9732 78.8613 26.5997 78.8613 26.1424C78.8613 25.8477 78.9286 25.5848 79.0618 25.3549C79.1951 25.1249 79.3867 24.9408 79.6354 24.801C79.8842 24.6613 80.152 24.5914 80.4388 24.5914C80.6824 24.5914 80.9172 24.6435 81.1431 24.7464C81.369 24.8531 81.5631 25.0005 81.7269 25.1897Z" fill="#5499D1"/>
<path d="M82.2236 24.6702H82.7934V25.6915L83.5968 24.6702H84.2732L83.2401 25.9912L84.3734 27.6312H83.7059L82.7934 26.3152V27.6312H82.2236V24.6702Z" fill="#5499D1"/>
<path d="M86.9286 24.6702V27.6312H86.3651V25.7766L85.2623 27.6312H84.7725V24.6702H85.3359V26.5845L86.454 24.6702H86.9286Z" fill="#5499D1"/>
<path d="M87.4118 24.6702H88.0451L88.6669 25.6203L89.29 24.6702H89.9233L88.9842 26.1056L89.9816 27.6312H89.3484L88.6669 26.5895L87.9867 27.6312H87.3496L88.3509 26.1043L87.4118 24.6702Z" fill="#5499D1"/>
<path d="M91.5557 24.6702H93.6839V27.6312H93.1141V25.1973H92.1267V27.6312H91.5557V24.6702Z" fill="#5499D1"/>
<path d="M94.3577 24.6702H94.9554C95.2791 24.6702 95.5113 24.6994 95.6547 24.7604C95.7968 24.8201 95.9098 24.9166 95.9923 25.05C96.0747 25.1834 96.1154 25.3434 96.1154 25.5301C96.1154 25.7372 96.0608 25.9087 95.9529 26.0459C95.8451 26.1831 95.6991 26.2783 95.5138 26.3317C95.4047 26.3622 95.2067 26.3787 94.9199 26.3787V27.6324H94.3564V24.6702H94.3577ZM94.9212 25.8274H95.1001C95.241 25.8274 95.3387 25.8172 95.3933 25.7969C95.4478 25.7766 95.491 25.7435 95.5227 25.6965C95.5544 25.6495 95.5697 25.5937 95.5697 25.5276C95.5697 25.4133 95.5252 25.3294 95.4364 25.2774C95.3717 25.238 95.2524 25.2189 95.0785 25.2189H94.9199V25.8274H94.9212Z" fill="#5499D1"/>
<path d="M98.8212 24.6702V27.6312H98.2577V25.7766L97.1549 27.6312H96.665V24.6702H97.2285V26.5845L98.3465 24.6702H98.8212Z" fill="#5499D1"/>
<path d="M99.4951 27.6312V24.6702H101.042V25.2202H100.059V25.788H100.182C100.432 25.788 100.635 25.816 100.793 25.8706C100.952 25.9252 101.083 26.0294 101.188 26.1818C101.293 26.3342 101.345 26.5146 101.345 26.7229C101.345 26.93 101.306 27.0938 101.226 27.2171C101.146 27.3403 101.038 27.4394 100.899 27.5168C100.759 27.5943 100.567 27.6324 100.323 27.6324H99.4951V27.6312ZM100.059 26.291V27.0938H100.199C100.457 27.0938 100.62 27.0608 100.688 26.9935C100.757 26.9262 100.791 26.836 100.791 26.7216C100.791 26.4346 100.585 26.291 100.175 26.291H100.059V26.291Z" fill="#5499D1"/>
<path d="M103.236 24.5952C103.655 24.5952 104.014 24.7464 104.316 25.05C104.617 25.3536 104.768 25.7232 104.768 26.1589C104.768 26.5908 104.62 26.9566 104.323 27.2564C104.026 27.5562 103.665 27.7048 103.241 27.7048C102.797 27.7048 102.428 27.5511 102.135 27.2437C101.84 26.9363 101.694 26.5718 101.694 26.1488C101.694 25.8655 101.763 25.6051 101.9 25.3675C102.037 25.13 102.225 24.942 102.465 24.8023C102.702 24.6651 102.961 24.5952 103.236 24.5952ZM103.231 25.1465C102.957 25.1465 102.727 25.2418 102.541 25.4323C102.354 25.6229 102.26 25.8655 102.26 26.1589C102.26 26.4866 102.378 26.7458 102.613 26.9363C102.796 27.0849 103.005 27.1599 103.241 27.1599C103.508 27.1599 103.736 27.0634 103.924 26.8703C104.112 26.6772 104.206 26.4384 104.206 26.1551C104.206 25.8731 104.111 25.6343 103.922 25.4399C103.732 25.2456 103.501 25.1465 103.231 25.1465Z" fill="#5499D1"/>
<path d="M105.296 24.6702H105.894C106.218 24.6702 106.45 24.6994 106.593 24.7604C106.735 24.8201 106.848 24.9166 106.931 25.05C107.013 25.1834 107.054 25.3434 107.054 25.5301C107.054 25.7372 106.999 25.9087 106.891 26.0459C106.784 26.1831 106.638 26.2783 106.452 26.3317C106.343 26.3622 106.145 26.3787 105.858 26.3787V27.6324H105.295V24.6702H105.296ZM105.86 25.8274H106.039C106.179 25.8274 106.277 25.8172 106.332 25.7969C106.386 25.7766 106.429 25.7435 106.461 25.6965C106.493 25.6495 106.508 25.5937 106.508 25.5276C106.508 25.4133 106.464 25.3294 106.375 25.2774C106.31 25.238 106.191 25.2189 106.017 25.2189H105.858V25.8274H105.86Z" fill="#5499D1"/>
<path d="M109.002 24.5952C109.421 24.5952 109.78 24.7464 110.082 25.05C110.383 25.3536 110.534 25.7232 110.534 26.1589C110.534 26.5908 110.385 26.9566 110.088 27.2564C109.791 27.5562 109.431 27.7048 109.007 27.7048C108.563 27.7048 108.193 27.5511 107.9 27.2437C107.606 26.9363 107.46 26.5718 107.46 26.1488C107.46 25.8655 107.528 25.6051 107.666 25.3675C107.803 25.13 107.99 24.942 108.23 24.8023C108.468 24.6651 108.725 24.5952 109.002 24.5952ZM108.996 25.1465C108.721 25.1465 108.492 25.2418 108.305 25.4323C108.119 25.6229 108.025 25.8655 108.025 26.1589C108.025 26.4866 108.143 26.7458 108.377 26.9363C108.56 27.0849 108.77 27.1599 109.006 27.1599C109.272 27.1599 109.501 27.0634 109.688 26.8703C109.876 26.6772 109.97 26.4384 109.97 26.1551C109.97 25.8731 109.875 25.6343 109.686 25.4399C109.497 25.2456 109.267 25.1465 108.996 25.1465Z" fill="#5499D1"/>
<path d="M111.064 27.6312V24.6702H111.53C111.801 24.6702 111.997 24.6879 112.123 24.7222C112.301 24.7692 112.441 24.8569 112.545 24.9839C112.651 25.1109 112.703 25.2621 112.703 25.4349C112.703 25.5479 112.679 25.6495 112.632 25.7423C112.584 25.8337 112.507 25.9201 112.399 26.0014C112.58 26.0865 112.71 26.1919 112.794 26.319C112.878 26.446 112.919 26.5959 112.919 26.7687C112.919 26.9351 112.875 27.0862 112.789 27.2234C112.703 27.3606 112.592 27.4622 112.457 27.5308C112.321 27.5981 112.134 27.6324 111.894 27.6324H111.064V27.6312ZM111.628 25.2075V25.8312H111.751C111.888 25.8312 111.991 25.802 112.057 25.7448C112.124 25.6876 112.157 25.6089 112.157 25.5098C112.157 25.4171 112.125 25.3434 112.062 25.2888C111.998 25.2342 111.902 25.2075 111.773 25.2075H111.628ZM111.628 26.3342V27.0926H111.769C112.002 27.0926 112.16 27.0634 112.242 27.0037C112.323 26.9452 112.364 26.8588 112.364 26.7458C112.364 26.6188 112.316 26.5171 112.221 26.4435C112.125 26.3698 111.967 26.3329 111.745 26.3329H111.628V26.3342Z" fill="#5499D1"/>
<path d="M8.52151 26.9821C9.34995 26.9821 10.0215 26.3099 10.0215 25.4806C10.0215 24.6514 9.34995 23.9792 8.52151 23.9792C7.69307 23.9792 7.02148 24.6514 7.02148 25.4806C7.02148 26.3099 7.69307 26.9821 8.52151 26.9821Z" fill="#F9E585"/>
<path d="M31.5324 26.3254C25.4384 32.4252 15.6134 32.5129 9.41151 26.5883C9.14755 26.7344 8.84424 26.8183 8.5219 26.8183C7.50539 26.8183 6.68177 25.9938 6.68177 24.9764C6.68177 24.5343 6.83786 24.1291 7.09675 23.8115C5.67668 21.6495 4.84164 19.2157 4.59036 16.7336C4.47869 16.7717 4.35813 16.7933 4.23249 16.7933C3.62081 16.7933 3.12461 16.2966 3.12461 15.6843C3.12461 15.0721 3.62081 14.5754 4.23249 14.5754C4.33021 14.5754 4.42539 14.5894 4.51549 14.6135C4.63859 10.729 6.18176 6.88136 9.14374 3.91655C10.296 2.76315 11.5803 1.82569 12.9496 1.10291C10.1273 1.90064 7.46351 3.41098 5.24266 5.63396C-1.68766 12.5709 -1.68766 23.8179 5.24266 30.7561C12.173 37.6943 23.4092 37.693 30.3408 30.7561C33.3954 27.6986 35.1036 23.8039 35.4652 19.8089C34.7292 22.1907 33.4195 24.4378 31.5324 26.3254Z" fill="#F9E585"/>
<path d="M4.23248 16.839C4.72169 16.839 5.11828 16.4421 5.11828 15.9524C5.11828 15.4627 4.72169 15.0657 4.23248 15.0657C3.74327 15.0657 3.34668 15.4627 3.34668 15.9524C3.34668 16.4421 3.74327 16.839 4.23248 16.839Z" fill="#F9E585"/>
<path d="M35.4636 4.08673C35.6248 5.15249 36.4611 5.9896 37.5258 6.15092C36.4611 6.31224 35.6248 7.14935 35.4636 8.21511C35.3024 7.14935 34.4661 6.31224 33.4014 6.15092C34.4661 5.99087 35.3024 5.15376 35.4636 4.08673Z" fill="#F9E585"/>
<path d="M13.8534 5.55139C13.9359 6.09634 14.3636 6.52442 14.908 6.60699C14.3636 6.68955 13.9359 7.11763 13.8534 7.66258C13.7709 7.11763 13.3433 6.68955 12.7988 6.60699C13.3433 6.52569 13.7709 6.09761 13.8534 5.55139Z" fill="#F9E585"/>
<path d="M3.16298 0.0447388C3.24547 0.589685 3.67315 1.01777 4.21757 1.10033C3.67315 1.1829 3.24547 1.61098 3.16298 2.15593C3.0805 1.61098 2.65282 1.1829 2.1084 1.10033C2.65282 1.01777 3.07923 0.589685 3.16298 0.0447388Z" fill="#F9E585"/>
<path d="M36.3187 28.9891C36.4773 30.0371 37.2984 30.859 38.3454 31.0178C37.2984 31.1765 36.4773 31.9984 36.3187 33.0464C36.16 31.9984 35.339 31.1765 34.292 31.0178C35.339 30.859 36.16 30.0371 36.3187 28.9891Z" fill="#F9E585"/>
<path d="M35.464 12.7233C35.5554 13.328 36.03 13.8031 36.6341 13.8945C36.03 13.986 35.5554 14.4611 35.464 15.0657C35.3726 14.4611 34.898 13.986 34.2939 13.8945C34.898 13.8018 35.3726 13.328 35.464 12.7233Z" fill="#F9E585"/>
<path d="M32.5515 14.4432L30.436 8.29258C30.3928 8.16683 30.2545 8.0995 30.1289 8.14269L29.3662 8.40564C29.2875 8.43232 29.2329 8.49583 29.2113 8.57077L23.8356 10.4241L23.4156 9.20337L25.177 8.59618C25.2366 8.6851 25.3509 8.72829 25.4562 8.69145L26.1999 8.43486C26.3255 8.39167 26.3928 8.25321 26.3496 8.12745L25.7265 6.31604C25.6834 6.19029 25.545 6.12296 25.4194 6.16615L24.677 6.42275C24.5514 6.46594 24.4841 6.6044 24.5272 6.73015L21.097 7.91277C21.012 7.94199 20.9549 8.01567 20.9396 8.09823C20.9295 8.10077 20.9181 8.10204 20.9079 8.10585L19.3647 8.6381C19.2391 8.68129 19.1718 8.81975 19.215 8.94551L19.6223 10.1281C19.6655 10.2539 19.8038 10.3212 19.9295 10.278L21.4726 9.74577C21.4828 9.74196 21.4929 9.73688 21.5018 9.7318C21.5653 9.78769 21.6554 9.81056 21.7404 9.78134L21.8356 9.74832L22.2556 10.969L19.1503 12.0399C18.8355 12.1479 18.6667 12.4946 18.7759 12.8097L18.8673 13.0764L17.7048 13.4766L11.0791 15.7605C10.7935 15.8596 10.64 16.1733 10.739 16.4604L10.9813 17.1667L10.9839 17.1756L10.6463 17.2924L6.05614 18.8739C5.98761 18.8422 5.90639 18.8346 5.83024 18.8612L4.84038 19.2029L4.52946 18.2972C4.49773 18.2045 4.41778 18.1423 4.32641 18.1257C4.32641 18.1219 4.32514 18.1194 4.32387 18.1156C4.34418 18.1003 4.3556 18.0864 4.35052 18.0749C4.34672 18.0648 4.33149 18.0597 4.30865 18.0597L4.28453 17.9898C4.3023 17.9759 4.31245 17.9619 4.30865 17.9517C4.30484 17.9416 4.28834 17.9365 4.2655 17.9365L4.07387 17.3776C4.02565 17.2366 3.8759 17.1718 3.74011 17.2328L3.69442 17.2531C3.5599 17.314 3.33147 17.3928 3.1868 17.4284L3.1335 17.4411C2.98883 17.4766 2.91141 17.6202 2.95964 17.7612L3.15254 18.3214C3.13731 18.3341 3.12969 18.3468 3.13223 18.3557C3.13604 18.3646 3.15 18.3696 3.16903 18.3696L3.19441 18.4446C3.17918 18.4573 3.1703 18.47 3.17411 18.4789C3.17792 18.489 3.19314 18.4941 3.21472 18.4941C3.21599 18.4979 3.21726 18.5017 3.2198 18.5043C3.15888 18.5729 3.1335 18.672 3.16523 18.7647L3.47741 19.6704C3.47741 19.6717 3.47868 19.6717 3.47868 19.6729C3.33401 19.7339 3.25787 19.899 3.3099 20.0502L3.9457 21.8985C4.00026 22.056 4.17286 22.1411 4.33149 22.0864L6.66401 21.2824C6.74142 21.2557 6.7998 21.2011 6.83407 21.1325L11.4242 19.5497L11.7618 19.4329L12.008 20.148C12.107 20.4338 12.4205 20.5875 12.7073 20.4885L16.0258 19.3439V20.82H14.6971C14.5296 20.82 14.3938 20.9572 14.3938 21.1236V21.5644C14.3938 21.732 14.5296 21.868 14.6971 21.868H16.267L12.4268 31.9221C12.4217 31.9349 12.4192 31.9476 12.4166 31.959L10.8912 35.9515H12.0245L15.673 26.4054L15.6667 26.4028L17.1896 22.4155V25.8579V29.219V35.9502H18.248V25.863H18.2467V22.4701L22.0018 32.3045C22.0107 32.3274 22.0234 32.3464 22.0386 32.3629L23.4117 35.9565H24.545L20.7518 26.0306L20.7391 26.0357L19.149 21.8718H20.7378C20.9054 21.8718 21.0411 21.7346 21.0411 21.5682V21.1274C21.0411 20.9597 20.9041 20.8238 20.7378 20.8238H19.4853V18.1524L20.102 17.9403L20.4307 17.8272L20.4929 17.8056L20.4904 17.7993L20.5843 18.0724C20.6922 18.3874 21.0386 18.5564 21.3533 18.4471L31.4157 14.978C31.4779 15.0238 31.5604 15.0403 31.639 15.0136L32.4017 14.7506C32.5274 14.7074 32.5946 14.569 32.5515 14.4432Z" fill="#5499D1"/>
</g>
<defs>
<clipPath id="clip0_1832_60894">
<rect width="113" height="36" fill="white"/>
</clipPath>
</defs>
</svg>
