<svg width="212" height="18" viewBox="0 0 212 18" fill="none" xmlns="http://www.w3.org/2000/svg">
<g clip-path="url(#clip0_1616_79959)">
<path d="M7.99967 2.66675L9.89498 7.06294L14.6663 7.50498L11.0663 10.664L12.1199 15.3334L7.99967 12.8896L3.87945 15.3334L4.93301 10.664L1.33301 7.50498L6.10437 7.06294L7.99967 2.66675Z" fill="#0867D6"/>
<path d="M7.99967 2.66675L9.89498 7.06294L14.6663 7.50498L11.0663 10.664L12.1199 15.3334L7.99967 12.8896L3.87945 15.3334L4.93301 10.664L1.33301 7.50498L6.10437 7.06294L7.99967 2.66675Z" fill="#EEEE36"/>
<path d="M7.99967 2.66675L9.89498 7.06294L14.6663 7.50498L11.0663 10.664L12.1199 15.3334L7.99967 12.8896L3.87945 15.3334L4.93301 10.664L1.33301 7.50498L6.10437 7.06294L7.99967 2.66675Z" fill="#F1DA09"/>
<path d="M7.99967 2.66675L9.89498 7.06294L14.6663 7.50498L11.0663 10.664L12.1199 15.3334L7.99967 12.8896L3.87945 15.3334L4.93301 10.664L1.33301 7.50498L6.10437 7.06294L7.99967 2.66675Z" stroke="#0867D6" stroke-width="2" stroke-linejoin="round"/>
<path d="M7.99967 2.66675L9.89498 7.06294L14.6663 7.50498L11.0663 10.664L12.1199 15.3334L7.99967 12.8896L3.87945 15.3334L4.93301 10.664L1.33301 7.50498L6.10437 7.06294L7.99967 2.66675Z" stroke="#EEEE36" stroke-width="2" stroke-linejoin="round"/>
<path d="M7.99967 2.66675L9.89498 7.06294L14.6663 7.50498L11.0663 10.664L12.1199 15.3334L7.99967 12.8896L3.87945 15.3334L4.93301 10.664L1.33301 7.50498L6.10437 7.06294L7.99967 2.66675Z" stroke="#F1DA09" stroke-width="2" stroke-linejoin="round"/>
</g>
<g clip-path="url(#clip1_1616_79959)">
<path d="M26.9997 2.66675L28.895 7.06294L33.6663 7.50498L30.0663 10.664L31.1199 15.3334L26.9997 12.8896L22.8794 15.3334L23.933 10.664L20.333 7.50498L25.1044 7.06294L26.9997 2.66675Z" fill="#0867D6"/>
<path d="M26.9997 2.66675L28.895 7.06294L33.6663 7.50498L30.0663 10.664L31.1199 15.3334L26.9997 12.8896L22.8794 15.3334L23.933 10.664L20.333 7.50498L25.1044 7.06294L26.9997 2.66675Z" fill="#EEEE36"/>
<path d="M26.9997 2.66675L28.895 7.06294L33.6663 7.50498L30.0663 10.664L31.1199 15.3334L26.9997 12.8896L22.8794 15.3334L23.933 10.664L20.333 7.50498L25.1044 7.06294L26.9997 2.66675Z" fill="#F1DA09"/>
<path d="M26.9997 2.66675L28.895 7.06294L33.6663 7.50498L30.0663 10.664L31.1199 15.3334L26.9997 12.8896L22.8794 15.3334L23.933 10.664L20.333 7.50498L25.1044 7.06294L26.9997 2.66675Z" stroke="#0867D6" stroke-width="2" stroke-linejoin="round"/>
<path d="M26.9997 2.66675L28.895 7.06294L33.6663 7.50498L30.0663 10.664L31.1199 15.3334L26.9997 12.8896L22.8794 15.3334L23.933 10.664L20.333 7.50498L25.1044 7.06294L26.9997 2.66675Z" stroke="#EEEE36" stroke-width="2" stroke-linejoin="round"/>
<path d="M26.9997 2.66675L28.895 7.06294L33.6663 7.50498L30.0663 10.664L31.1199 15.3334L26.9997 12.8896L22.8794 15.3334L23.933 10.664L20.333 7.50498L25.1044 7.06294L26.9997 2.66675Z" stroke="#F1DA09" stroke-width="2" stroke-linejoin="round"/>
</g>
<g clip-path="url(#clip2_1616_79959)">
<path d="M45.9997 2.66675L47.895 7.06294L52.6663 7.50498L49.0663 10.664L50.1199 15.3334L45.9997 12.8896L41.8794 15.3334L42.933 10.664L39.333 7.50498L44.1044 7.06294L45.9997 2.66675Z" fill="#0867D6"/>
<path d="M45.9997 2.66675L47.895 7.06294L52.6663 7.50498L49.0663 10.664L50.1199 15.3334L45.9997 12.8896L41.8794 15.3334L42.933 10.664L39.333 7.50498L44.1044 7.06294L45.9997 2.66675Z" fill="#EEEE36"/>
<path d="M45.9997 2.66675L47.895 7.06294L52.6663 7.50498L49.0663 10.664L50.1199 15.3334L45.9997 12.8896L41.8794 15.3334L42.933 10.664L39.333 7.50498L44.1044 7.06294L45.9997 2.66675Z" fill="#F1DA09"/>
<path d="M45.9997 2.66675L47.895 7.06294L52.6663 7.50498L49.0663 10.664L50.1199 15.3334L45.9997 12.8896L41.8794 15.3334L42.933 10.664L39.333 7.50498L44.1044 7.06294L45.9997 2.66675Z" stroke="#0867D6" stroke-width="2" stroke-linejoin="round"/>
<path d="M45.9997 2.66675L47.895 7.06294L52.6663 7.50498L49.0663 10.664L50.1199 15.3334L45.9997 12.8896L41.8794 15.3334L42.933 10.664L39.333 7.50498L44.1044 7.06294L45.9997 2.66675Z" stroke="#EEEE36" stroke-width="2" stroke-linejoin="round"/>
<path d="M45.9997 2.66675L47.895 7.06294L52.6663 7.50498L49.0663 10.664L50.1199 15.3334L45.9997 12.8896L41.8794 15.3334L42.933 10.664L39.333 7.50498L44.1044 7.06294L45.9997 2.66675Z" stroke="#F1DA09" stroke-width="2" stroke-linejoin="round"/>
</g>
<g clip-path="url(#clip3_1616_79959)">
<path d="M64.9997 2.66675L66.895 7.06294L71.6663 7.50498L68.0663 10.664L69.1199 15.3334L64.9997 12.8896L60.8794 15.3334L61.933 10.664L58.333 7.50498L63.1044 7.06294L64.9997 2.66675Z" fill="#0867D6"/>
<path d="M64.9997 2.66675L66.895 7.06294L71.6663 7.50498L68.0663 10.664L69.1199 15.3334L64.9997 12.8896L60.8794 15.3334L61.933 10.664L58.333 7.50498L63.1044 7.06294L64.9997 2.66675Z" fill="#EEEE36"/>
<path d="M64.9997 2.66675L66.895 7.06294L71.6663 7.50498L68.0663 10.664L69.1199 15.3334L64.9997 12.8896L60.8794 15.3334L61.933 10.664L58.333 7.50498L63.1044 7.06294L64.9997 2.66675Z" fill="#F1DA09"/>
<path d="M64.9997 2.66675L66.895 7.06294L71.6663 7.50498L68.0663 10.664L69.1199 15.3334L64.9997 12.8896L60.8794 15.3334L61.933 10.664L58.333 7.50498L63.1044 7.06294L64.9997 2.66675Z" stroke="#0867D6" stroke-width="2" stroke-linejoin="round"/>
<path d="M64.9997 2.66675L66.895 7.06294L71.6663 7.50498L68.0663 10.664L69.1199 15.3334L64.9997 12.8896L60.8794 15.3334L61.933 10.664L58.333 7.50498L63.1044 7.06294L64.9997 2.66675Z" stroke="#EEEE36" stroke-width="2" stroke-linejoin="round"/>
<path d="M64.9997 2.66675L66.895 7.06294L71.6663 7.50498L68.0663 10.664L69.1199 15.3334L64.9997 12.8896L60.8794 15.3334L61.933 10.664L58.333 7.50498L63.1044 7.06294L64.9997 2.66675Z" stroke="#F1DA09" stroke-width="2" stroke-linejoin="round"/>
</g>
<g clip-path="url(#clip4_1616_79959)">
<path d="M83.9997 2.66675L85.895 7.06294L90.6663 7.50498L87.0663 10.664L88.1199 15.3334L83.9997 12.8896L79.8794 15.3334L80.933 10.664L77.333 7.50498L82.1044 7.06294L83.9997 2.66675Z" fill="white" stroke="#D7D9DC" stroke-width="2" stroke-linejoin="round"/>
</g>
<path d="M102.28 10.598L106.62 4.2H108.328V10.598H109.56V11.802H108.328V14H107.012V11.802H102.28V10.598ZM107.012 10.598V5.67L103.722 10.598H107.012ZM111.666 14.112C111.377 14.112 111.139 14.0187 110.952 13.832C110.775 13.636 110.686 13.4027 110.686 13.132C110.686 12.8613 110.775 12.6327 110.952 12.446C111.139 12.25 111.377 12.152 111.666 12.152C111.955 12.152 112.189 12.25 112.366 12.446C112.553 12.6327 112.646 12.8613 112.646 13.132C112.646 13.4027 112.553 13.636 112.366 13.832C112.189 14.0187 111.955 14.112 111.666 14.112ZM117.686 14.112C117.182 14.112 116.72 14.0327 116.3 13.874C115.889 13.7153 115.535 13.468 115.236 13.132C114.947 12.796 114.723 12.3667 114.564 11.844C114.405 11.312 114.326 10.6727 114.326 9.926V9.114C114.326 8.19933 114.405 7.42467 114.564 6.79C114.732 6.146 114.965 5.628 115.264 5.236C115.572 4.83467 115.936 4.54533 116.356 4.368C116.776 4.18133 117.243 4.088 117.756 4.088C118.148 4.088 118.503 4.14867 118.82 4.27C119.137 4.382 119.417 4.54067 119.66 4.746C119.903 4.942 120.103 5.18 120.262 5.46C120.421 5.74 120.542 6.04333 120.626 6.37H119.24C119.137 6.09 118.969 5.852 118.736 5.656C118.503 5.45067 118.176 5.348 117.756 5.348C117.457 5.348 117.182 5.39933 116.93 5.502C116.678 5.59533 116.459 5.76333 116.272 6.006C116.095 6.23933 115.95 6.552 115.838 6.944C115.735 7.336 115.67 7.826 115.642 8.414C115.894 8.106 116.197 7.868 116.552 7.7C116.916 7.532 117.317 7.448 117.756 7.448C118.745 7.448 119.515 7.728 120.066 8.288C120.626 8.848 120.906 9.63667 120.906 10.654V10.906C120.906 11.3913 120.822 11.8347 120.654 12.236C120.495 12.628 120.271 12.964 119.982 13.244C119.693 13.524 119.352 13.7387 118.96 13.888C118.568 14.0373 118.143 14.112 117.686 14.112ZM117.672 8.708C117.056 8.708 116.571 8.876 116.216 9.212C115.871 9.548 115.698 10.0053 115.698 10.584V10.836C115.698 11.4987 115.885 12.0027 116.258 12.348C116.631 12.684 117.107 12.852 117.686 12.852C118.255 12.852 118.703 12.6793 119.03 12.334C119.366 11.9887 119.534 11.5127 119.534 10.906V10.654C119.534 10.038 119.366 9.562 119.03 9.226C118.694 8.88067 118.241 8.708 117.672 8.708ZM121.952 4.2H128.252V5.404L124.71 14H123.282L126.852 5.404H121.952V4.2Z" fill="#3A3F43"/>
<path d="M133.089 10.5C133.089 10.0147 133.121 9.55267 133.187 9.114C133.261 8.666 133.355 8.25067 133.467 7.868C133.588 7.476 133.723 7.11667 133.873 6.79C134.022 6.454 134.176 6.15067 134.335 5.88C134.699 5.24533 135.114 4.68533 135.581 4.2H137.149C136.645 4.68533 136.197 5.24533 135.805 5.88C135.637 6.15067 135.469 6.454 135.301 6.79C135.142 7.11667 134.997 7.476 134.867 7.868C134.745 8.25067 134.647 8.666 134.573 9.114C134.498 9.55267 134.461 10.0147 134.461 10.5C134.461 10.9947 134.498 11.4613 134.573 11.9C134.647 12.3387 134.745 12.754 134.867 13.146C134.997 13.5287 135.142 13.8833 135.301 14.21C135.469 14.546 135.637 14.8493 135.805 15.12C136.197 15.764 136.645 16.324 137.149 16.8H135.525C135.067 16.324 134.661 15.764 134.307 15.12C133.999 14.5787 133.719 13.9207 133.467 13.146C133.215 12.3713 133.089 11.4893 133.089 10.5ZM137.854 5.614L139.898 4.2H141.214V14H139.898V5.656L137.854 7.042V5.614ZM143.029 12.796L146.375 9.562C146.972 8.974 147.406 8.49333 147.677 8.12C147.957 7.73733 148.097 7.36867 148.097 7.014C148.097 6.51933 147.929 6.118 147.593 5.81C147.257 5.502 146.809 5.348 146.249 5.348C145.689 5.348 145.241 5.50667 144.905 5.824C144.569 6.132 144.401 6.54733 144.401 7.07H143.029C143.029 6.63133 143.103 6.23 143.253 5.866C143.411 5.502 143.631 5.18933 143.911 4.928C144.191 4.65733 144.527 4.452 144.919 4.312C145.32 4.16267 145.763 4.088 146.249 4.088C146.734 4.088 147.173 4.16267 147.565 4.312C147.966 4.452 148.307 4.65267 148.587 4.914C148.867 5.17533 149.081 5.488 149.231 5.852C149.389 6.20667 149.469 6.594 149.469 7.014C149.469 7.53667 149.287 8.064 148.923 8.596C148.559 9.128 148.031 9.716 147.341 10.36L144.765 12.796H149.469V14H143.029V12.796ZM157.516 14.112C157.021 14.112 156.573 14.0373 156.172 13.888C155.78 13.7293 155.444 13.51 155.164 13.23C154.884 12.9407 154.669 12.5907 154.52 12.18C154.371 11.76 154.296 11.2887 154.296 10.766V10.234C154.296 9.72067 154.371 9.25867 154.52 8.848C154.679 8.428 154.898 8.07333 155.178 7.784C155.458 7.49467 155.794 7.27533 156.186 7.126C156.587 6.96733 157.031 6.888 157.516 6.888C158.001 6.888 158.44 6.96733 158.832 7.126C159.233 7.27533 159.574 7.49467 159.854 7.784C160.134 8.064 160.349 8.414 160.498 8.834C160.657 9.24467 160.736 9.71133 160.736 10.234V10.766C160.736 11.2887 160.657 11.7553 160.498 12.166C160.349 12.5767 160.134 12.9267 159.854 13.216C159.574 13.5053 159.233 13.7293 158.832 13.888C158.44 14.0373 158.001 14.112 157.516 14.112ZM157.516 12.908C158.104 12.908 158.566 12.7307 158.902 12.376C159.247 12.012 159.42 11.4753 159.42 10.766V10.234C159.42 9.534 159.247 9.002 158.902 8.638C158.566 8.274 158.104 8.092 157.516 8.092C156.928 8.092 156.461 8.274 156.116 8.638C155.78 8.99267 155.612 9.52467 155.612 10.234V10.766C155.612 11.466 155.78 11.998 156.116 12.362C156.461 12.726 156.928 12.908 157.516 12.908ZM161.37 7H167.11V8.148H164.87V14H163.61V8.148H161.37V7ZM170.479 6.888C171.356 6.888 172.005 7.07467 172.425 7.448C172.854 7.82133 173.069 8.302 173.069 8.89C173.069 9.226 172.994 9.52933 172.845 9.8C172.696 10.0613 172.472 10.2713 172.173 10.43C172.556 10.598 172.836 10.822 173.013 11.102C173.19 11.3727 173.279 11.6853 173.279 12.04C173.279 12.6467 173.05 13.146 172.593 13.538C172.145 13.9207 171.44 14.112 170.479 14.112C169.508 14.112 168.794 13.9113 168.337 13.51C167.88 13.0993 167.614 12.5393 167.539 11.83H168.827C168.892 12.1847 169.046 12.46 169.289 12.656C169.532 12.8427 169.928 12.936 170.479 12.936C171.039 12.936 171.431 12.8473 171.655 12.67C171.879 12.4833 171.991 12.25 171.991 11.97C171.991 11.6713 171.879 11.438 171.655 11.27C171.431 11.0927 171.039 11.004 170.479 11.004H169.709V9.856H170.479C170.955 9.856 171.291 9.77667 171.487 9.618C171.683 9.45933 171.781 9.24 171.781 8.96C171.781 8.68933 171.683 8.47467 171.487 8.316C171.291 8.148 170.955 8.064 170.479 8.064C170.003 8.064 169.662 8.15267 169.457 8.33C169.252 8.498 169.112 8.73133 169.037 9.03H167.749C167.824 8.37667 168.076 7.85867 168.505 7.476C168.944 7.084 169.602 6.888 170.479 6.888ZM174.964 7H176.224V9.24H177.554C178.609 9.24 179.374 9.45467 179.85 9.884C180.326 10.304 180.564 10.8827 180.564 11.62C180.564 12.3667 180.326 12.95 179.85 13.37C179.374 13.79 178.609 14 177.554 14H174.964V7ZM181.544 7H182.804V14H181.544V7ZM176.224 10.388V12.852H177.624C178.24 12.852 178.669 12.7493 178.912 12.544C179.155 12.3293 179.276 12.0213 179.276 11.62C179.276 11.2187 179.155 10.9153 178.912 10.71C178.669 10.4953 178.24 10.388 177.624 10.388H176.224ZM184.904 7H187.564C188.506 7 189.183 7.17733 189.594 7.532C190.014 7.88667 190.224 8.358 190.224 8.946C190.224 9.23533 190.154 9.50133 190.014 9.744C189.874 9.98667 189.654 10.192 189.356 10.36C189.748 10.5187 190.037 10.7427 190.224 11.032C190.41 11.312 190.504 11.6247 190.504 11.97C190.504 12.6047 190.294 13.104 189.874 13.468C189.463 13.8227 188.786 14 187.844 14H184.904V7ZM186.164 10.976V12.852H187.844C188.348 12.852 188.698 12.7727 188.894 12.614C189.09 12.446 189.188 12.208 189.188 11.9C189.188 11.6013 189.09 11.3727 188.894 11.214C188.698 11.0553 188.348 10.976 187.844 10.976H186.164ZM186.164 8.148V9.884H187.564C188.077 9.884 188.427 9.80933 188.614 9.66C188.81 9.50133 188.908 9.28667 188.908 9.016C188.908 8.74533 188.81 8.53533 188.614 8.386C188.427 8.22733 188.077 8.148 187.564 8.148H186.164ZM194.977 14.112C194.482 14.112 194.034 14.0373 193.633 13.888C193.241 13.7293 192.905 13.51 192.625 13.23C192.345 12.9407 192.13 12.5907 191.981 12.18C191.832 11.76 191.757 11.2887 191.757 10.766V10.234C191.757 9.72067 191.832 9.25867 191.981 8.848C192.14 8.428 192.359 8.07333 192.639 7.784C192.919 7.49467 193.255 7.27533 193.647 7.126C194.048 6.96733 194.492 6.888 194.977 6.888C195.462 6.888 195.901 6.96733 196.293 7.126C196.694 7.27533 197.035 7.49467 197.315 7.784C197.595 8.064 197.81 8.414 197.959 8.834C198.118 9.24467 198.197 9.71133 198.197 10.234V10.766C198.197 11.2887 198.118 11.7553 197.959 12.166C197.81 12.5767 197.595 12.9267 197.315 13.216C197.035 13.5053 196.694 13.7293 196.293 13.888C195.901 14.0373 195.462 14.112 194.977 14.112ZM194.977 12.908C195.565 12.908 196.027 12.7307 196.363 12.376C196.708 12.012 196.881 11.4753 196.881 10.766V10.234C196.881 9.534 196.708 9.002 196.363 8.638C196.027 8.274 195.565 8.092 194.977 8.092C194.389 8.092 193.922 8.274 193.577 8.638C193.241 8.99267 193.073 9.52467 193.073 10.234V10.766C193.073 11.466 193.241 11.998 193.577 12.362C193.922 12.726 194.389 12.908 194.977 12.908ZM199.874 7H202.534C203.477 7 204.154 7.17733 204.564 7.532C204.984 7.88667 205.194 8.358 205.194 8.946C205.194 9.23533 205.124 9.50133 204.984 9.744C204.844 9.98667 204.625 10.192 204.326 10.36C204.718 10.5187 205.008 10.7427 205.194 11.032C205.381 11.312 205.474 11.6247 205.474 11.97C205.474 12.6047 205.264 13.104 204.844 13.468C204.434 13.8227 203.757 14 202.814 14H199.874V7ZM201.134 10.976V12.852H202.814C203.318 12.852 203.668 12.7727 203.864 12.614C204.06 12.446 204.158 12.208 204.158 11.9C204.158 11.6013 204.06 11.3727 203.864 11.214C203.668 11.0553 203.318 10.976 202.814 10.976H201.134ZM201.134 8.148V9.884H202.534C203.048 9.884 203.398 9.80933 203.584 9.66C203.78 9.50133 203.878 9.28667 203.878 9.016C203.878 8.74533 203.78 8.53533 203.584 8.386C203.398 8.22733 203.048 8.148 202.534 8.148H201.134ZM210.564 10.5C210.564 10.9853 210.526 11.452 210.452 11.9C210.386 12.3387 210.293 12.754 210.172 13.146C210.06 13.5287 209.929 13.8833 209.78 14.21C209.63 14.546 209.476 14.8493 209.318 15.12C208.954 15.7547 208.538 16.3147 208.072 16.8H206.504C207.008 16.3147 207.456 15.7547 207.848 15.12C208.016 14.8493 208.179 14.546 208.338 14.21C208.506 13.8833 208.65 13.5287 208.772 13.146C208.902 12.754 209.005 12.3387 209.08 11.9C209.154 11.452 209.192 10.9853 209.192 10.5C209.192 10.0053 209.154 9.53867 209.08 9.1C209.005 8.66133 208.902 8.25067 208.772 7.868C208.65 7.476 208.506 7.11667 208.338 6.79C208.179 6.454 208.016 6.15067 207.848 5.88C207.456 5.236 207.008 4.676 206.504 4.2H208.128C208.585 4.676 208.991 5.236 209.346 5.88C209.654 6.42133 209.934 7.07933 210.186 7.854C210.438 8.62867 210.564 9.51067 210.564 10.5Z" fill="#9A9C9E"/>
<defs>
<clipPath id="clip0_1616_79959">
<rect width="16" height="16" fill="white" transform="translate(0 1)"/>
</clipPath>
<clipPath id="clip1_1616_79959">
<rect width="16" height="16" fill="white" transform="translate(19 1)"/>
</clipPath>
<clipPath id="clip2_1616_79959">
<rect width="16" height="16" fill="white" transform="translate(38 1)"/>
</clipPath>
<clipPath id="clip3_1616_79959">
<rect width="16" height="16" fill="white" transform="translate(57 1)"/>
</clipPath>
<clipPath id="clip4_1616_79959">
<rect width="16" height="16" fill="white" transform="translate(76 1)"/>
</clipPath>
</defs>
</svg>
