<svg width="197" height="133" viewBox="0 0 197 133" fill="none" xmlns="http://www.w3.org/2000/svg">
<path d="M19.68 12.474H18.42V18H16.26V5.4H18.42V10.566H19.68L23.244 5.4H25.8L21.516 11.43L26.16 18H23.46L19.68 12.474ZM30.8309 18.162C29.4749 18.162 28.4129 17.778 27.6449 17.01C26.8889 16.242 26.5109 15.168 26.5109 13.788V13.212C26.5109 12.528 26.6069 11.916 26.7989 11.376C27.0029 10.836 27.2909 10.38 27.6629 10.008C28.0469 9.624 28.5029 9.336 29.0309 9.144C29.5589 8.94 30.1589 8.838 30.8309 8.838C32.1869 8.838 33.2429 9.222 33.9989 9.99C34.7669 10.758 35.1509 11.832 35.1509 13.212V13.788C35.1509 14.472 35.0489 15.084 34.8449 15.624C34.6529 16.164 34.3649 16.626 33.9809 17.01C33.6089 17.382 33.1529 17.67 32.6129 17.874C32.0849 18.066 31.4909 18.162 30.8309 18.162ZM30.8309 16.218C31.5149 16.218 32.0369 16.02 32.3969 15.624C32.7689 15.228 32.9549 14.616 32.9549 13.788V13.212C32.9549 12.396 32.7629 11.79 32.3789 11.394C32.0069 10.986 31.4909 10.782 30.8309 10.782C30.1469 10.782 29.6189 10.98 29.2469 11.376C28.8869 11.772 28.7069 12.384 28.7069 13.212V13.788C28.7069 14.604 28.8929 15.216 29.2649 15.624C29.6489 16.02 30.1709 16.218 30.8309 16.218ZM42.9593 14.328H39.0353V18H36.9473V9H39.0353V12.492H42.9593V9H45.0473V18H42.9593V14.328ZM46.4888 9H54.0488V10.836H51.3128V18H49.2248V10.836H46.4888V9ZM57.6565 18.162C56.6845 18.162 55.9465 17.922 55.4425 17.442C54.9385 16.962 54.6865 16.296 54.6865 15.444C54.6865 14.976 54.7585 14.556 54.9025 14.184C55.0585 13.8 55.2985 13.482 55.6225 13.23C55.9585 12.966 56.3845 12.768 56.9005 12.636C57.4285 12.492 58.0705 12.42 58.8265 12.42H60.3385V11.88C60.3385 11.448 60.2185 11.124 59.9785 10.908C59.7505 10.68 59.3665 10.566 58.8265 10.566C58.3225 10.566 57.9565 10.662 57.7285 10.854C57.5005 11.046 57.3625 11.298 57.3145 11.61H55.0465C55.0945 10.806 55.4185 10.146 56.0185 9.63C56.6305 9.102 57.5665 8.838 58.8265 8.838C60.0265 8.838 60.9265 9.114 61.5265 9.666C62.1265 10.218 62.4265 10.956 62.4265 11.88V18H60.7885L60.5725 16.758C60.2605 17.214 59.8525 17.562 59.3485 17.802C58.8565 18.042 58.2925 18.162 57.6565 18.162ZM58.0165 16.434C58.3525 16.434 58.6585 16.38 58.9345 16.272C59.2225 16.152 59.4685 15.996 59.6725 15.804C59.8765 15.6 60.0385 15.372 60.1585 15.12C60.2785 14.868 60.3385 14.598 60.3385 14.31V14.04H58.8265C58.1065 14.04 57.6025 14.16 57.3145 14.4C57.0265 14.64 56.8825 14.964 56.8825 15.372C56.8825 15.696 56.9785 15.954 57.1705 16.146C57.3745 16.338 57.6565 16.434 58.0165 16.434ZM67.656 14.238H66.756V18H64.668V9H66.756V12.402H67.656L69.816 9H72.228L69.384 13.248L72.588 18H70.068L67.656 14.238ZM72.9438 9H80.5038V10.836H77.7678V18H75.6798V10.836H72.9438V9ZM81.9473 9H84.0353V11.7H85.3673C86.7473 11.7 87.7493 11.982 88.3733 12.546C89.0093 13.11 89.3273 13.878 89.3273 14.85C89.3273 15.822 89.0093 16.59 88.3733 17.154C87.7493 17.718 86.7473 18 85.3673 18H81.9473V9ZM90.2993 9H92.3873V18H90.2993V9ZM84.0353 13.41V16.29H85.4573C86.0333 16.29 86.4533 16.164 86.7173 15.912C86.9933 15.66 87.1313 15.306 87.1313 14.85C87.1313 14.394 86.9933 14.04 86.7173 13.788C86.4533 13.536 86.0333 13.41 85.4573 13.41H84.0353Z" fill="#15191C"/>
<path d="M16.3 46.8H19.74V43.26H22.06V46.8H25.5V48.92H22.06V52.46H19.74V48.92H16.3V46.8ZM26.9969 41H36.1969V43.12L31.3769 55H28.6969L33.5769 43.12H26.9969V41ZM41.7063 49.94L47.5463 41H50.7063V49.94H52.3063V52.06H50.7063V55H48.3063V52.06H41.7063V49.94ZM48.3063 49.94V43.66L44.2863 49.94H48.3063ZM58.4148 55.18C57.8148 55.18 57.2682 55.0933 56.7748 54.92C56.2948 54.7467 55.8748 54.5067 55.5148 54.2C55.1548 53.88 54.8548 53.5133 54.6148 53.1C54.3748 52.6733 54.2082 52.2067 54.1148 51.7H56.5748C56.7215 52.0333 56.9482 52.3267 57.2548 52.58C57.5615 52.82 57.9815 52.94 58.5148 52.94C58.9015 52.94 59.2548 52.88 59.5748 52.76C59.8948 52.6267 60.1682 52.4133 60.3948 52.12C60.6215 51.8133 60.8015 51.4267 60.9348 50.96C61.0682 50.48 61.1482 49.8867 61.1748 49.18C60.8148 49.5667 60.3882 49.8667 59.8948 50.08C59.4015 50.28 58.8748 50.38 58.3148 50.38C56.8748 50.38 55.7482 49.9733 54.9348 49.16C54.1215 48.3333 53.7148 47.1867 53.7148 45.72V45.48C53.7148 44.8 53.8282 44.1733 54.0548 43.6C54.2815 43.0267 54.6015 42.5333 55.0148 42.12C55.4415 41.7067 55.9482 41.3867 56.5348 41.16C57.1348 40.9333 57.7948 40.82 58.5148 40.82C59.2748 40.82 59.9615 40.9467 60.5748 41.2C61.1882 41.44 61.7148 41.8133 62.1548 42.32C62.5948 42.8133 62.9282 43.44 63.1548 44.2C63.3948 44.96 63.5148 45.8533 63.5148 46.88V47.92C63.5148 49.24 63.3948 50.36 63.1548 51.28C62.9148 52.2 62.5682 52.9533 62.1148 53.54C61.6748 54.1133 61.1415 54.5333 60.5148 54.8C59.8882 55.0533 59.1882 55.18 58.4148 55.18ZM58.5148 48.14C59.3015 48.14 59.9082 47.9267 60.3348 47.5C60.7748 47.0733 60.9948 46.48 60.9948 45.72V45.48C60.9948 44.72 60.7748 44.1267 60.3348 43.7C59.9082 43.2733 59.3015 43.06 58.5148 43.06C57.8348 43.06 57.2815 43.2733 56.8548 43.7C56.4415 44.1267 56.2348 44.72 56.2348 45.48V45.72C56.2348 46.48 56.4415 47.0733 56.8548 47.5C57.2815 47.9267 57.8348 48.14 58.5148 48.14ZM66.3094 41H74.4094V43.12H68.4494L68.2094 46.24C68.8894 45.72 69.7227 45.46 70.7094 45.46C71.3894 45.46 72.0094 45.5733 72.5694 45.8C73.1427 46.0267 73.6294 46.3533 74.0294 46.78C74.4294 47.2067 74.7427 47.72 74.9694 48.32C75.196 48.92 75.3094 49.5867 75.3094 50.32C75.3094 51.0533 75.196 51.72 74.9694 52.32C74.7427 52.92 74.4094 53.4333 73.9694 53.86C73.5427 54.2733 73.016 54.6 72.3894 54.84C71.776 55.0667 71.0827 55.18 70.3094 55.18C69.6694 55.18 69.0694 55.1 68.5094 54.94C67.9494 54.7667 67.4494 54.52 67.0094 54.2C66.5827 53.88 66.2227 53.4933 65.9294 53.04C65.636 52.5733 65.4294 52.04 65.3094 51.44H67.8294C68.0294 51.9333 68.3427 52.3067 68.7694 52.56C69.2094 52.8133 69.7227 52.94 70.3094 52.94C71.0694 52.94 71.6694 52.7133 72.1094 52.26C72.5627 51.8067 72.7894 51.16 72.7894 50.32C72.7894 49.48 72.5627 48.8333 72.1094 48.38C71.6694 47.9267 71.0694 47.7 70.3094 47.7C69.7894 47.7 69.3294 47.8067 68.9294 48.02C68.5427 48.2333 68.2427 48.5 68.0294 48.82H65.7094L66.3094 41ZM81.618 52.88L86.138 48.54C86.578 48.1133 86.9513 47.74 87.258 47.42C87.5646 47.1 87.8046 46.8067 87.978 46.54C88.1646 46.2733 88.298 46.0267 88.378 45.8C88.458 45.5733 88.498 45.34 88.498 45.1C88.498 44.4867 88.3046 43.9933 87.918 43.62C87.5313 43.2467 86.998 43.06 86.318 43.06C85.638 43.06 85.1046 43.2533 84.718 43.64C84.3313 44.0267 84.138 44.58 84.138 45.3H81.618C81.618 44.62 81.7246 44.0067 81.938 43.46C82.1513 42.9 82.458 42.4267 82.858 42.04C83.2713 41.6533 83.7646 41.3533 84.338 41.14C84.9246 40.9267 85.5846 40.82 86.318 40.82C87.0513 40.82 87.7046 40.9267 88.278 41.14C88.8646 41.34 89.358 41.6333 89.758 42.02C90.1713 42.3933 90.4846 42.8467 90.698 43.38C90.9113 43.9 91.018 44.4733 91.018 45.1C91.018 45.8867 90.7646 46.66 90.258 47.42C89.7513 48.18 88.9646 49.0467 87.898 50.02L84.758 52.88H91.018V55H81.618V52.88ZM92.1141 42.88L94.9141 41H97.3141V55H94.9141V43.48L92.1141 45.34V42.88ZM100.606 41H108.706V43.12H102.746L102.506 46.24C103.186 45.72 104.02 45.46 105.006 45.46C105.686 45.46 106.306 45.5733 106.866 45.8C107.44 46.0267 107.926 46.3533 108.326 46.78C108.726 47.2067 109.04 47.72 109.266 48.32C109.493 48.92 109.606 49.5867 109.606 50.32C109.606 51.0533 109.493 51.72 109.266 52.32C109.04 52.92 108.706 53.4333 108.266 53.86C107.84 54.2733 107.313 54.6 106.686 54.84C106.073 55.0667 105.38 55.18 104.606 55.18C103.966 55.18 103.366 55.1 102.806 54.94C102.246 54.7667 101.746 54.52 101.306 54.2C100.88 53.88 100.52 53.4933 100.226 53.04C99.9329 52.5733 99.7263 52.04 99.6063 51.44H102.126C102.326 51.9333 102.64 52.3067 103.066 52.56C103.506 52.8133 104.02 52.94 104.606 52.94C105.366 52.94 105.966 52.7133 106.406 52.26C106.86 51.8067 107.086 51.16 107.086 50.32C107.086 49.48 106.86 48.8333 106.406 48.38C105.966 47.9267 105.366 47.7 104.606 47.7C104.086 47.7 103.626 47.8067 103.226 48.02C102.84 48.2333 102.54 48.5 102.326 48.82H100.006L100.606 41ZM121.315 55.18C120.542 55.18 119.842 55.06 119.215 54.82C118.602 54.5667 118.082 54.1733 117.655 53.64C117.228 53.1067 116.895 52.42 116.655 51.58C116.428 50.74 116.315 49.72 116.315 48.52V47.48C116.315 46.2933 116.428 45.28 116.655 44.44C116.895 43.6 117.228 42.9133 117.655 42.38C118.095 41.8333 118.622 41.44 119.235 41.2C119.848 40.9467 120.542 40.82 121.315 40.82C122.088 40.82 122.782 40.9467 123.395 41.2C124.022 41.44 124.548 41.8267 124.975 42.36C125.415 42.8933 125.748 43.58 125.975 44.42C126.202 45.26 126.315 46.28 126.315 47.48V48.52C126.315 49.7067 126.195 50.72 125.955 51.56C125.728 52.4 125.395 53.0933 124.955 53.64C124.528 54.1733 124.008 54.5667 123.395 54.82C122.782 55.06 122.088 55.18 121.315 55.18ZM121.315 52.94C121.702 52.94 122.048 52.8733 122.355 52.74C122.662 52.6067 122.922 52.3733 123.135 52.04C123.348 51.7067 123.508 51.26 123.615 50.7C123.735 50.1267 123.795 49.4 123.795 48.52V47.48C123.795 46.6133 123.735 45.9 123.615 45.34C123.495 44.7667 123.328 44.3133 123.115 43.98C122.902 43.6333 122.642 43.3933 122.335 43.26C122.028 43.1267 121.688 43.06 121.315 43.06C120.928 43.06 120.582 43.1267 120.275 43.26C119.968 43.3933 119.708 43.6267 119.495 43.96C119.282 44.2933 119.115 44.7467 118.995 45.32C118.888 45.88 118.835 46.6 118.835 47.48V48.52C118.835 49.3867 118.888 50.1067 118.995 50.68C119.115 51.24 119.282 51.6933 119.495 52.04C119.722 52.3733 119.982 52.6067 120.275 52.74C120.582 52.8733 120.928 52.94 121.315 52.94ZM127.622 41H136.822V43.12L132.002 55H129.322L134.202 43.12H127.622V41ZM137.331 49.94L143.171 41H146.331V49.94H147.931V52.06H146.331V55H143.931V52.06H137.331V49.94ZM143.931 49.94V43.66L139.911 49.94H143.931ZM148.64 49.94L154.48 41H157.64V49.94H159.24V52.06H157.64V55H155.24V52.06H148.64V49.94ZM155.24 49.94V43.66L151.22 49.94H155.24Z" fill="#15191C"/>
<g filter="url(#filter0_d_1769_48070)">
<rect x="15" y="72" width="36" height="36" rx="5" fill="white"/>
</g>
<path d="M33.8932 97C27.06 97 23.1624 92.1201 23 84H26.4229C26.5353 89.96 29.0587 92.4845 31.0575 93.005V84H34.2805V89.1401C36.2542 88.9189 38.3279 86.5766 39.0275 84H42.2505C41.9869 85.3363 41.4614 86.6015 40.7069 87.7166C39.9524 88.8317 38.9852 89.7726 37.8657 90.4805C39.1153 91.1273 40.2191 92.0428 41.1041 93.1666C41.9891 94.2904 42.6353 95.597 43 97H39.4522C39.1248 95.7814 38.4594 94.6905 37.5394 93.8641C36.6194 93.0376 35.4858 92.5125 34.2805 92.3544V97H33.8932Z" fill="#0177FF"/>
<g filter="url(#filter1_d_1769_48070)">
<rect x="57" y="72" width="36" height="36" rx="5" fill="white"/>
</g>
<path d="M65.302 89.4425C67.348 88.3538 69.632 87.4452 71.766 86.532C75.4374 85.0361 79.1233 83.5662 82.8464 82.1978C83.5708 81.9646 84.8724 81.7366 85 82.7735C84.9301 84.2413 84.6426 85.7005 84.4454 87.1597C83.945 90.3686 83.3665 93.5665 82.8024 96.7649C82.608 97.8302 81.2264 98.3817 80.3424 97.6999C78.2178 96.3138 76.0769 94.941 73.9795 93.5227C73.2925 92.8483 73.9296 91.8799 74.5432 91.3984C76.293 89.7326 78.1488 88.3174 79.8071 86.5656C80.2545 85.5221 78.9327 86.4015 78.4967 86.671C76.1012 88.2656 73.7643 89.9575 71.2386 91.3589C69.9485 92.0449 68.4449 91.4587 67.1554 91.0759C65.9992 90.6135 64.305 90.1475 65.302 89.4425Z" fill="#0867D6"/>
<path d="M65.302 89.4425C67.348 88.3538 69.632 87.4452 71.766 86.532C75.4374 85.0361 79.1233 83.5662 82.8464 82.1978C83.5708 81.9646 84.8724 81.7366 85 82.7735C84.9301 84.2413 84.6426 85.7005 84.4454 87.1597C83.945 90.3686 83.3665 93.5665 82.8024 96.7649C82.608 97.8302 81.2264 98.3817 80.3424 97.6999C78.2178 96.3138 76.0769 94.941 73.9795 93.5227C73.2925 92.8483 73.9296 91.8799 74.5432 91.3984C76.293 89.7326 78.1488 88.3174 79.8071 86.5656C80.2545 85.5221 78.9327 86.4015 78.4967 86.671C76.1012 88.2656 73.7643 89.9575 71.2386 91.3589C69.9485 92.0449 68.4449 91.4587 67.1554 91.0759C65.9992 90.6135 64.305 90.1475 65.302 89.4425Z" fill="#0696E7"/>
<path d="M65.302 89.4425C67.348 88.3538 69.632 87.4452 71.766 86.532C75.4374 85.0361 79.1233 83.5662 82.8464 82.1978C83.5708 81.9646 84.8724 81.7366 85 82.7735C84.9301 84.2413 84.6426 85.7005 84.4454 87.1597C83.945 90.3686 83.3665 93.5665 82.8024 96.7649C82.608 97.8302 81.2264 98.3817 80.3424 97.6999C78.2178 96.3138 76.0769 94.941 73.9795 93.5227C73.2925 92.8483 73.9296 91.8799 74.5432 91.3984C76.293 89.7326 78.1488 88.3174 79.8071 86.5656C80.2545 85.5221 78.9327 86.4015 78.4967 86.671C76.1012 88.2656 73.7643 89.9575 71.2386 91.3589C69.9485 92.0449 68.4449 91.4587 67.1554 91.0759C65.9992 90.6135 64.305 90.1475 65.302 89.4425Z" fill="#419FD9"/>
<g filter="url(#filter2_d_1769_48070)">
<rect x="99" y="72" width="36" height="36" rx="5" fill="white"/>
</g>
<path d="M121.222 87.9891C121.151 87.4106 120.973 86.9563 120.657 86.5539C120.247 86.0358 119.723 85.7256 118.947 85.5415C118.442 85.4188 118.237 85.4329 118.055 85.6C117.884 85.7564 117.851 86.0702 117.981 86.2733C118.073 86.4208 118.178 86.4736 118.472 86.5313C118.863 86.6032 119.133 86.6966 119.379 86.8372C119.901 87.1385 120.144 87.6101 120.17 88.3735C120.182 88.7319 120.213 88.8421 120.339 88.9692C120.571 89.2016 120.984 89.1564 121.159 88.8783C121.223 88.7735 121.233 88.7279 121.24 88.4845C121.244 88.3338 121.238 88.1095 121.222 87.9891Z" fill="#0867D6"/>
<path d="M121.222 87.9891C121.151 87.4106 120.973 86.9563 120.657 86.5539C120.247 86.0358 119.723 85.7256 118.947 85.5415C118.442 85.4188 118.237 85.4329 118.055 85.6C117.884 85.7564 117.851 86.0702 117.981 86.2733C118.073 86.4208 118.178 86.4736 118.472 86.5313C118.863 86.6032 119.133 86.6966 119.379 86.8372C119.901 87.1385 120.144 87.6101 120.17 88.3735C120.182 88.7319 120.213 88.8421 120.339 88.9692C120.571 89.2016 120.984 89.1564 121.159 88.8783C121.223 88.7735 121.233 88.7279 121.24 88.4845C121.244 88.3338 121.238 88.1095 121.222 87.9891Z" fill="#EEEE36"/>
<path d="M121.222 87.9891C121.151 87.4106 120.973 86.9563 120.657 86.5539C120.247 86.0358 119.723 85.7256 118.947 85.5415C118.442 85.4188 118.237 85.4329 118.055 85.6C117.884 85.7564 117.851 86.0702 117.981 86.2733C118.073 86.4208 118.178 86.4736 118.472 86.5313C118.863 86.6032 119.133 86.6966 119.379 86.8372C119.901 87.1385 120.144 87.6101 120.17 88.3735C120.182 88.7319 120.213 88.8421 120.339 88.9692C120.571 89.2016 120.984 89.1564 121.159 88.8783C121.223 88.7735 121.233 88.7279 121.24 88.4845C121.244 88.3338 121.238 88.1095 121.222 87.9891Z" fill="#7F4DA0"/>
<path d="M123.267 88.6409C123.164 86.8684 122.47 85.4424 121.23 84.439C120.531 83.8753 119.686 83.4876 118.759 83.2991C118.42 83.2316 117.795 83.177 117.688 83.2082C117.587 83.2372 117.444 83.3467 117.38 83.4457C117.313 83.5531 117.298 83.7929 117.355 83.9315C117.448 84.1634 117.621 84.2453 118.104 84.2876C118.85 84.3528 119.619 84.6148 120.2 85.0026C120.863 85.4441 121.391 86.048 121.732 86.7576C122.027 87.3674 122.208 88.246 122.203 89.0329C122.201 89.3175 122.245 89.4782 122.359 89.5957C122.532 89.7764 122.784 89.8159 123.006 89.6959C123.253 89.5664 123.31 89.339 123.267 88.6409Z" fill="#0867D6"/>
<path d="M123.267 88.6409C123.164 86.8684 122.47 85.4424 121.23 84.439C120.531 83.8753 119.686 83.4876 118.759 83.2991C118.42 83.2316 117.795 83.177 117.688 83.2082C117.587 83.2372 117.444 83.3467 117.38 83.4457C117.313 83.5531 117.298 83.7929 117.355 83.9315C117.448 84.1634 117.621 84.2453 118.104 84.2876C118.85 84.3528 119.619 84.6148 120.2 85.0026C120.863 85.4441 121.391 86.048 121.732 86.7576C122.027 87.3674 122.208 88.246 122.203 89.0329C122.201 89.3175 122.245 89.4782 122.359 89.5957C122.532 89.7764 122.784 89.8159 123.006 89.6959C123.253 89.5664 123.31 89.339 123.267 88.6409Z" fill="#EEEE36"/>
<path d="M123.267 88.6409C123.164 86.8684 122.47 85.4424 121.23 84.439C120.531 83.8753 119.686 83.4876 118.759 83.2991C118.42 83.2316 117.795 83.177 117.688 83.2082C117.587 83.2372 117.444 83.3467 117.38 83.4457C117.313 83.5531 117.298 83.7929 117.355 83.9315C117.448 84.1634 117.621 84.2453 118.104 84.2876C118.85 84.3528 119.619 84.6148 120.2 85.0026C120.863 85.4441 121.391 86.048 121.732 86.7576C122.027 87.3674 122.208 88.246 122.203 89.0329C122.201 89.3175 122.245 89.4782 122.359 89.5957C122.532 89.7764 122.784 89.8159 123.006 89.6959C123.253 89.5664 123.31 89.339 123.267 88.6409Z" fill="#7F4DA0"/>
<path d="M125.528 95.4665C125.493 95.3652 125.413 95.2089 125.355 95.1192C124.991 94.5694 123.034 93.0384 122.058 92.5377C121.5 92.2512 121.087 92.1557 120.78 92.2454C120.451 92.3381 120.278 92.4914 119.726 93.1773C119.503 93.4523 119.275 93.7098 119.214 93.7503C119.064 93.8545 118.769 93.9385 118.561 93.9385C118.078 93.9355 117.203 93.623 116.53 93.212C116.007 92.8937 115.336 92.3236 114.822 91.7592C114.215 91.0965 113.802 90.5119 113.475 89.852C113.053 89.0041 112.946 88.486 113.123 88.1069C113.166 88.0114 113.224 87.9101 113.25 87.8782C113.276 87.8493 113.547 87.6265 113.848 87.3834C114.437 86.9145 114.533 86.8075 114.643 86.4862C114.781 86.0781 114.744 85.6614 114.53 85.2418C114.365 84.9234 113.935 84.2288 113.623 83.7803C113.209 83.1899 112.181 81.9281 111.975 81.7573C111.606 81.4563 111.132 81.4042 110.609 81.6068C110.057 81.821 109.022 82.6545 108.58 83.2362C108.181 83.7629 108.028 84.1362 108.005 84.6282C107.985 85.0334 108.019 85.2012 108.233 85.7193C109.906 89.7826 112.403 93.0268 115.833 95.6026C117.625 96.9483 119.483 97.9728 121.41 98.6732C122.534 99.0812 123.023 99.1015 123.598 98.7658C123.84 98.6211 124.442 98.0046 124.777 97.5561C125.332 96.8094 125.537 96.465 125.595 96.1901C125.635 96.0019 125.603 95.6749 125.528 95.4665Z" fill="#0867D6"/>
<path d="M125.528 95.4665C125.493 95.3652 125.413 95.2089 125.355 95.1192C124.991 94.5694 123.034 93.0384 122.058 92.5377C121.5 92.2512 121.087 92.1557 120.78 92.2454C120.451 92.3381 120.278 92.4914 119.726 93.1773C119.503 93.4523 119.275 93.7098 119.214 93.7503C119.064 93.8545 118.769 93.9385 118.561 93.9385C118.078 93.9355 117.203 93.623 116.53 93.212C116.007 92.8937 115.336 92.3236 114.822 91.7592C114.215 91.0965 113.802 90.5119 113.475 89.852C113.053 89.0041 112.946 88.486 113.123 88.1069C113.166 88.0114 113.224 87.9101 113.25 87.8782C113.276 87.8493 113.547 87.6265 113.848 87.3834C114.437 86.9145 114.533 86.8075 114.643 86.4862C114.781 86.0781 114.744 85.6614 114.53 85.2418C114.365 84.9234 113.935 84.2288 113.623 83.7803C113.209 83.1899 112.181 81.9281 111.975 81.7573C111.606 81.4563 111.132 81.4042 110.609 81.6068C110.057 81.821 109.022 82.6545 108.58 83.2362C108.181 83.7629 108.028 84.1362 108.005 84.6282C107.985 85.0334 108.019 85.2012 108.233 85.7193C109.906 89.7826 112.403 93.0268 115.833 95.6026C117.625 96.9483 119.483 97.9728 121.41 98.6732C122.534 99.0812 123.023 99.1015 123.598 98.7658C123.84 98.6211 124.442 98.0046 124.777 97.5561C125.332 96.8094 125.537 96.465 125.595 96.1901C125.635 96.0019 125.603 95.6749 125.528 95.4665Z" fill="#EEEE36"/>
<path d="M125.528 95.4665C125.493 95.3652 125.413 95.2089 125.355 95.1192C124.991 94.5694 123.034 93.0384 122.058 92.5377C121.5 92.2512 121.087 92.1557 120.78 92.2454C120.451 92.3381 120.278 92.4914 119.726 93.1773C119.503 93.4523 119.275 93.7098 119.214 93.7503C119.064 93.8545 118.769 93.9385 118.561 93.9385C118.078 93.9355 117.203 93.623 116.53 93.212C116.007 92.8937 115.336 92.3236 114.822 91.7592C114.215 91.0965 113.802 90.5119 113.475 89.852C113.053 89.0041 112.946 88.486 113.123 88.1069C113.166 88.0114 113.224 87.9101 113.25 87.8782C113.276 87.8493 113.547 87.6265 113.848 87.3834C114.437 86.9145 114.533 86.8075 114.643 86.4862C114.781 86.0781 114.744 85.6614 114.53 85.2418C114.365 84.9234 113.935 84.2288 113.623 83.7803C113.209 83.1899 112.181 81.9281 111.975 81.7573C111.606 81.4563 111.132 81.4042 110.609 81.6068C110.057 81.821 109.022 82.6545 108.58 83.2362C108.181 83.7629 108.028 84.1362 108.005 84.6282C107.985 85.0334 108.019 85.2012 108.233 85.7193C109.906 89.7826 112.403 93.0268 115.833 95.6026C117.625 96.9483 119.483 97.9728 121.41 98.6732C122.534 99.0812 123.023 99.1015 123.598 98.7658C123.84 98.6211 124.442 98.0046 124.777 97.5561C125.332 96.8094 125.537 96.465 125.595 96.1901C125.635 96.0019 125.603 95.6749 125.528 95.4665Z" fill="#7F4DA0"/>
<path d="M125.346 89.0475C125.309 88.0448 125.14 87.2225 124.788 86.3056C124.441 85.4037 124.089 84.8151 123.425 84.0191C122.797 83.2727 122.309 82.8466 121.536 82.3722C120.456 81.7112 119.143 81.2738 117.671 81.0899C117.169 81.0256 117.055 81.0302 116.901 81.133C116.603 81.3276 116.607 81.8132 116.906 82.0049C117.005 82.0659 117.093 82.0881 117.495 82.1407C118.111 82.2237 118.508 82.3019 118.978 82.4302C120.822 82.9343 122.24 83.9648 123.188 85.4946C123.982 86.7696 124.311 88.0447 124.265 89.6733C124.248 90.2238 124.26 90.3207 124.344 90.453C124.505 90.6996 124.93 90.7483 125.149 90.5437C125.284 90.4191 125.31 90.3254 125.336 89.8542C125.349 89.6084 125.352 89.2455 125.346 89.0475Z" fill="#0867D6"/>
<path d="M125.346 89.0475C125.309 88.0448 125.14 87.2225 124.788 86.3056C124.441 85.4037 124.089 84.8151 123.425 84.0191C122.797 83.2727 122.309 82.8466 121.536 82.3722C120.456 81.7112 119.143 81.2738 117.671 81.0899C117.169 81.0256 117.055 81.0302 116.901 81.133C116.603 81.3276 116.607 81.8132 116.906 82.0049C117.005 82.0659 117.093 82.0881 117.495 82.1407C118.111 82.2237 118.508 82.3019 118.978 82.4302C120.822 82.9343 122.24 83.9648 123.188 85.4946C123.982 86.7696 124.311 88.0447 124.265 89.6733C124.248 90.2238 124.26 90.3207 124.344 90.453C124.505 90.6996 124.93 90.7483 125.149 90.5437C125.284 90.4191 125.31 90.3254 125.336 89.8542C125.349 89.6084 125.352 89.2455 125.346 89.0475Z" fill="#EEEE36"/>
<path d="M125.346 89.0475C125.309 88.0448 125.14 87.2225 124.788 86.3056C124.441 85.4037 124.089 84.8151 123.425 84.0191C122.797 83.2727 122.309 82.8466 121.536 82.3722C120.456 81.7112 119.143 81.2738 117.671 81.0899C117.169 81.0256 117.055 81.0302 116.901 81.133C116.603 81.3276 116.607 81.8132 116.906 82.0049C117.005 82.0659 117.093 82.0881 117.495 82.1407C118.111 82.2237 118.508 82.3019 118.978 82.4302C120.822 82.9343 122.24 83.9648 123.188 85.4946C123.982 86.7696 124.311 88.0447 124.265 89.6733C124.248 90.2238 124.26 90.3207 124.344 90.453C124.505 90.6996 124.93 90.7483 125.149 90.5437C125.284 90.4191 125.31 90.3254 125.336 89.8542C125.349 89.6084 125.352 89.2455 125.346 89.0475Z" fill="#7F4DA0"/>
<g filter="url(#filter3_d_1769_48070)">
<rect x="141" y="72" width="36" height="36" rx="5" fill="white"/>
</g>
<path fill-rule="evenodd" clip-rule="evenodd" d="M159.544 99.9197H159.54C157.79 99.9191 156.07 99.48 154.543 98.647L149 100.101L150.483 94.6828C149.568 93.097 149.087 91.2983 149.088 89.4554C149.09 83.6904 153.781 79 159.544 79C162.341 79.0012 164.966 80.0901 166.94 82.0665C168.915 84.0429 170.001 86.6699 170 89.4637C169.998 95.2275 165.309 99.9173 159.544 99.9197ZM154.8 96.7538L155.117 96.9422C156.451 97.734 157.981 98.153 159.541 98.1536H159.544C164.334 98.1536 168.233 94.2548 168.235 89.4628C168.236 87.1406 167.332 84.9572 165.692 83.3145C164.051 81.6717 161.869 80.7666 159.547 80.7658C154.754 80.7658 150.855 84.6641 150.853 89.4558C150.852 91.0979 151.312 92.6972 152.182 94.0808L152.389 94.4097L151.511 97.6167L154.8 96.7538ZM164.455 91.7149C164.637 91.803 164.76 91.8625 164.813 91.9502C164.878 92.0591 164.878 92.5822 164.66 93.1926C164.442 93.8029 163.399 94.3598 162.897 94.4348C162.447 94.5021 161.877 94.5302 161.251 94.3313C160.872 94.2109 160.385 94.0502 159.762 93.781C157.312 92.7234 155.657 90.3495 155.344 89.9008C155.322 89.8694 155.307 89.8474 155.299 89.836L155.296 89.8332C155.158 89.6487 154.232 88.4126 154.232 87.1333C154.232 85.9299 154.823 85.2991 155.095 85.0087C155.114 84.9889 155.131 84.9706 155.146 84.9538C155.386 84.6922 155.669 84.6268 155.843 84.6268C156.017 84.6268 156.191 84.6284 156.344 84.6361C156.362 84.637 156.382 84.6369 156.402 84.6368C156.554 84.6359 156.744 84.6348 156.931 85.0846C157.003 85.2577 157.109 85.5143 157.22 85.7849C157.445 86.3323 157.693 86.937 157.737 87.0245C157.802 87.1553 157.846 87.3078 157.759 87.4822C157.746 87.5084 157.734 87.533 157.722 87.5566C157.657 87.6902 157.609 87.7884 157.498 87.918C157.454 87.969 157.409 88.0239 157.364 88.0789C157.274 88.1883 157.184 88.2978 157.106 88.3758C156.975 88.506 156.839 88.6474 156.991 88.9089C157.143 89.1705 157.668 90.026 158.444 90.7188C159.279 91.4635 160.005 91.7783 160.373 91.9378C160.445 91.969 160.503 91.9942 160.546 92.0156C160.807 92.1464 160.959 92.1245 161.111 91.9502C161.264 91.7758 161.765 91.1873 161.939 90.9258C162.113 90.6643 162.287 90.7078 162.527 90.795C162.766 90.8823 164.051 91.5142 164.312 91.645C164.363 91.6705 164.411 91.6936 164.455 91.7149Z" fill="#0867D6"/>
<path fill-rule="evenodd" clip-rule="evenodd" d="M159.544 99.9197H159.54C157.79 99.9191 156.07 99.48 154.543 98.647L149 100.101L150.483 94.6828C149.568 93.097 149.087 91.2983 149.088 89.4554C149.09 83.6904 153.781 79 159.544 79C162.341 79.0012 164.966 80.0901 166.94 82.0665C168.915 84.0429 170.001 86.6699 170 89.4637C169.998 95.2275 165.309 99.9173 159.544 99.9197ZM154.8 96.7538L155.117 96.9422C156.451 97.734 157.981 98.153 159.541 98.1536H159.544C164.334 98.1536 168.233 94.2548 168.235 89.4628C168.236 87.1406 167.332 84.9572 165.692 83.3145C164.051 81.6717 161.869 80.7666 159.547 80.7658C154.754 80.7658 150.855 84.6641 150.853 89.4558C150.852 91.0979 151.312 92.6972 152.182 94.0808L152.389 94.4097L151.511 97.6167L154.8 96.7538ZM164.455 91.7149C164.637 91.803 164.76 91.8625 164.813 91.9502C164.878 92.0591 164.878 92.5822 164.66 93.1926C164.442 93.8029 163.399 94.3598 162.897 94.4348C162.447 94.5021 161.877 94.5302 161.251 94.3313C160.872 94.2109 160.385 94.0502 159.762 93.781C157.312 92.7234 155.657 90.3495 155.344 89.9008C155.322 89.8694 155.307 89.8474 155.299 89.836L155.296 89.8332C155.158 89.6487 154.232 88.4126 154.232 87.1333C154.232 85.9299 154.823 85.2991 155.095 85.0087C155.114 84.9889 155.131 84.9706 155.146 84.9538C155.386 84.6922 155.669 84.6268 155.843 84.6268C156.017 84.6268 156.191 84.6284 156.344 84.6361C156.362 84.637 156.382 84.6369 156.402 84.6368C156.554 84.6359 156.744 84.6348 156.931 85.0846C157.003 85.2577 157.109 85.5143 157.22 85.7849C157.445 86.3323 157.693 86.937 157.737 87.0245C157.802 87.1553 157.846 87.3078 157.759 87.4822C157.746 87.5084 157.734 87.533 157.722 87.5566C157.657 87.6902 157.609 87.7884 157.498 87.918C157.454 87.969 157.409 88.0239 157.364 88.0789C157.274 88.1883 157.184 88.2978 157.106 88.3758C156.975 88.506 156.839 88.6474 156.991 88.9089C157.143 89.1705 157.668 90.026 158.444 90.7188C159.279 91.4635 160.005 91.7783 160.373 91.9378C160.445 91.969 160.503 91.9942 160.546 92.0156C160.807 92.1464 160.959 92.1245 161.111 91.9502C161.264 91.7758 161.765 91.1873 161.939 90.9258C162.113 90.6643 162.287 90.7078 162.527 90.795C162.766 90.8823 164.051 91.5142 164.312 91.645C164.363 91.6705 164.411 91.6936 164.455 91.7149Z" fill="#0696E7"/>
<path fill-rule="evenodd" clip-rule="evenodd" d="M159.544 99.9197H159.54C157.79 99.9191 156.07 99.48 154.543 98.647L149 100.101L150.483 94.6828C149.568 93.097 149.087 91.2983 149.088 89.4554C149.09 83.6904 153.781 79 159.544 79C162.341 79.0012 164.966 80.0901 166.94 82.0665C168.915 84.0429 170.001 86.6699 170 89.4637C169.998 95.2275 165.309 99.9173 159.544 99.9197ZM154.8 96.7538L155.117 96.9422C156.451 97.734 157.981 98.153 159.541 98.1536H159.544C164.334 98.1536 168.233 94.2548 168.235 89.4628C168.236 87.1406 167.332 84.9572 165.692 83.3145C164.051 81.6717 161.869 80.7666 159.547 80.7658C154.754 80.7658 150.855 84.6641 150.853 89.4558C150.852 91.0979 151.312 92.6972 152.182 94.0808L152.389 94.4097L151.511 97.6167L154.8 96.7538ZM164.455 91.7149C164.637 91.803 164.76 91.8625 164.813 91.9502C164.878 92.0591 164.878 92.5822 164.66 93.1926C164.442 93.8029 163.399 94.3598 162.897 94.4348C162.447 94.5021 161.877 94.5302 161.251 94.3313C160.872 94.2109 160.385 94.0502 159.762 93.781C157.312 92.7234 155.657 90.3495 155.344 89.9008C155.322 89.8694 155.307 89.8474 155.299 89.836L155.296 89.8332C155.158 89.6487 154.232 88.4126 154.232 87.1333C154.232 85.9299 154.823 85.2991 155.095 85.0087C155.114 84.9889 155.131 84.9706 155.146 84.9538C155.386 84.6922 155.669 84.6268 155.843 84.6268C156.017 84.6268 156.191 84.6284 156.344 84.6361C156.362 84.637 156.382 84.6369 156.402 84.6368C156.554 84.6359 156.744 84.6348 156.931 85.0846C157.003 85.2577 157.109 85.5143 157.22 85.7849C157.445 86.3323 157.693 86.937 157.737 87.0245C157.802 87.1553 157.846 87.3078 157.759 87.4822C157.746 87.5084 157.734 87.533 157.722 87.5566C157.657 87.6902 157.609 87.7884 157.498 87.918C157.454 87.969 157.409 88.0239 157.364 88.0789C157.274 88.1883 157.184 88.2978 157.106 88.3758C156.975 88.506 156.839 88.6474 156.991 88.9089C157.143 89.1705 157.668 90.026 158.444 90.7188C159.279 91.4635 160.005 91.7783 160.373 91.9378C160.445 91.969 160.503 91.9942 160.546 92.0156C160.807 92.1464 160.959 92.1245 161.111 91.9502C161.264 91.7758 161.765 91.1873 161.939 90.9258C162.113 90.6643 162.287 90.7078 162.527 90.795C162.766 90.8823 164.051 91.5142 164.312 91.645C164.363 91.6705 164.411 91.6936 164.455 91.7149Z" fill="#25D366"/>
<defs>
<filter id="filter0_d_1769_48070" x="-5" y="57" width="76" height="76" filterUnits="userSpaceOnUse" color-interpolation-filters="sRGB">
<feFlood flood-opacity="0" result="BackgroundImageFix"/>
<feColorMatrix in="SourceAlpha" type="matrix" values="0 0 0 0 0 0 0 0 0 0 0 0 0 0 0 0 0 0 127 0" result="hardAlpha"/>
<feOffset dy="5"/>
<feGaussianBlur stdDeviation="10"/>
<feComposite in2="hardAlpha" operator="out"/>
<feColorMatrix type="matrix" values="0 0 0 0 0.247135 0 0 0 0 0.259458 0 0 0 0 0.270833 0 0 0 0.05 0"/>
<feBlend mode="normal" in2="BackgroundImageFix" result="effect1_dropShadow_1769_48070"/>
<feBlend mode="normal" in="SourceGraphic" in2="effect1_dropShadow_1769_48070" result="shape"/>
</filter>
<filter id="filter1_d_1769_48070" x="37" y="57" width="76" height="76" filterUnits="userSpaceOnUse" color-interpolation-filters="sRGB">
<feFlood flood-opacity="0" result="BackgroundImageFix"/>
<feColorMatrix in="SourceAlpha" type="matrix" values="0 0 0 0 0 0 0 0 0 0 0 0 0 0 0 0 0 0 127 0" result="hardAlpha"/>
<feOffset dy="5"/>
<feGaussianBlur stdDeviation="10"/>
<feComposite in2="hardAlpha" operator="out"/>
<feColorMatrix type="matrix" values="0 0 0 0 0.247135 0 0 0 0 0.259458 0 0 0 0 0.270833 0 0 0 0.05 0"/>
<feBlend mode="normal" in2="BackgroundImageFix" result="effect1_dropShadow_1769_48070"/>
<feBlend mode="normal" in="SourceGraphic" in2="effect1_dropShadow_1769_48070" result="shape"/>
</filter>
<filter id="filter2_d_1769_48070" x="79" y="57" width="76" height="76" filterUnits="userSpaceOnUse" color-interpolation-filters="sRGB">
<feFlood flood-opacity="0" result="BackgroundImageFix"/>
<feColorMatrix in="SourceAlpha" type="matrix" values="0 0 0 0 0 0 0 0 0 0 0 0 0 0 0 0 0 0 127 0" result="hardAlpha"/>
<feOffset dy="5"/>
<feGaussianBlur stdDeviation="10"/>
<feComposite in2="hardAlpha" operator="out"/>
<feColorMatrix type="matrix" values="0 0 0 0 0.247135 0 0 0 0 0.259458 0 0 0 0 0.270833 0 0 0 0.05 0"/>
<feBlend mode="normal" in2="BackgroundImageFix" result="effect1_dropShadow_1769_48070"/>
<feBlend mode="normal" in="SourceGraphic" in2="effect1_dropShadow_1769_48070" result="shape"/>
</filter>
<filter id="filter3_d_1769_48070" x="121" y="57" width="76" height="76" filterUnits="userSpaceOnUse" color-interpolation-filters="sRGB">
<feFlood flood-opacity="0" result="BackgroundImageFix"/>
<feColorMatrix in="SourceAlpha" type="matrix" values="0 0 0 0 0 0 0 0 0 0 0 0 0 0 0 0 0 0 127 0" result="hardAlpha"/>
<feOffset dy="5"/>
<feGaussianBlur stdDeviation="10"/>
<feComposite in2="hardAlpha" operator="out"/>
<feColorMatrix type="matrix" values="0 0 0 0 0.247135 0 0 0 0 0.259458 0 0 0 0 0.270833 0 0 0 0.05 0"/>
<feBlend mode="normal" in2="BackgroundImageFix" result="effect1_dropShadow_1769_48070"/>
<feBlend mode="normal" in="SourceGraphic" in2="effect1_dropShadow_1769_48070" result="shape"/>
</filter>
</defs>
</svg>
