<svg width="133" height="86" viewBox="0 0 133 86" fill="none" xmlns="http://www.w3.org/2000/svg">
<path d="M6.16438 17.128C5.44971 17.128 4.79904 17.0107 4.21238 16.776C3.62571 16.5307 3.11904 16.184 2.69238 15.736C2.27638 15.288 1.95104 14.7387 1.71638 14.088C1.48171 13.4373 1.36438 12.696 1.36438 11.864V10.936C1.36438 10.1147 1.48171 9.37867 1.71638 8.728C1.95104 8.07733 2.28171 7.528 2.70838 7.08C3.13504 6.62133 3.64171 6.27467 4.22838 6.04C4.81504 5.79467 5.46038 5.672 6.16438 5.672C6.87904 5.672 7.52971 5.79467 8.11638 6.04C8.70304 6.27467 9.20438 6.616 9.62038 7.064C10.047 7.512 10.3777 8.06133 10.6124 8.712C10.847 9.36267 10.9644 10.104 10.9644 10.936V11.864C10.9644 12.6853 10.847 13.4213 10.6124 14.072C10.3777 14.7227 10.047 15.2773 9.62038 15.736C9.19371 16.184 8.68704 16.5307 8.10038 16.776C7.51371 17.0107 6.86838 17.128 6.16438 17.128ZM6.16438 15.688C6.63371 15.688 7.06571 15.608 7.46038 15.448C7.85504 15.2773 8.19638 15.032 8.48438 14.712C8.77238 14.392 8.99638 13.9973 9.15638 13.528C9.31638 13.048 9.39638 12.4933 9.39638 11.864V10.936C9.39638 10.3173 9.31638 9.77333 9.15638 9.304C8.99638 8.824 8.77238 8.424 8.48438 8.104C8.19638 7.77333 7.85504 7.528 7.46038 7.368C7.06571 7.19733 6.63371 7.112 6.16438 7.112C5.69504 7.112 5.26304 7.19733 4.86838 7.368C4.47371 7.528 4.13238 7.768 3.84438 8.088C3.55638 8.408 3.33238 8.808 3.17238 9.288C3.01238 9.768 2.93238 10.3173 2.93238 10.936V11.864C2.93238 12.4827 3.01238 13.032 3.17238 13.512C3.33238 13.9813 3.55638 14.3813 3.84438 14.712C4.13238 15.032 4.47371 15.2773 4.86838 15.448C5.26304 15.608 5.69504 15.688 6.16438 15.688ZM22.4838 13.576H18.4838V17H17.0438V9H18.4838V12.264H22.4838V9H23.9237V17H22.4838V13.576ZM28.325 17.128C27.493 17.128 26.8583 16.92 26.421 16.504C25.9837 16.0773 25.765 15.496 25.765 14.76C25.765 14.3547 25.829 13.992 25.957 13.672C26.085 13.3413 26.2877 13.064 26.565 12.84C26.853 12.616 27.2157 12.4453 27.653 12.328C28.101 12.2107 28.645 12.152 29.285 12.152H30.885V11.56C30.885 11.112 30.7517 10.7653 30.485 10.52C30.229 10.2747 29.829 10.152 29.285 10.152C28.741 10.152 28.3463 10.2533 28.101 10.456C27.8663 10.6587 27.7277 10.92 27.685 11.24H26.085C26.1277 10.5573 26.405 9.992 26.917 9.544C27.4397 9.096 28.229 8.872 29.285 8.872C30.2877 8.872 31.045 9.112 31.557 9.592C32.069 10.072 32.325 10.728 32.325 11.56V17H31.205L31.029 15.688C30.741 16.1467 30.3623 16.504 29.893 16.76C29.4343 17.0053 28.9117 17.128 28.325 17.128ZM28.485 15.848C28.837 15.848 29.157 15.7893 29.445 15.672C29.7437 15.5547 29.9997 15.4 30.213 15.208C30.4263 15.0053 30.5917 14.7707 30.709 14.504C30.8263 14.2373 30.885 13.9547 30.885 13.656V13.368H29.285C28.549 13.368 28.0263 13.496 27.717 13.752C27.4183 13.9973 27.269 14.3227 27.269 14.728C27.269 15.0693 27.3757 15.3413 27.589 15.544C27.8023 15.7467 28.101 15.848 28.485 15.848ZM37.7575 17.128C36.6482 17.128 35.7682 16.7973 35.1175 16.136C34.4775 15.4747 34.1575 14.5307 34.1575 13.304V12.696C34.1575 12.088 34.2428 11.5493 34.4135 11.08C34.5842 10.6107 34.8242 10.2107 35.1335 9.88C35.4428 9.54933 35.8215 9.29867 36.2695 9.128C36.7175 8.95733 37.2135 8.872 37.7575 8.872C38.2268 8.872 38.6428 8.936 39.0055 9.064C39.3788 9.192 39.6988 9.368 39.9655 9.592C40.2428 9.80533 40.4668 10.0613 40.6375 10.36C40.8188 10.6587 40.9522 10.9787 41.0375 11.32H39.5015C39.3842 11.0427 39.1815 10.7973 38.8935 10.584C38.6162 10.36 38.2108 10.248 37.6775 10.248C37.0695 10.248 36.5788 10.4507 36.2055 10.856C35.8428 11.2613 35.6615 11.8747 35.6615 12.696V13.304C35.6615 14.1147 35.8482 14.728 36.2215 15.144C36.5948 15.5493 37.0802 15.752 37.6775 15.752C38.2215 15.752 38.6322 15.64 38.9095 15.416C39.1868 15.192 39.3842 14.8933 39.5015 14.52H41.0375C40.8775 15.288 40.5255 15.9173 39.9815 16.408C39.4375 16.888 38.6962 17.128 37.7575 17.128Z" fill="#3A3F43"/>
<path d="M5.71906 49.128C5.0044 49.128 4.35373 49.0107 3.76706 48.776C3.1804 48.5307 2.67373 48.184 2.24706 47.736C1.83106 47.288 1.50573 46.7387 1.27106 46.088C1.0364 45.4373 0.919063 44.696 0.919063 43.864V42.936C0.919063 42.1147 1.0364 41.3787 1.27106 40.728C1.50573 40.0773 1.8364 39.528 2.26306 39.08C2.68973 38.6213 3.1964 38.2747 3.78306 38.04C4.36973 37.7947 5.01506 37.672 5.71906 37.672C6.43373 37.672 7.0844 37.7947 7.67106 38.04C8.25773 38.2747 8.75906 38.616 9.17506 39.064C9.60173 39.512 9.9324 40.0613 10.1671 40.712C10.4017 41.3627 10.5191 42.104 10.5191 42.936V43.864C10.5191 44.6853 10.4017 45.4213 10.1671 46.072C9.9324 46.7227 9.60173 47.2773 9.17506 47.736C8.7484 48.184 8.24173 48.5307 7.65506 48.776C7.0684 49.0107 6.42306 49.128 5.71906 49.128ZM5.71906 47.688C6.1884 47.688 6.6204 47.608 7.01506 47.448C7.40973 47.2773 7.75106 47.032 8.03906 46.712C8.32706 46.392 8.55106 45.9973 8.71106 45.528C8.87106 45.048 8.95106 44.4933 8.95106 43.864V42.936C8.95106 42.3173 8.87106 41.7733 8.71106 41.304C8.55106 40.824 8.32706 40.424 8.03906 40.104C7.75106 39.7733 7.40973 39.528 7.01506 39.368C6.6204 39.1973 6.1884 39.112 5.71906 39.112C5.24973 39.112 4.81773 39.1973 4.42306 39.368C4.0284 39.528 3.68706 39.768 3.39906 40.088C3.11106 40.408 2.88706 40.808 2.72706 41.288C2.56706 41.768 2.48706 42.3173 2.48706 42.936V43.864C2.48706 44.4827 2.56706 45.032 2.72706 45.512C2.88706 45.9813 3.11106 46.3813 3.39906 46.712C3.68706 47.032 4.0284 47.2773 4.42306 47.448C4.81773 47.608 5.24973 47.688 5.71906 47.688ZM17.7184 42.312H14.0384V49H12.5984V41H19.1584V49H17.7184V42.312ZM20.6716 41H27.2316V42.312H24.6716V49H23.2316V42.312H20.6716V41ZM31.6422 49.128C31.0769 49.128 30.5649 49.0427 30.1062 48.872C29.6582 48.6907 29.2742 48.44 28.9542 48.12C28.6342 47.7893 28.3889 47.3893 28.2182 46.92C28.0475 46.44 27.9622 45.9013 27.9622 45.304V44.696C27.9622 44.1093 28.0475 43.5813 28.2182 43.112C28.3995 42.632 28.6502 42.2267 28.9702 41.896C29.2902 41.5653 29.6742 41.3147 30.1222 41.144C30.5809 40.9627 31.0875 40.872 31.6422 40.872C32.1969 40.872 32.6982 40.9627 33.1462 41.144C33.6049 41.3147 33.9942 41.5653 34.3142 41.896C34.6342 42.216 34.8795 42.616 35.0502 43.096C35.2315 43.5653 35.3222 44.0987 35.3222 44.696V45.304C35.3222 45.9013 35.2315 46.4347 35.0502 46.904C34.8795 47.3733 34.6342 47.7733 34.3142 48.104C33.9942 48.4347 33.6049 48.6907 33.1462 48.872C32.6982 49.0427 32.1969 49.128 31.6422 49.128ZM31.6422 47.752C32.3142 47.752 32.8422 47.5493 33.2262 47.144C33.6209 46.728 33.8182 46.1147 33.8182 45.304V44.696C33.8182 43.896 33.6209 43.288 33.2262 42.872C32.8422 42.456 32.3142 42.248 31.6422 42.248C30.9702 42.248 30.4369 42.456 30.0422 42.872C29.6582 43.2773 29.4662 43.8853 29.4662 44.696V45.304C29.4662 46.104 29.6582 46.712 30.0422 47.128C30.4369 47.544 30.9702 47.752 31.6422 47.752ZM37.2391 41H40.2791C41.3564 41 42.1297 41.2027 42.5991 41.608C43.0791 42.0133 43.3191 42.552 43.3191 43.224C43.3191 43.5547 43.2391 43.8587 43.0791 44.136C42.9191 44.4133 42.6684 44.648 42.3271 44.84C42.7751 45.0213 43.1057 45.2773 43.3191 45.608C43.5324 45.928 43.6391 46.2853 43.6391 46.68C43.6391 47.4053 43.3991 47.976 42.9191 48.392C42.4497 48.7973 41.6764 49 40.5991 49H37.2391V41ZM38.6791 45.544V47.688H40.5991C41.1751 47.688 41.5751 47.5973 41.7991 47.416C42.0231 47.224 42.1351 46.952 42.1351 46.6C42.1351 46.2587 42.0231 45.9973 41.7991 45.816C41.5751 45.6347 41.1751 45.544 40.5991 45.544H38.6791ZM38.6791 42.312V44.296H40.2791C40.8657 44.296 41.2657 44.2107 41.4791 44.04C41.7031 43.8587 41.8151 43.6133 41.8151 43.304C41.8151 42.9947 41.7031 42.7547 41.4791 42.584C41.2657 42.4027 40.8657 42.312 40.2791 42.312H38.6791ZM45.5516 41H46.9916V43.56H48.5116C49.7169 43.56 50.5916 43.8053 51.1356 44.296C51.6796 44.776 51.9516 45.4373 51.9516 46.28C51.9516 47.1333 51.6796 47.8 51.1356 48.28C50.5916 48.76 49.7169 49 48.5116 49H45.5516V41ZM53.0716 41H54.5116V49H53.0716V41ZM46.9916 44.872V47.688H48.5916C49.2956 47.688 49.7862 47.5707 50.0636 47.336C50.3409 47.0907 50.4796 46.7387 50.4796 46.28C50.4796 45.8213 50.3409 45.4747 50.0636 45.24C49.7862 44.9947 49.2956 44.872 48.5916 44.872H46.9916ZM60.0309 49.128C59.4976 49.128 59.0069 49.0427 58.5589 48.872C58.1216 48.6907 57.7429 48.4347 57.4229 48.104C57.1136 47.7733 56.8683 47.3733 56.6869 46.904C56.5163 46.4347 56.4309 45.9013 56.4309 45.304V44.696C56.4309 44.1093 56.5163 43.5813 56.6869 43.112C56.8683 42.6427 57.1189 42.2427 57.4389 41.912C57.7589 41.5813 58.1376 41.3253 58.5749 41.144C59.0123 40.9627 59.4976 40.872 60.0309 40.872C60.5643 40.872 61.0496 40.9627 61.4869 41.144C61.9349 41.3147 62.3136 41.5653 62.6229 41.896C62.9429 42.2267 63.1883 42.632 63.3589 43.112C63.5403 43.5813 63.6309 44.1093 63.6309 44.696V45.464H57.9349C57.9563 46.2427 58.1589 46.8293 58.5429 47.224C58.9269 47.6187 59.4229 47.816 60.0309 47.816C60.6603 47.816 61.1189 47.704 61.4069 47.48C61.6949 47.256 61.9189 46.936 62.0789 46.52H63.5509C63.3909 47.3093 63.0336 47.944 62.4789 48.424C61.9243 48.8933 61.1083 49.128 60.0309 49.128ZM60.0309 42.184C59.4549 42.184 58.9803 42.3547 58.6069 42.696C58.2443 43.0267 58.0256 43.5333 57.9509 44.216H62.0949C62.0309 43.512 61.8229 43 61.4709 42.68C61.1189 42.3493 60.6389 42.184 60.0309 42.184ZM74.6716 42.312H70.9916V49H69.5516V41H76.1116V49H74.6716V42.312ZM82.3767 49.128C81.3207 49.128 80.51 48.7813 79.9447 48.088V52.2H78.5047V41H79.6247L79.7687 42.152C80.046 41.7253 80.4087 41.4053 80.8567 41.192C81.3047 40.9787 81.8167 40.872 82.3927 40.872C82.8407 40.872 83.2567 40.9573 83.6407 41.128C84.0354 41.288 84.3714 41.5333 84.6487 41.864C84.926 42.184 85.1447 42.584 85.3047 43.064C85.4647 43.5333 85.5447 44.0773 85.5447 44.696V45.304C85.5447 45.9227 85.4647 46.472 85.3047 46.952C85.1447 47.4213 84.9207 47.8213 84.6327 48.152C84.3554 48.472 84.0194 48.7173 83.6247 48.888C83.2407 49.048 82.8247 49.128 82.3767 49.128ZM81.9927 47.752C82.6327 47.752 83.134 47.5547 83.4967 47.16C83.8594 46.7653 84.0407 46.1467 84.0407 45.304V44.696C84.0407 43.864 83.8594 43.2507 83.4967 42.856C83.134 42.4507 82.6327 42.248 81.9927 42.248C81.4167 42.248 80.9367 42.4453 80.5527 42.84C80.1687 43.2347 79.966 43.816 79.9447 44.584V45.304C79.9447 46.0933 80.1367 46.7013 80.5207 47.128C80.9047 47.544 81.3954 47.752 81.9927 47.752ZM90.6578 49.128C90.0925 49.128 89.5805 49.0427 89.1218 48.872C88.6738 48.6907 88.2898 48.44 87.9698 48.12C87.6498 47.7893 87.4045 47.3893 87.2338 46.92C87.0631 46.44 86.9778 45.9013 86.9778 45.304V44.696C86.9778 44.1093 87.0631 43.5813 87.2338 43.112C87.4151 42.632 87.6658 42.2267 87.9858 41.896C88.3058 41.5653 88.6898 41.3147 89.1378 41.144C89.5965 40.9627 90.1031 40.872 90.6578 40.872C91.2125 40.872 91.7138 40.9627 92.1618 41.144C92.6205 41.3147 93.0098 41.5653 93.3298 41.896C93.6498 42.216 93.8951 42.616 94.0658 43.096C94.2471 43.5653 94.3378 44.0987 94.3378 44.696V45.304C94.3378 45.9013 94.2471 46.4347 94.0658 46.904C93.8951 47.3733 93.6498 47.7733 93.3298 48.104C93.0098 48.4347 92.6205 48.6907 92.1618 48.872C91.7138 49.0427 91.2125 49.128 90.6578 49.128ZM90.6578 47.752C91.3298 47.752 91.8578 47.5493 92.2418 47.144C92.6365 46.728 92.8338 46.1147 92.8338 45.304V44.696C92.8338 43.896 92.6365 43.288 92.2418 42.872C91.8578 42.456 91.3298 42.248 90.6578 42.248C89.9858 42.248 89.4525 42.456 89.0578 42.872C88.6738 43.2773 88.4818 43.8853 88.4818 44.696V45.304C88.4818 46.104 88.6738 46.712 89.0578 47.128C89.4525 47.544 89.9858 47.752 90.6578 47.752ZM102.018 49H96.4984V51.08H95.0584V47.688H95.9224C96.0931 47.4533 96.2318 47.2133 96.3384 46.968C96.4558 46.712 96.5464 46.4187 96.6104 46.088C96.6744 45.7573 96.7171 45.3787 96.7384 44.952C96.7704 44.5147 96.7864 43.9973 96.7864 43.4V41H102.418V47.688H103.458V51.08H102.018V49ZM98.1944 43.4C98.1944 44.04 98.1784 44.5893 98.1464 45.048C98.1144 45.5067 98.0664 45.9013 98.0024 46.232C97.9384 46.5627 97.8584 46.8453 97.7624 47.08C97.6771 47.304 97.5811 47.5067 97.4744 47.688H100.978V42.312H98.1944V43.4ZM107.052 49.128C106.22 49.128 105.585 48.92 105.148 48.504C104.71 48.0773 104.492 47.496 104.492 46.76C104.492 46.3547 104.556 45.992 104.684 45.672C104.812 45.3413 105.014 45.064 105.292 44.84C105.58 44.616 105.942 44.4453 106.38 44.328C106.828 44.2107 107.372 44.152 108.012 44.152H109.612V43.56C109.612 43.112 109.478 42.7653 109.212 42.52C108.956 42.2747 108.556 42.152 108.012 42.152C107.468 42.152 107.073 42.2533 106.828 42.456C106.593 42.6587 106.454 42.92 106.412 43.24H104.812C104.854 42.5573 105.132 41.992 105.644 41.544C106.166 41.096 106.956 40.872 108.012 40.872C109.014 40.872 109.772 41.112 110.284 41.592C110.796 42.072 111.052 42.728 111.052 43.56V49H109.932L109.756 47.688C109.468 48.1467 109.089 48.504 108.62 48.76C108.161 49.0053 107.638 49.128 107.052 49.128ZM107.212 47.848C107.564 47.848 107.884 47.7893 108.172 47.672C108.47 47.5547 108.726 47.4 108.94 47.208C109.153 47.0053 109.318 46.7707 109.436 46.504C109.553 46.2373 109.612 45.9547 109.612 45.656V45.368H108.012C107.276 45.368 106.753 45.496 106.444 45.752C106.145 45.9973 105.996 46.3227 105.996 46.728C105.996 47.0693 106.102 47.3413 106.316 47.544C106.529 47.7467 106.828 47.848 107.212 47.848ZM119.764 45.496H118.644V49H117.204V45.496H116.084L114.132 49H112.404L114.804 44.888L112.708 41H114.436L116.068 44.184H117.204V41H118.644V44.184H119.748L121.428 41H123.124L121.044 44.792L123.444 49H121.684L119.764 45.496ZM130.32 42.712L129.44 44.36L126.736 49H124.88V41H126.32V47.288L127.2 45.64L129.904 41H131.76V49H130.32V42.712Z" fill="#3A3F43"/>
<path d="M0.443125 79.688H0.763125C1.00846 79.688 1.23246 79.6347 1.43513 79.528C1.64846 79.4213 1.82979 79.2133 1.97913 78.904C2.12846 78.5947 2.24046 78.168 2.31512 77.624C2.40046 77.08 2.44313 76.3653 2.44313 75.48V69.8H9.80313V81H8.29913V71.176H3.94713V75.48C3.94713 76.6213 3.87779 77.5547 3.73913 78.28C3.60046 79.0053 3.39779 79.5813 3.13113 80.008C2.86446 80.4347 2.53379 80.728 2.13913 80.888C1.74446 81.048 1.28579 81.128 0.763125 81.128H0.443125V79.688ZM17.7181 74.712L16.8381 76.36L14.1341 81H12.2781V73H13.7181V79.288L14.5981 77.64L17.3021 73H19.1581V81H17.7181V74.712ZM26.0394 78.264C25.8047 78.3173 25.538 78.3653 25.2394 78.408C24.9514 78.44 24.6314 78.456 24.2794 78.456C23.1487 78.456 22.3327 78.2107 21.8314 77.72C21.33 77.2293 21.0794 76.456 21.0794 75.4V73H22.5194V75.4C22.5194 75.7307 22.546 76.008 22.5994 76.232C22.6634 76.456 22.7647 76.6373 22.9034 76.776C23.042 76.904 23.2234 77 23.4474 77.064C23.6714 77.1173 23.9487 77.144 24.2794 77.144C24.6207 77.144 24.9407 77.128 25.2394 77.096C25.5487 77.0533 25.8154 77.0053 26.0394 76.952V73H27.4794V81H26.0394V78.264ZM35.3119 77.576H31.3119V81H29.8719V73H31.3119V76.264H35.3119V73H36.7519V81H35.3119V77.576ZM39.1531 73H40.5931V75.56H42.1131C43.3185 75.56 44.1931 75.8053 44.7371 76.296C45.2811 76.776 45.5531 77.4373 45.5531 78.28C45.5531 79.1333 45.2811 79.8 44.7371 80.28C44.1931 80.76 43.3185 81 42.1131 81H39.1531V73ZM46.6731 73H48.1131V81H46.6731V73ZM40.5931 76.872V79.688H42.1931C42.8971 79.688 43.3878 79.5707 43.6651 79.336C43.9425 79.0907 44.0811 78.7387 44.0811 78.28C44.0811 77.8213 43.9425 77.4747 43.6651 77.24C43.3878 76.9947 42.8971 76.872 42.1931 76.872H40.5931ZM55.9525 74.712L55.0725 76.36L52.3685 81H50.5125V73H51.9525V79.288L52.8325 77.64L55.5365 73H57.3925V81H55.9525V74.712ZM53.9525 72.008C53.2485 72.008 52.6992 71.816 52.3045 71.432C51.9098 71.0373 51.7125 70.4933 51.7125 69.8H52.9605C52.9605 70.216 53.0458 70.5253 53.2165 70.728C53.3978 70.92 53.6432 71.016 53.9525 71.016C54.2725 71.016 54.5232 70.92 54.7045 70.728C54.8858 70.5253 54.9765 70.216 54.9765 69.8H56.1925C56.1925 70.4933 55.9952 71.0373 55.6005 71.432C55.2058 71.816 54.6565 72.008 53.9525 72.008ZM66.3378 77.496H65.2338V81H63.7938V73H65.2338V76.184H66.3538L68.4978 73H70.1938L67.5378 76.808L70.5138 81H68.7538L66.3378 77.496ZM73.7938 81.128C72.9618 81.128 72.3271 80.92 71.8898 80.504C71.4524 80.0773 71.2338 79.496 71.2338 78.76C71.2338 78.3547 71.2978 77.992 71.4258 77.672C71.5538 77.3413 71.7564 77.064 72.0338 76.84C72.3218 76.616 72.6844 76.4453 73.1218 76.328C73.5698 76.2107 74.1138 76.152 74.7538 76.152H76.3538V75.56C76.3538 75.112 76.2204 74.7653 75.9538 74.52C75.6978 74.2747 75.2978 74.152 74.7538 74.152C74.2098 74.152 73.8151 74.2533 73.5698 74.456C73.3351 74.6587 73.1964 74.92 73.1538 75.24H71.5538C71.5964 74.5573 71.8738 73.992 72.3858 73.544C72.9084 73.096 73.6978 72.872 74.7538 72.872C75.7564 72.872 76.5138 73.112 77.0258 73.592C77.5378 74.072 77.7938 74.728 77.7938 75.56V81H76.6738L76.4978 79.688C76.2098 80.1467 75.8311 80.504 75.3618 80.76C74.9031 81.0053 74.3804 81.128 73.7938 81.128ZM73.9538 79.848C74.3058 79.848 74.6258 79.7893 74.9138 79.672C75.2124 79.5547 75.4684 79.4 75.6818 79.208C75.8951 79.0053 76.0604 78.7707 76.1778 78.504C76.2951 78.2373 76.3538 77.9547 76.3538 77.656V77.368H74.7538C74.0178 77.368 73.4951 77.496 73.1858 77.752C72.8871 77.9973 72.7378 78.3227 72.7378 78.728C72.7378 79.0693 72.8444 79.3413 73.0578 79.544C73.2711 79.7467 73.5698 79.848 73.9538 79.848ZM83.3063 81.128C82.1649 81.128 81.2636 80.7653 80.6023 80.04C79.9516 79.3147 79.6263 78.1893 79.6263 76.664V75.736C79.6263 75.1813 79.6529 74.648 79.7063 74.136C79.7703 73.6133 79.8769 73.128 80.0263 72.68C80.1756 72.232 80.3729 71.832 80.6183 71.48C80.8743 71.128 81.1943 70.84 81.5783 70.616C81.9196 70.4133 82.2556 70.28 82.5863 70.216C82.9276 70.152 83.2849 70.1093 83.6583 70.088C84.0316 70.056 84.4316 70.0187 84.8583 69.976C85.2956 69.9333 85.7863 69.832 86.3303 69.672V70.968C85.9249 71.1173 85.5303 71.2133 85.1463 71.256C84.7729 71.288 84.4103 71.3147 84.0583 71.336C83.7063 71.3573 83.3756 71.3947 83.0663 71.448C82.7569 71.4907 82.4743 71.592 82.2183 71.752C81.8769 71.976 81.6103 72.2747 81.4183 72.648C81.2369 73.0213 81.1036 73.5173 81.0182 74.136C81.3169 73.7627 81.6796 73.4853 82.1063 73.304C82.5329 73.1227 83.0129 73.032 83.5463 73.032C84.0583 73.032 84.5223 73.1173 84.9383 73.288C85.3649 73.4587 85.7276 73.704 86.0263 74.024C86.3356 74.344 86.5703 74.7387 86.7303 75.208C86.9009 75.6667 86.9862 76.1893 86.9862 76.776V77.384C86.9862 77.96 86.8956 78.4827 86.7143 78.952C86.5436 79.4107 86.2983 79.8 85.9783 80.12C85.6583 80.44 85.2689 80.6907 84.8103 80.872C84.3623 81.0427 83.8609 81.128 83.3063 81.128ZM83.3063 74.408C82.6556 74.408 82.1329 74.6 81.7383 74.984C81.3543 75.3573 81.1516 75.896 81.1303 76.6V77.32C81.1303 78.1093 81.3276 78.712 81.7223 79.128C82.1276 79.544 82.6556 79.752 83.3063 79.752C83.9783 79.752 84.5063 79.5493 84.8903 79.144C85.2849 78.7387 85.4823 78.152 85.4823 77.384V76.776C85.4823 76.0187 85.2849 75.4373 84.8903 75.032C84.4956 74.616 83.9676 74.408 83.3063 74.408ZM94.3431 74.712L93.4631 76.36L90.7591 81H88.9031V73H90.3431V79.288L91.2231 77.64L93.9271 73H95.7831V81H94.3431V74.712ZM103.624 77.576H99.6244V81H98.1844V73H99.6244V76.264H103.624V73H105.064V81H103.624V77.576ZM110.586 81.128C110.052 81.128 109.562 81.0427 109.114 80.872C108.676 80.6907 108.298 80.4347 107.978 80.104C107.668 79.7733 107.423 79.3733 107.242 78.904C107.071 78.4347 106.986 77.9013 106.986 77.304V76.696C106.986 76.1093 107.071 75.5813 107.242 75.112C107.423 74.6427 107.674 74.2427 107.994 73.912C108.314 73.5813 108.692 73.3253 109.13 73.144C109.567 72.9627 110.052 72.872 110.586 72.872C111.119 72.872 111.604 72.9627 112.042 73.144C112.49 73.3147 112.868 73.5653 113.178 73.896C113.498 74.2267 113.743 74.632 113.914 75.112C114.095 75.5813 114.186 76.1093 114.186 76.696V77.464H108.49C108.511 78.2427 108.714 78.8293 109.098 79.224C109.482 79.6187 109.978 79.816 110.586 79.816C111.215 79.816 111.674 79.704 111.962 79.48C112.25 79.256 112.474 78.936 112.634 78.52H114.106C113.946 79.3093 113.588 79.944 113.034 80.424C112.479 80.8933 111.663 81.128 110.586 81.128ZM110.586 74.184C110.01 74.184 109.535 74.3547 109.162 74.696C108.799 75.0267 108.58 75.5333 108.506 76.216H112.65C112.586 75.512 112.378 75 112.026 74.68C111.674 74.3493 111.194 74.184 110.586 74.184ZM114.914 73H121.474V74.312H118.914V81H117.474V74.312H114.914V73Z" fill="#3A3F43"/>
</svg>
