<svg width="333" height="48" viewBox="0 0 333 48" fill="none" xmlns="http://www.w3.org/2000/svg">
<path d="M4.9 14.112C4.29333 14.112 3.738 14.0093 3.234 13.804C2.73 13.5893 2.296 13.286 1.932 12.894C1.568 12.502 1.28333 12.0213 1.078 11.452C0.872667 10.8827 0.77 10.234 0.77 9.506V8.694C0.77 7.97533 0.872667 7.33133 1.078 6.762C1.28333 6.19267 1.568 5.712 1.932 5.32C2.296 4.91867 2.73 4.61533 3.234 4.41C3.738 4.19533 4.29333 4.088 4.9 4.088C5.44133 4.088 5.93133 4.172 6.37 4.34C6.80867 4.49867 7.19133 4.718 7.518 4.998C7.854 5.26867 8.12467 5.586 8.33 5.95C8.53533 6.30467 8.67533 6.678 8.75 7.07H7.322C7.24733 6.846 7.14 6.63133 7 6.426C6.86933 6.22067 6.70133 6.03867 6.496 5.88C6.29067 5.72133 6.05267 5.59533 5.782 5.502C5.52067 5.39933 5.22667 5.348 4.9 5.348C4.508 5.348 4.13933 5.42267 3.794 5.572C3.458 5.712 3.16867 5.92667 2.926 6.216C2.68333 6.496 2.492 6.846 2.352 7.266C2.212 7.67667 2.142 8.15267 2.142 8.694V9.506C2.142 10.0473 2.212 10.528 2.352 10.948C2.492 11.3587 2.68333 11.7087 2.926 11.998C3.178 12.278 3.472 12.4927 3.808 12.642C4.144 12.782 4.508 12.852 4.9 12.852C5.55333 12.852 6.08533 12.6653 6.496 12.292C6.90667 11.9187 7.182 11.438 7.322 10.85H8.75C8.67533 11.3073 8.53533 11.7367 8.33 12.138C8.12467 12.53 7.854 12.8753 7.518 13.174C7.19133 13.4633 6.804 13.692 6.356 13.86C5.91733 14.028 5.432 14.112 4.9 14.112ZM14.9089 8.148H11.6889V14H10.4289V7H16.1689V14H14.9089V8.148ZM21.0629 14.112C20.5682 14.112 20.1202 14.0373 19.7189 13.888C19.3269 13.7293 18.9909 13.51 18.7109 13.23C18.4309 12.9407 18.2162 12.5907 18.0669 12.18C17.9176 11.76 17.8429 11.2887 17.8429 10.766V10.234C17.8429 9.72067 17.9176 9.25867 18.0669 8.848C18.2256 8.428 18.4449 8.07333 18.7249 7.784C19.0049 7.49467 19.3409 7.27533 19.7329 7.126C20.1342 6.96733 20.5776 6.888 21.0629 6.888C21.5482 6.888 21.9869 6.96733 22.3789 7.126C22.7802 7.27533 23.1209 7.49467 23.4009 7.784C23.6809 8.064 23.8956 8.414 24.0449 8.834C24.2036 9.24467 24.2829 9.71133 24.2829 10.234V10.766C24.2829 11.2887 24.2036 11.7553 24.0449 12.166C23.8956 12.5767 23.6809 12.9267 23.4009 13.216C23.1209 13.5053 22.7802 13.7293 22.3789 13.888C21.9869 14.0373 21.5482 14.112 21.0629 14.112ZM21.0629 12.908C21.6509 12.908 22.1129 12.7307 22.4489 12.376C22.7942 12.012 22.9669 11.4753 22.9669 10.766V10.234C22.9669 9.534 22.7942 9.002 22.4489 8.638C22.1129 8.274 21.6509 8.092 21.0629 8.092C20.4749 8.092 20.0082 8.274 19.6629 8.638C19.3269 8.99267 19.1589 9.52467 19.1589 10.234V10.766C19.1589 11.466 19.3269 11.998 19.6629 12.362C20.0082 12.726 20.4749 12.908 21.0629 12.908ZM28.6902 14.112C27.7195 14.112 26.9495 13.8227 26.3802 13.244C25.8202 12.6653 25.5402 11.8393 25.5402 10.766V10.234C25.5402 9.702 25.6148 9.23067 25.7642 8.82C25.9135 8.40933 26.1235 8.05933 26.3942 7.77C26.6648 7.48067 26.9962 7.26133 27.3882 7.112C27.7802 6.96267 28.2142 6.888 28.6902 6.888C29.1008 6.888 29.4648 6.944 29.7822 7.056C30.1088 7.168 30.3888 7.322 30.6222 7.518C30.8648 7.70467 31.0608 7.92867 31.2102 8.19C31.3688 8.45133 31.4855 8.73133 31.5602 9.03H30.2162C30.1135 8.78733 29.9362 8.57267 29.6842 8.386C29.4415 8.19 29.0868 8.092 28.6202 8.092C28.0882 8.092 27.6588 8.26933 27.3322 8.624C27.0148 8.97867 26.8562 9.51533 26.8562 10.234V10.766C26.8562 11.4753 27.0195 12.012 27.3462 12.376C27.6728 12.7307 28.0975 12.908 28.6202 12.908C29.0962 12.908 29.4555 12.81 29.6982 12.614C29.9408 12.418 30.1135 12.1567 30.2162 11.83H31.5602C31.4202 12.502 31.1122 13.0527 30.6362 13.482C30.1602 13.902 29.5115 14.112 28.6902 14.112ZM35.8285 14.112C35.3338 14.112 34.8858 14.0373 34.4845 13.888C34.0925 13.7293 33.7565 13.51 33.4765 13.23C33.1965 12.9407 32.9818 12.5907 32.8325 12.18C32.6832 11.76 32.6085 11.2887 32.6085 10.766V10.234C32.6085 9.72067 32.6832 9.25867 32.8325 8.848C32.9912 8.428 33.2105 8.07333 33.4905 7.784C33.7705 7.49467 34.1065 7.27533 34.4985 7.126C34.8998 6.96733 35.3432 6.888 35.8285 6.888C36.3138 6.888 36.7525 6.96733 37.1445 7.126C37.5458 7.27533 37.8865 7.49467 38.1665 7.784C38.4465 8.064 38.6612 8.414 38.8105 8.834C38.9692 9.24467 39.0485 9.71133 39.0485 10.234V10.766C39.0485 11.2887 38.9692 11.7553 38.8105 12.166C38.6612 12.5767 38.4465 12.9267 38.1665 13.216C37.8865 13.5053 37.5458 13.7293 37.1445 13.888C36.7525 14.0373 36.3138 14.112 35.8285 14.112ZM35.8285 12.908C36.4165 12.908 36.8785 12.7307 37.2145 12.376C37.5598 12.012 37.7325 11.4753 37.7325 10.766V10.234C37.7325 9.534 37.5598 9.002 37.2145 8.638C36.8785 8.274 36.4165 8.092 35.8285 8.092C35.2405 8.092 34.7738 8.274 34.4285 8.638C34.0925 8.99267 33.9245 9.52467 33.9245 10.234V10.766C33.9245 11.466 34.0925 11.998 34.4285 12.362C34.7738 12.726 35.2405 12.908 35.8285 12.908ZM43.5258 14.112C42.5271 14.112 41.7384 13.7947 41.1598 13.16C40.5904 12.5253 40.3058 11.5407 40.3058 10.206V9.394C40.3058 8.90867 40.3291 8.442 40.3758 7.994C40.4318 7.53667 40.5251 7.112 40.6558 6.72C40.7864 6.328 40.9591 5.978 41.1738 5.67C41.3978 5.362 41.6778 5.11 42.0138 4.914C42.3124 4.73667 42.6064 4.62 42.8958 4.564C43.1944 4.508 43.5071 4.47067 43.8338 4.452C44.1604 4.424 44.5104 4.39133 44.8838 4.354C45.2664 4.31667 45.6958 4.228 46.1718 4.088V5.222C45.8171 5.35267 45.4718 5.43667 45.1358 5.474C44.8091 5.502 44.4918 5.52533 44.1838 5.544C43.8758 5.56267 43.5864 5.59533 43.3158 5.642C43.0451 5.67933 42.7978 5.768 42.5738 5.908C42.2751 6.104 42.0418 6.36533 41.8738 6.692C41.7151 7.01867 41.5984 7.45267 41.5238 7.994C41.7851 7.66733 42.1024 7.42467 42.4758 7.266C42.8491 7.10733 43.2691 7.028 43.7358 7.028C44.1838 7.028 44.5898 7.10267 44.9538 7.252C45.3271 7.40133 45.6444 7.616 45.9058 7.896C46.1764 8.176 46.3818 8.52133 46.5218 8.932C46.6711 9.33333 46.7458 9.79067 46.7458 10.304V10.836C46.7458 11.34 46.6664 11.7973 46.5078 12.208C46.3584 12.6093 46.1438 12.95 45.8638 13.23C45.5838 13.51 45.2431 13.7293 44.8418 13.888C44.4498 14.0373 44.0111 14.112 43.5258 14.112ZM43.5258 8.232C42.9564 8.232 42.4991 8.4 42.1538 8.736C41.8178 9.06267 41.6404 9.534 41.6218 10.15V10.78C41.6218 11.4707 41.7944 11.998 42.1398 12.362C42.4944 12.726 42.9564 12.908 43.5258 12.908C44.1138 12.908 44.5758 12.7307 44.9118 12.376C45.2571 12.0213 45.4298 11.508 45.4298 10.836V10.304C45.4298 9.64133 45.2571 9.13267 44.9118 8.778C44.5664 8.414 44.1044 8.232 43.5258 8.232ZM48.423 7H49.683V9.24H51.013C52.0677 9.24 52.833 9.45467 53.309 9.884C53.785 10.304 54.023 10.8827 54.023 11.62C54.023 12.3667 53.785 12.95 53.309 13.37C52.833 13.79 52.0677 14 51.013 14H48.423V7ZM55.003 7H56.263V14H55.003V7ZM49.683 10.388V12.852H51.083C51.699 12.852 52.1284 12.7493 52.371 12.544C52.6137 12.3293 52.735 12.0213 52.735 11.62C52.735 11.2187 52.6137 10.9153 52.371 10.71C52.1284 10.4953 51.699 10.388 51.083 10.388H49.683ZM64.6625 14.112C64.1678 14.112 63.7198 14.0373 63.3185 13.888C62.9265 13.7293 62.5905 13.51 62.3105 13.23C62.0305 12.9407 61.8158 12.5907 61.6665 12.18C61.5172 11.76 61.4425 11.2887 61.4425 10.766V10.234C61.4425 9.72067 61.5172 9.25867 61.6665 8.848C61.8252 8.428 62.0445 8.07333 62.3245 7.784C62.6045 7.49467 62.9405 7.27533 63.3325 7.126C63.7338 6.96733 64.1772 6.888 64.6625 6.888C65.1478 6.888 65.5865 6.96733 65.9785 7.126C66.3798 7.27533 66.7205 7.49467 67.0005 7.784C67.2805 8.064 67.4952 8.414 67.6445 8.834C67.8032 9.24467 67.8825 9.71133 67.8825 10.234V10.766C67.8825 11.2887 67.8032 11.7553 67.6445 12.166C67.4952 12.5767 67.2805 12.9267 67.0005 13.216C66.7205 13.5053 66.3798 13.7293 65.9785 13.888C65.5865 14.0373 65.1478 14.112 64.6625 14.112ZM64.6625 12.908C65.2505 12.908 65.7125 12.7307 66.0485 12.376C66.3938 12.012 66.5665 11.4753 66.5665 10.766V10.234C66.5665 9.534 66.3938 9.002 66.0485 8.638C65.7125 8.274 65.2505 8.092 64.6625 8.092C64.0745 8.092 63.6078 8.274 63.2625 8.638C62.9265 8.99267 62.7585 9.52467 62.7585 10.234V10.766C62.7585 11.466 62.9265 11.998 63.2625 12.362C63.6078 12.726 64.0745 12.908 64.6625 12.908ZM74.0398 8.148H70.8198V14H69.5598V7H75.2998V14H74.0398V8.148ZM76.5538 12.908H76.7638C76.9131 12.908 77.0531 12.8707 77.1838 12.796C77.3238 12.7213 77.4451 12.5907 77.5478 12.404C77.6504 12.2173 77.7298 11.9653 77.7858 11.648C77.8511 11.3307 77.8838 10.9293 77.8838 10.444V7H82.9238V14H81.6638V8.148H79.1438V10.444C79.1438 11.1347 79.0878 11.7133 78.9758 12.18C78.8638 12.6467 78.7051 13.0247 78.4998 13.314C78.2944 13.6033 78.0424 13.8087 77.7438 13.93C77.4544 14.0513 77.1278 14.112 76.7638 14.112H76.5538V12.908ZM86.7727 14.112C86.0447 14.112 85.4893 13.93 85.1067 13.566C84.724 13.1927 84.5327 12.684 84.5327 12.04C84.5327 11.6853 84.5887 11.368 84.7007 11.088C84.8127 10.7987 84.99 10.556 85.2327 10.36C85.4847 10.164 85.802 10.0147 86.1847 9.912C86.5767 9.80933 87.0527 9.758 87.6127 9.758H89.0127V9.24C89.0127 8.848 88.896 8.54467 88.6627 8.33C88.4387 8.11533 88.0887 8.008 87.6127 8.008C87.1367 8.008 86.7913 8.09667 86.5767 8.274C86.3713 8.45133 86.25 8.68 86.2127 8.96H84.8127C84.85 8.36267 85.0927 7.868 85.5407 7.476C85.998 7.084 86.6887 6.888 87.6127 6.888C88.49 6.888 89.1527 7.098 89.6007 7.518C90.0487 7.938 90.2727 8.512 90.2727 9.24V14H89.2927L89.1387 12.852C88.8867 13.2533 88.5553 13.566 88.1447 13.79C87.7433 14.0047 87.286 14.112 86.7727 14.112ZM86.9127 12.992C87.2207 12.992 87.5007 12.9407 87.7527 12.838C88.014 12.7353 88.238 12.6 88.4247 12.432C88.6113 12.2547 88.756 12.0493 88.8587 11.816C88.9613 11.5827 89.0127 11.3353 89.0127 11.074V10.822H87.6127C86.9687 10.822 86.5113 10.934 86.2407 11.158C85.9793 11.3727 85.8487 11.6573 85.8487 12.012C85.8487 12.3107 85.942 12.5487 86.1287 12.726C86.3153 12.9033 86.5767 12.992 86.9127 12.992ZM91.3894 7H97.1294V8.148H94.8894V14H93.6294V8.148H91.3894V7ZM98.4621 7H99.7221V9.24H101.052C102.107 9.24 102.872 9.45467 103.348 9.884C103.824 10.304 104.062 10.8827 104.062 11.62C104.062 12.3667 103.824 12.95 103.348 13.37C102.872 13.79 102.107 14 101.052 14H98.4621V7ZM105.042 7H106.302V14H105.042V7ZM99.7221 10.388V12.852H101.122C101.738 12.852 102.167 12.7493 102.41 12.544C102.653 12.3293 102.774 12.0213 102.774 11.62C102.774 11.2187 102.653 10.9153 102.41 10.71C102.167 10.4953 101.738 10.388 101.122 10.388H99.7221ZM109.102 8.848C108.812 8.848 108.574 8.75467 108.388 8.568C108.21 8.372 108.122 8.13867 108.122 7.868C108.122 7.59733 108.21 7.36867 108.388 7.182C108.574 6.986 108.812 6.888 109.102 6.888C109.391 6.888 109.624 6.986 109.802 7.182C109.988 7.36867 110.082 7.59733 110.082 7.868C110.082 8.13867 109.988 8.372 109.802 8.568C109.624 8.75467 109.391 8.848 109.102 8.848ZM109.102 14.112C108.812 14.112 108.574 14.0187 108.388 13.832C108.21 13.636 108.122 13.4027 108.122 13.132C108.122 12.8613 108.21 12.6327 108.388 12.446C108.574 12.25 108.812 12.152 109.102 12.152C109.391 12.152 109.624 12.25 109.802 12.446C109.988 12.6327 110.082 12.8613 110.082 13.132C110.082 13.4027 109.988 13.636 109.802 13.832C109.624 14.0187 109.391 14.112 109.102 14.112Z" fill="#747883"/>
<g clip-path="url(#clip0_1769_47957)">
<path d="M1.56252 31.293H17.1875C18.0469 31.293 18.75 31.9961 18.75 32.8555V34.7305C18.75 35.5899 18.0469 36.293 17.1875 36.293H1.56252C0.703122 36.2929 0 35.5898 0 34.7305V32.8554C0 31.9961 0.703122 31.293 1.56252 31.293Z" fill="#A86A3F"/>
<path d="M4.98438 32.9643L14.7656 30.3706C15.0938 30.2768 15.4375 30.48 15.5312 30.8081L17.1562 36.8081C17.25 37.1362 17.0469 37.48 16.7187 37.5737L3.98438 40.9643C3.65625 41.0581 3.31252 40.8549 3.21878 40.5268L2.03125 36.1206L4.98438 32.9643Z" fill="#5EBA6D"/>
<path d="M15.4534 36.6204L13.3441 37.1829C13.1722 37.2298 13.0003 37.136 12.9691 36.9641C12.9222 36.7923 13.016 36.6204 13.1878 36.5891L15.0003 36.1048L14.0316 32.4798L12.2191 32.9642C12.0472 33.011 11.8753 32.9173 11.8441 32.7454C11.7972 32.5735 11.891 32.4016 12.0629 32.3704L14.1722 31.8079C14.3441 31.761 14.516 31.8548 14.5472 32.0267L15.6722 36.2454C15.719 36.4173 15.6253 36.5891 15.4534 36.6204ZM6.70342 38.9798L4.59405 39.5423C4.42219 39.5892 4.25029 39.4954 4.21906 39.3235L3.09406 35.1048C3.04717 34.9329 3.14096 34.761 3.31282 34.7298L5.42218 34.1673C5.59405 34.1204 5.76595 34.2142 5.79717 34.3861C5.84406 34.5579 5.75028 34.7298 5.57841 34.7611L3.76592 35.2454L4.73465 38.8704L6.54715 38.386C6.71901 38.3392 6.89091 38.4329 6.92213 38.6048C6.96903 38.761 6.87528 38.9329 6.70342 38.9798Z" fill="#B3F0BD"/>
<path d="M0.125046 35.1521C2.90627 33.5583 10.4063 29.1677 10.4063 29.1677C10.7032 28.9958 11.0938 29.0896 11.2657 29.3864L14.3907 34.7614C14.5626 35.0583 14.4532 35.4333 14.1563 35.6052L2.71878 42.1677C2.42191 42.3395 2.03129 42.2458 1.85938 41.9489C1.85938 41.9489 0.984399 40.1677 0.109375 38.6677C0.109415 35.1521 0.125046 36.3083 0.125046 35.1521Z" fill="#5EBA6D"/>
<path d="M12.7971 34.5891L10.6096 30.8079C10.5159 30.6516 10.3284 30.6047 10.1877 30.6985L8.29714 31.7922C8.1409 31.886 8.09401 32.0735 8.18776 32.2141C8.2815 32.3703 8.469 32.4172 8.60964 32.3235L10.2346 31.386L12.1097 34.636L10.4847 35.5735C10.3284 35.6672 10.2815 35.8547 10.3753 35.9954C10.469 36.1516 10.6565 36.1985 10.7972 36.1047L12.6878 35.011C12.8284 34.9329 12.8909 34.7454 12.7971 34.5891ZM4.51588 39.011L2.89088 39.9485L1.01586 36.6985L2.64086 35.761C2.79709 35.6672 2.84398 35.4797 2.75024 35.3391C2.65649 35.1829 2.469 35.136 2.32836 35.2297L0.437747 36.3235C0.281515 36.4172 0.234622 36.6047 0.328369 36.7453L2.51585 40.5266C2.6096 40.6828 2.79709 40.7297 2.93773 40.636L4.82834 39.5422C4.98457 39.4485 5.03147 39.261 4.93772 39.1204C4.8596 38.9798 4.67211 38.9172 4.51588 39.011ZM5.31275 33.4954C4.10963 34.1829 3.70338 35.7141 4.39087 36.9172C5.09399 38.1204 6.60961 38.5266 7.81273 37.8391C9.01585 37.1516 9.4221 35.6204 8.73461 34.4173C8.03149 33.2297 6.51586 32.8079 5.31275 33.4954ZM12.7971 34.5891L10.6096 30.8079C10.5159 30.6516 10.3284 30.6047 10.1877 30.6985L8.29714 31.7922C8.1409 31.886 8.09401 32.0735 8.18776 32.2141C8.2815 32.3703 8.469 32.4172 8.60964 32.3235L10.2346 31.386L12.1097 34.636L10.4847 35.5735C10.3284 35.6672 10.2815 35.8547 10.3753 35.9954C10.469 36.1516 10.6565 36.1985 10.7972 36.1047L12.6878 35.011C12.8284 34.9329 12.8909 34.7454 12.7971 34.5891ZM4.51588 39.011L2.89088 39.9485L1.01586 36.6985L2.64086 35.761C2.79709 35.6672 2.84398 35.4797 2.75024 35.3391C2.65649 35.1829 2.469 35.136 2.32836 35.2297L0.437747 36.3235C0.281515 36.4172 0.234622 36.6047 0.328369 36.7453L2.51585 40.5266C2.6096 40.6828 2.79709 40.7297 2.93773 40.636L4.82834 39.5422C4.98457 39.4485 5.03147 39.261 4.93772 39.1204C4.8596 38.9798 4.67211 38.9172 4.51588 39.011ZM5.31275 33.4954C4.10963 34.1829 3.70338 35.7141 4.39087 36.9172C5.09399 38.1204 6.60961 38.5266 7.81273 37.8391C9.01585 37.1516 9.4221 35.6204 8.73461 34.4173C8.03149 33.2297 6.51586 32.8079 5.31275 33.4954Z" fill="#B3F0BD"/>
<path d="M17.8125 46.918H1.56252C0.703122 46.918 0 46.2149 0 45.3555V34.1055H17.8125C18.6719 34.1055 19.375 34.8086 19.375 35.668V45.3555C19.375 46.2149 18.6719 46.918 17.8125 46.918ZM1.25001 34.1055H0V32.8555C0 33.543 0.562482 34.1055 1.25001 34.1055Z" fill="#C47E4D"/>
<path d="M19.375 43.0117H16.875C15.6719 43.0117 14.6875 42.0273 14.6875 40.8242C14.6875 39.6211 15.6719 38.6367 16.875 38.6367H19.375C19.7187 38.6367 20 38.918 20 39.2617V42.3867C20 42.7304 19.7187 43.0117 19.375 43.0117Z" fill="#A86A3F"/>
<path d="M16.875 39.5742C17.5625 39.5742 18.125 40.1367 18.125 40.8242C18.125 41.5118 17.5625 42.0742 16.875 42.0742C16.1875 42.0742 15.625 41.5118 15.625 40.8242C15.625 40.1367 16.1875 39.5742 16.875 39.5742Z" fill="#EFC75E"/>
<path d="M17.1875 41.7617C16.5 41.7617 15.9375 41.1992 15.9375 40.5117C15.9375 40.2461 16.0156 39.9961 16.1563 39.793C15.8281 40.0117 15.625 40.3867 15.625 40.8242C15.625 41.5117 16.1875 42.0742 16.875 42.0742C17.2969 42.0742 17.6719 41.8555 17.9063 41.543C17.7031 41.6836 17.4531 41.7617 17.1875 41.7617Z" fill="#D7B354"/>
<path d="M17.8125 46.293H1.56252C0.703122 46.293 0 45.5899 0 44.7305V45.3555C0 46.2149 0.703122 46.918 1.56252 46.918H17.8125C18.6719 46.918 19.375 46.2149 19.375 45.3555V44.7305C19.375 45.5899 18.6719 46.293 17.8125 46.293Z" fill="#B27245"/>
<path d="M17.8125 34.1055H1.25001C0.562482 34.1055 0 33.543 0 32.8555V33.4805C0 34.168 0.562482 34.7305 1.25001 34.7305H17.8125C18.6719 34.7305 19.375 35.4336 19.375 36.293V35.668C19.375 34.8086 18.6719 34.1055 17.8125 34.1055Z" fill="#CA8B5F"/>
</g>
<path d="M59.9082 45.7661H56.1865L58.5144 30.7471H62.2358L59.9082 45.7661Z" fill="#00579F"/>
<path d="M73.3993 31.114C72.6652 30.8101 71.5009 30.4746 70.0613 30.4746C66.386 30.4746 63.798 32.5197 63.7821 35.4434C63.7515 37.6006 65.6351 38.7988 67.0438 39.518C68.4836 40.253 68.9731 40.7327 68.9731 41.3879C68.9584 42.3941 67.8096 42.8578 66.7381 42.8578C65.2523 42.8578 64.4561 42.6187 63.2462 42.059L62.7561 41.819L62.2354 45.1904C63.1083 45.6054 64.7164 45.9736 66.386 45.9898C70.291 45.9898 72.8334 43.9764 72.8634 40.8606C72.8783 39.1509 71.8838 37.8408 69.7396 36.7703C68.4378 36.0831 67.6407 35.6197 67.6407 34.9166C67.656 34.2774 68.3149 33.6227 69.7843 33.6227C70.9942 33.5906 71.8832 33.8941 72.5565 34.1977L72.8932 34.3572L73.3993 31.114Z" fill="#00579F"/>
<path d="M78.3459 40.4454C78.6524 39.5826 79.8317 36.2432 79.8317 36.2432C79.8163 36.2753 80.1376 35.3645 80.3214 34.8053L80.5815 36.0994C80.5815 36.0994 81.2863 39.6945 81.4393 40.4454C80.8577 40.4454 79.081 40.4454 78.3459 40.4454ZM82.9398 30.7471H80.0611C79.1734 30.7471 78.499 31.0185 78.1159 31.9932L72.5879 45.766H76.4929C76.4929 45.766 77.1358 43.9122 77.274 43.513C77.7024 43.513 81.5012 43.513 82.0523 43.513C82.1591 44.0403 82.4964 45.766 82.4964 45.766H85.9422L82.9398 30.7471Z" fill="#00579F"/>
<path d="M53.0781 30.7471L49.4333 40.9887L49.0351 38.9116C48.3612 36.5148 46.248 33.9108 43.8896 32.6161L47.2281 45.7502H51.1636L57.0134 30.7471H53.0781Z" fill="#00579F"/>
<path d="M46.049 30.7471H40.0613L40 31.0505C44.6708 32.2969 47.7643 35.3012 49.0352 38.9122L47.7335 32.0096C47.5192 31.0503 46.8606 30.7787 46.049 30.7471Z" fill="#FAA61A"/>
<g clip-path="url(#clip1_1769_47957)">
<path d="M131.469 47.7291V47.7811H131.517C131.528 47.7811 131.537 47.7787 131.544 47.7746C131.55 47.7706 131.554 47.7635 131.554 47.7549C131.554 47.7463 131.55 47.7398 131.544 47.7357C131.537 47.7311 131.528 47.7291 131.517 47.7291H131.469ZM131.518 47.6928C131.543 47.6928 131.562 47.6983 131.576 47.7095C131.59 47.7205 131.597 47.7357 131.597 47.7549C131.597 47.7711 131.591 47.7842 131.58 47.7948C131.569 47.8049 131.554 47.8115 131.534 47.814L131.598 47.8873H131.548L131.488 47.8145H131.469V47.8873H131.427V47.6928H131.518ZM131.505 47.9545C131.528 47.9545 131.549 47.9499 131.569 47.9414C131.589 47.9328 131.606 47.9211 131.621 47.9065C131.636 47.8918 131.648 47.8747 131.656 47.8545C131.665 47.8348 131.669 47.8135 131.669 47.7908C131.669 47.7681 131.665 47.7468 131.656 47.7271C131.648 47.7075 131.636 47.6898 131.621 47.6751C131.606 47.6605 131.589 47.6488 131.569 47.6402C131.549 47.6321 131.528 47.6281 131.505 47.6281C131.482 47.6281 131.46 47.6321 131.44 47.6402C131.42 47.6488 131.402 47.6605 131.387 47.6751C131.372 47.6898 131.36 47.7075 131.352 47.7271C131.344 47.7468 131.34 47.7681 131.34 47.7908C131.34 47.8135 131.344 47.8348 131.352 47.8545C131.36 47.8747 131.372 47.8918 131.387 47.9065C131.402 47.9211 131.42 47.9328 131.44 47.9414C131.46 47.9499 131.482 47.9545 131.505 47.9545ZM131.505 47.5811C131.535 47.5811 131.563 47.5867 131.589 47.5978C131.615 47.6084 131.638 47.6235 131.658 47.6428C131.677 47.6615 131.693 47.6837 131.704 47.7095C131.715 47.7347 131.721 47.762 131.721 47.7908C131.721 47.8196 131.715 47.8468 131.704 47.8721C131.693 47.8974 131.677 47.9196 131.658 47.9388C131.638 47.9575 131.615 47.9727 131.589 47.9838C131.563 47.9949 131.535 48.0005 131.505 48.0005C131.474 48.0005 131.446 47.9949 131.42 47.9838C131.393 47.9727 131.37 47.9575 131.351 47.9388C131.331 47.9196 131.316 47.8974 131.305 47.8721C131.294 47.8468 131.288 47.8196 131.288 47.7908C131.288 47.762 131.294 47.7347 131.305 47.7095C131.316 47.6837 131.331 47.6615 131.351 47.6428C131.37 47.6235 131.393 47.6084 131.42 47.5978C131.446 47.5867 131.474 47.5811 131.505 47.5811ZM111.596 46.8318C111.596 46.461 111.842 46.1564 112.243 46.1564C112.627 46.1564 112.886 46.4479 112.886 46.8318C112.886 47.2158 112.627 47.5074 112.243 47.5074C111.842 47.5074 111.596 47.2027 111.596 46.8318ZM113.323 46.8318V45.7769H112.859V46.0331C112.712 45.8431 112.489 45.7239 112.185 45.7239C111.587 45.7239 111.118 46.1877 111.118 46.8318C111.118 47.4765 111.587 47.9398 112.185 47.9398C112.489 47.9398 112.712 47.8206 112.859 47.6306V47.8868H113.323V46.8318ZM129.003 46.8318C129.003 46.461 129.249 46.1564 129.651 46.1564C130.035 46.1564 130.293 46.4479 130.293 46.8318C130.293 47.2158 130.035 47.5074 129.651 47.5074C129.249 47.5074 129.003 47.2027 129.003 46.8318ZM130.731 46.8318V44.9297H130.267V46.0331C130.12 45.8431 129.896 45.7239 129.593 45.7239C128.994 45.7239 128.525 46.1877 128.525 46.8318C128.525 47.4765 128.994 47.9398 129.593 47.9398C129.896 47.9398 130.12 47.8206 130.267 47.6306V47.8868H130.731V46.8318ZM119.083 46.1346C119.382 46.1346 119.574 46.3201 119.623 46.6465H118.516C118.565 46.3418 118.752 46.1346 119.083 46.1346ZM119.092 45.7239C118.467 45.7239 118.029 46.1741 118.029 46.8318C118.029 47.5028 118.485 47.9398 119.123 47.9398C119.445 47.9398 119.739 47.8605 119.998 47.6443L119.771 47.3042C119.592 47.4452 119.364 47.5251 119.15 47.5251C118.851 47.5251 118.579 47.3881 118.512 47.0081H120.096C120.101 46.9511 120.106 46.8935 120.106 46.8318C120.101 46.1741 119.69 45.7239 119.092 45.7239ZM124.695 46.8318C124.695 46.461 124.941 46.1564 125.342 46.1564C125.726 46.1564 125.985 46.4479 125.985 46.8318C125.985 47.2158 125.726 47.5074 125.342 47.5074C124.941 47.5074 124.695 47.2027 124.695 46.8318ZM126.423 46.8318V45.7769H125.959V46.0331C125.811 45.8431 125.588 45.7239 125.285 45.7239C124.686 45.7239 124.217 46.1877 124.217 46.8318C124.217 47.4765 124.686 47.9398 125.285 47.9398C125.588 47.9398 125.811 47.8206 125.959 47.6306V47.8868H126.423V46.8318ZM122.074 46.8318C122.074 47.472 122.525 47.9398 123.213 47.9398C123.534 47.9398 123.749 47.8691 123.98 47.6882L123.758 47.3174C123.583 47.4411 123.401 47.5074 123.199 47.5074C122.829 47.5028 122.556 47.2381 122.556 46.8318C122.556 46.4257 122.829 46.1609 123.199 46.1564C123.401 46.1564 123.583 46.2225 123.758 46.3463L123.98 45.9755C123.749 45.7946 123.534 45.7239 123.213 45.7239C122.525 45.7239 122.074 46.1918 122.074 46.8318ZM128.057 45.7239C127.789 45.7239 127.615 45.8477 127.494 46.0331V45.7769H127.034V47.8868H127.499V46.7041C127.499 46.3549 127.651 46.1609 127.954 46.1609C128.048 46.1609 128.146 46.1741 128.244 46.214L128.387 45.7815C128.285 45.7416 128.151 45.7239 128.057 45.7239ZM115.618 45.9447C115.395 45.7991 115.087 45.7239 114.748 45.7239C114.207 45.7239 113.86 45.9801 113.86 46.3994C113.86 46.7435 114.119 46.9556 114.596 47.0218L114.815 47.0526C115.07 47.088 115.19 47.1542 115.19 47.2735C115.19 47.4366 115.02 47.5296 114.703 47.5296C114.382 47.5296 114.15 47.428 113.993 47.3088L113.775 47.666C114.029 47.8514 114.351 47.9398 114.699 47.9398C115.315 47.9398 115.672 47.6528 115.672 47.2512C115.672 46.8804 115.391 46.6864 114.927 46.6201L114.708 46.5888C114.507 46.5626 114.346 46.5231 114.346 46.3817C114.346 46.2271 114.498 46.1346 114.752 46.1346C115.025 46.1346 115.288 46.2362 115.418 46.3155L115.618 45.9447ZM121.605 45.7239C121.338 45.7239 121.163 45.8477 121.043 46.0331V45.7769H120.583V47.8868H121.047V46.7041C121.047 46.3549 121.199 46.1609 121.503 46.1609C121.597 46.1609 121.695 46.1741 121.793 46.214L121.936 45.7815C121.833 45.7416 121.699 45.7239 121.605 45.7239ZM117.646 45.7769H116.887V45.1368H116.418V45.7769H115.985V46.1963H116.418V47.1588C116.418 47.6483 116.61 47.9398 117.159 47.9398C117.36 47.9398 117.592 47.8782 117.739 47.7766L117.605 47.3835C117.467 47.4629 117.315 47.5028 117.194 47.5028C116.962 47.5028 116.887 47.3614 116.887 47.1497V46.1963H117.646V45.7769ZM110.708 47.8868V46.5626C110.708 46.0639 110.386 45.7285 109.868 45.7239C109.596 45.7194 109.315 45.8032 109.118 46.0993C108.971 45.8654 108.739 45.7239 108.413 45.7239C108.185 45.7239 107.962 45.7901 107.788 46.0371V45.7769H107.323V47.8868H107.792V46.7171C107.792 46.3509 107.997 46.1564 108.315 46.1564C108.623 46.1564 108.779 46.3549 108.779 46.7126V47.8868H109.248V46.7171C109.248 46.3509 109.462 46.1564 109.77 46.1564C110.087 46.1564 110.239 46.3549 110.239 46.7126V47.8868H110.708Z" fill="#9A9C9E"/>
<path d="M131.754 40.8697V40.5615H131.673L131.579 40.7732L131.486 40.5615H131.404V40.8697H131.461V40.6373L131.549 40.8378H131.609L131.697 40.6368V40.8697H131.754ZM131.239 40.8697V40.6141H131.343V40.562H131.077V40.6141H131.181V40.8697H131.239Z" fill="#F79410"/>
<path d="M122.516 42.1955H115.483V29.7002H122.516V42.1955Z" fill="#FF5F00"/>
<path d="M115.934 35.9467C115.934 33.412 117.134 31.1541 119.004 29.6991C117.637 28.6351 115.911 28 114.037 28C109.598 28 106 31.5578 106 35.9467C106 40.3356 109.598 43.8935 114.037 43.8935C115.911 43.8935 117.637 43.2584 119.004 42.1944C117.134 40.7393 115.934 38.4815 115.934 35.9467Z" fill="#EB001B"/>
<path d="M132 35.9467C132 40.3356 128.402 43.8935 123.964 43.8935C122.089 43.8935 120.364 43.2584 118.996 42.1944C120.866 40.7393 122.066 38.4815 122.066 35.9467C122.066 33.412 120.866 31.1541 118.996 29.6991C120.364 28.6351 122.089 28 123.964 28C128.402 28 132 31.5578 132 35.9467Z" fill="#F79E1B"/>
</g>
<g clip-path="url(#clip2_1769_47957)">
<path d="M167.716 42.3616H161.095V30.2451H167.716V42.3616Z" fill="#6C6BBD"/>
<path d="M176.415 41.0762V40.7773H176.338L176.25 40.9827L176.162 40.7773H176.085V41.0762H176.139V40.8509L176.222 41.0453H176.278L176.361 40.8503V41.0762H176.415ZM175.929 41.0762V40.8283H176.027V40.7779H175.777V40.8283H175.875V41.0762H175.929Z" fill="#0099DF"/>
<path d="M173.105 47.7275V47.778H173.151C173.161 47.778 173.169 47.7755 173.175 47.7716C173.181 47.7677 173.185 47.7608 173.185 47.7525C173.185 47.7442 173.181 47.7378 173.175 47.7339C173.169 47.7294 173.161 47.7275 173.151 47.7275H173.105ZM173.151 47.6922C173.175 47.6922 173.193 47.6977 173.206 47.7084C173.219 47.7192 173.225 47.7339 173.225 47.7525C173.225 47.7682 173.22 47.7809 173.21 47.7912C173.2 47.801 173.185 47.8074 173.166 47.8098L173.227 47.8808H173.179L173.123 47.8103H173.105V47.8808H173.065V47.6922H173.151ZM173.139 47.9455C173.161 47.9455 173.181 47.9416 173.199 47.9333C173.218 47.925 173.234 47.9137 173.248 47.8994C173.262 47.8853 173.273 47.8686 173.281 47.849C173.289 47.8299 173.294 47.8094 173.294 47.7873C173.294 47.7652 173.289 47.7447 173.281 47.7256C173.273 47.7064 173.262 47.6893 173.248 47.6751C173.234 47.6609 173.218 47.6496 173.199 47.6418C173.181 47.6334 173.161 47.6295 173.139 47.6295C173.117 47.6295 173.097 47.6334 173.078 47.6418C173.059 47.6496 173.042 47.6609 173.028 47.6751C173.014 47.6893 173.003 47.7064 172.995 47.7256C172.987 47.7447 172.983 47.7652 172.983 47.7873C172.983 47.8094 172.987 47.8299 172.995 47.849C173.003 47.8686 173.014 47.8853 173.028 47.8994C173.042 47.9137 173.059 47.925 173.078 47.9333C173.097 47.9416 173.117 47.9455 173.139 47.9455ZM173.139 47.584C173.167 47.584 173.193 47.5894 173.218 47.6001C173.243 47.6104 173.264 47.6251 173.283 47.6438C173.301 47.6619 173.316 47.6834 173.326 47.7084C173.337 47.7329 173.342 47.7594 173.342 47.7873C173.342 47.8152 173.337 47.8417 173.326 47.8661C173.316 47.8907 173.301 47.9122 173.283 47.9304C173.264 47.949 173.243 47.9637 173.218 47.9744C173.193 47.9852 173.167 47.9906 173.139 47.9906C173.11 47.9906 173.084 47.9852 173.059 47.9744C173.034 47.9637 173.012 47.949 172.994 47.9304C172.975 47.9122 172.961 47.8907 172.95 47.8661C172.94 47.8417 172.935 47.8152 172.935 47.7873C172.935 47.7594 172.94 47.7329 172.95 47.7084C172.961 47.6834 172.975 47.6619 172.994 47.6438C173.012 47.6251 173.034 47.6104 173.059 47.6001C173.084 47.5894 173.11 47.584 173.139 47.584Z" fill="#231F20"/>
<path d="M169.948 45.7831C170.036 45.7831 170.163 45.8003 170.259 45.8389L170.125 46.2583C170.032 46.2196 169.94 46.2069 169.851 46.2069C169.565 46.2069 169.423 46.395 169.423 46.733V47.8804H168.985V45.8346H169.418V46.0829C169.532 45.9032 169.696 45.7831 169.948 45.7831ZM168.332 46.2412H167.618V47.1656C167.618 47.3709 167.689 47.5081 167.908 47.5081C168.021 47.5081 168.164 47.4694 168.294 47.3925L168.42 47.7732C168.282 47.8716 168.063 47.9319 167.874 47.9319C167.357 47.9319 167.176 47.6492 167.176 47.1739V46.2412H166.768V45.8346H167.176V45.2139H167.618V45.8346H168.332V46.2412ZM162.737 46.6777C162.783 46.3823 162.959 46.1809 163.271 46.1809C163.552 46.1809 163.733 46.3607 163.779 46.6777H162.737ZM164.234 46.8575C164.229 46.2196 163.842 45.7831 163.279 45.7831C162.691 45.7831 162.279 46.2196 162.279 46.8575C162.279 47.5076 162.707 47.9314 163.309 47.9314C163.611 47.9314 163.889 47.8545 164.133 47.6448L163.918 47.3151C163.75 47.4523 163.535 47.5292 163.334 47.5292C163.052 47.5292 162.796 47.3964 162.733 47.0285H164.225C164.229 46.9726 164.234 46.9173 164.234 46.8575ZM166.154 46.3568C166.033 46.2794 165.785 46.1809 165.528 46.1809C165.289 46.1809 165.146 46.2711 165.146 46.421C165.146 46.5576 165.297 46.5964 165.486 46.6219L165.692 46.6517C166.129 46.7164 166.394 46.9046 166.394 47.2641C166.394 47.6536 166.058 47.9319 165.478 47.9319C165.15 47.9319 164.847 47.8462 164.608 47.6663L164.813 47.3195C164.961 47.4351 165.18 47.5336 165.482 47.5336C165.781 47.5336 165.94 47.4439 165.94 47.2852C165.94 47.1701 165.827 47.1054 165.587 47.0716L165.381 47.0417C164.931 46.977 164.687 46.7718 164.687 46.4381C164.687 46.0315 165.016 45.7831 165.524 45.7831C165.844 45.7831 166.134 45.8561 166.344 45.9972L166.154 46.3568ZM171.546 46.2059C171.456 46.2059 171.373 46.2221 171.295 46.2539C171.218 46.2863 171.151 46.3313 171.095 46.3892C171.039 46.4469 170.994 46.5165 170.962 46.5973C170.93 46.6782 170.914 46.7673 170.914 46.8643C170.914 46.9619 170.93 47.0506 170.962 47.1313C170.994 47.2122 171.039 47.2818 171.095 47.3396C171.151 47.3974 171.218 47.4425 171.295 47.4748C171.373 47.5071 171.456 47.5228 171.546 47.5228C171.636 47.5228 171.72 47.5071 171.797 47.4748C171.874 47.4425 171.941 47.3974 171.998 47.3396C172.055 47.2818 172.099 47.2122 172.132 47.1313C172.164 47.0506 172.18 46.9619 172.18 46.8643C172.18 46.7673 172.164 46.6782 172.132 46.5973C172.099 46.5165 172.055 46.4469 171.998 46.3892C171.941 46.3313 171.874 46.2863 171.797 46.2539C171.72 46.2221 171.636 46.2059 171.546 46.2059ZM171.546 45.7831C171.702 45.7831 171.846 45.8106 171.979 45.8659C172.112 45.9208 172.227 45.9967 172.323 46.0933C172.421 46.1897 172.496 46.3039 172.551 46.4352C172.606 46.5669 172.633 46.71 172.633 46.8643C172.633 47.0187 172.606 47.1617 172.551 47.2935C172.496 47.4248 172.421 47.5395 172.323 47.6359C172.227 47.7325 172.112 47.8079 171.979 47.8633C171.846 47.9182 171.702 47.9456 171.546 47.9456C171.39 47.9456 171.246 47.9182 171.113 47.8633C170.98 47.8079 170.866 47.7325 170.77 47.6359C170.674 47.5395 170.598 47.4248 170.543 47.2935C170.488 47.1617 170.461 47.0187 170.461 46.8643C170.461 46.71 170.488 46.5669 170.543 46.4352C170.598 46.3039 170.674 46.1897 170.77 46.0933C170.866 45.9967 170.98 45.9208 171.113 45.8659C171.246 45.8106 171.39 45.7831 171.546 45.7831ZM160.183 46.8575C160.183 46.4979 160.414 46.2025 160.792 46.2025C161.154 46.2025 161.398 46.4852 161.398 46.8575C161.398 47.2299 161.154 47.512 160.792 47.512C160.414 47.512 160.183 47.2171 160.183 46.8575ZM161.81 46.8575V45.8346H161.373V46.0829C161.234 45.8987 161.024 45.7831 160.738 45.7831C160.175 45.7831 159.733 46.2323 159.733 46.8575C159.733 47.4821 160.175 47.9319 160.738 47.9319C161.024 47.9319 161.234 47.8163 161.373 47.632V47.8804H161.81V46.8575ZM159.346 47.8804V46.5964C159.346 46.1128 159.044 45.7876 158.556 45.7831C158.3 45.7787 158.035 45.86 157.85 46.1471C157.711 45.9203 157.493 45.7831 157.186 45.7831C156.971 45.7831 156.761 45.8473 156.597 46.0869V45.8346H156.16V47.8804H156.601V46.7463C156.601 46.3911 156.795 46.2025 157.093 46.2025C157.383 46.2025 157.531 46.395 157.531 46.7419V47.8804H157.972V46.7463C157.972 46.3911 158.174 46.2025 158.463 46.2025C158.762 46.2025 158.905 46.395 158.905 46.7419V47.8804H159.346Z" fill="#9A9C9E"/>
<path d="M176.646 36.3025C176.646 40.5584 173.258 44.0084 169.079 44.0084C167.313 44.0084 165.689 43.3925 164.401 42.3608C166.162 40.9498 167.292 38.7605 167.292 36.3025C167.292 33.8446 166.162 31.6552 164.401 30.2443C165.689 29.2125 167.313 28.5967 169.079 28.5967C173.258 28.5967 176.646 32.0466 176.646 36.3025Z" fill="#0099DF"/>
<path d="M161.518 36.3025C161.518 33.8446 162.648 31.6552 164.408 30.2443C163.121 29.2125 161.497 28.5967 159.731 28.5967C155.552 28.5967 152.164 32.0466 152.164 36.3025C152.164 40.5584 155.552 44.0084 159.731 44.0084C161.497 44.0084 163.121 43.3925 164.408 42.3608C162.648 40.9498 161.518 38.7605 161.518 36.3025Z" fill="#EB001B"/>
</g>
<g clip-path="url(#clip3_1769_47957)">
<path fill-rule="evenodd" clip-rule="evenodd" d="M210.2 28.415V28.421C210.194 28.421 208.302 28.415 207.798 30.1995C207.335 31.8357 206.032 36.353 205.996 36.4775H205.635C205.635 36.4775 204.302 31.8594 203.833 30.1935C203.329 28.4091 201.431 28.415 201.431 28.415H197.106V41.9908H201.431V33.9283H201.611H201.791L204.314 41.9908H207.317L209.84 33.9343H210.2V41.9908H214.525V28.415H210.2Z" fill="#4DB45E"/>
<path fill-rule="evenodd" clip-rule="evenodd" d="M225.997 28.415C225.997 28.415 224.73 28.5277 224.135 29.8378L221.072 36.4775H220.711V28.415H216.387V41.9908H220.471C220.471 41.9908 221.798 41.8722 222.393 40.568L225.396 33.9283H225.757V41.9908H230.081V28.415H225.997Z" fill="#4DB45E"/>
<path fill-rule="evenodd" clip-rule="evenodd" d="M232.003 34.5811V41.9914H236.327V37.6637H241.012C243.054 37.6637 244.784 36.3773 245.427 34.5811H232.003Z" fill="#4DB45E"/>
<path fill-rule="evenodd" clip-rule="evenodd" d="M241.013 28.415H231.396C231.877 30.9998 233.841 33.0747 236.382 33.7505C236.958 33.9046 237.565 33.9876 238.19 33.9876H245.601C245.667 33.6794 245.697 33.3652 245.697 33.0391C245.697 30.484 243.601 28.415 241.013 28.415Z" fill="url(#paint0_linear_1769_47957)"/>
</g>
<mask id="mask0_1769_47957" style="mask-type:alpha" maskUnits="userSpaceOnUse" x="266" y="29" width="19" height="19">
<path fill-rule="evenodd" clip-rule="evenodd" d="M282.996 38.24C282.999 38.327 283 38.413 283 38.5C283 42.642 279.642 46 275.5 46C271.358 46 268 42.642 268 38.5C268 34.358 271.358 31 275.5 31C277.024 31 278.441 31.454 279.624 32.235L281.257 30.942C279.66 29.724 277.664 29 275.5 29C270.253 29 266 33.253 266 38.5C266 43.747 270.253 48 275.5 48C280.747 48 285 43.747 285 38.5C285 37.913 284.947 37.338 284.845 36.78L282.996 38.24Z" fill="#C4C4C4"/>
</mask>
<g mask="url(#mask0_1769_47957)">
<path d="M282.994 38.203C282.998 38.302 283 38.401 283 38.5C283 42.642 279.642 46 275.5 46C271.358 46 268 42.642 268 38.5C268 34.358 271.358 31 275.5 31C277.024 31 278.441 31.454 279.624 32.235L281.257 30.942C279.66 29.724 277.664 29 275.5 29C270.253 29 266 33.253 266 38.5C266 43.747 270.253 48 275.5 48C280.747 48 285 43.747 285 38.5C285 37.895 284.943 37.303 284.835 36.729L282.994 38.203Z" fill="#24A236"/>
<path d="M274.404 37.0391C279.045 37.0391 282.808 33.2766 282.808 28.6353C282.808 23.994 279.045 20.2314 274.404 20.2314C269.763 20.2314 266 23.994 266 28.6353C266 33.2766 269.763 37.0391 274.404 37.0391Z" fill="#008ACB"/>
<g filter="url(#filter0_f_1769_47957)">
<path d="M273.308 56.0392C277.344 56.0392 280.615 52.7674 280.615 48.7315C280.615 44.6956 277.344 41.4238 273.308 41.4238C269.272 41.4238 266 44.6956 266 48.7315C266 52.7674 269.272 56.0392 273.308 56.0392Z" fill="#77F628"/>
</g>
<g filter="url(#filter1_f_1769_47957)">
<path d="M266.731 42.1544C270.766 42.1544 274.038 38.8827 274.038 34.8467C274.038 30.8108 270.766 27.5391 266.731 27.5391C262.695 27.5391 259.423 30.8108 259.423 34.8467C259.423 38.8827 262.695 42.1544 266.731 42.1544Z" fill="#19E7E8"/>
</g>
<g filter="url(#filter2_f_1769_47957)">
<path d="M265.999 48.0009C269.228 48.0009 271.846 45.3835 271.846 42.1548C271.846 38.926 269.228 36.3086 265.999 36.3086C262.771 36.3086 260.153 38.926 260.153 42.1548C260.153 45.3835 262.771 48.0009 265.999 48.0009Z" fill="#DEFA1B"/>
</g>
</g>
<path fill-rule="evenodd" clip-rule="evenodd" d="M284.049 34.351L275.5 41V38.5L282.999 32.667C283.405 33.188 283.757 33.752 284.049 34.351Z" fill="#24A236"/>
<path fill-rule="evenodd" clip-rule="evenodd" d="M272 38.8045L275.5 40.9995V38.4995L272 36.3115V38.8045Z" fill="#24A236"/>
<g clip-path="url(#clip4_1769_47957)">
<path fill-rule="evenodd" clip-rule="evenodd" d="M323.28 47.44C328.648 47.44 333 43.0887 333 37.72C333 32.3513 328.648 28 323.28 28C317.911 28 313.56 32.3513 313.56 37.72C313.56 43.0887 317.911 47.44 323.28 47.44ZM323.28 41.5C325.367 41.5 327.06 39.8076 327.06 37.72C327.06 35.6324 325.367 33.94 323.28 33.94C321.192 33.94 319.5 35.6324 319.5 37.72C319.5 39.8076 321.192 41.5 323.28 41.5Z" fill="#8A42F9"/>
<path d="M313.56 31.2402H306L310.032 44.2002H313.56V31.2402Z" fill="#8A42F9"/>
</g>
<defs>
<filter id="filter0_f_1769_47957" x="258" y="33.4238" width="30.6152" height="30.6152" filterUnits="userSpaceOnUse" color-interpolation-filters="sRGB">
<feFlood flood-opacity="0" result="BackgroundImageFix"/>
<feBlend mode="normal" in="SourceGraphic" in2="BackgroundImageFix" result="shape"/>
<feGaussianBlur stdDeviation="4" result="effect1_foregroundBlur_1769_47957"/>
</filter>
<filter id="filter1_f_1769_47957" x="251.423" y="19.5391" width="30.6152" height="30.6152" filterUnits="userSpaceOnUse" color-interpolation-filters="sRGB">
<feFlood flood-opacity="0" result="BackgroundImageFix"/>
<feBlend mode="normal" in="SourceGraphic" in2="BackgroundImageFix" result="shape"/>
<feGaussianBlur stdDeviation="4" result="effect1_foregroundBlur_1769_47957"/>
</filter>
<filter id="filter2_f_1769_47957" x="254.153" y="30.3086" width="23.6924" height="23.6924" filterUnits="userSpaceOnUse" color-interpolation-filters="sRGB">
<feFlood flood-opacity="0" result="BackgroundImageFix"/>
<feBlend mode="normal" in="SourceGraphic" in2="BackgroundImageFix" result="shape"/>
<feGaussianBlur stdDeviation="3" result="effect1_foregroundBlur_1769_47957"/>
</filter>
<linearGradient id="paint0_linear_1769_47957" x1="231.398" y1="31.2013" x2="245.697" y2="31.2013" gradientUnits="userSpaceOnUse">
<stop offset="0.3" stop-color="#00B4E6"/>
<stop offset="1" stop-color="#088CCB"/>
</linearGradient>
<clipPath id="clip0_1769_47957">
<rect width="20" height="20" fill="white" transform="translate(0 28)"/>
</clipPath>
<clipPath id="clip1_1769_47957">
<rect width="26" height="20" fill="white" transform="translate(106 28)"/>
</clipPath>
<clipPath id="clip2_1769_47957">
<rect width="25" height="20" fill="white" transform="translate(152 28)"/>
</clipPath>
<clipPath id="clip3_1769_47957">
<rect width="49" height="14" fill="white" transform="translate(197 28)"/>
</clipPath>
<clipPath id="clip4_1769_47957">
<rect width="27" height="20" fill="white" transform="translate(306 28)"/>
</clipPath>
</defs>
</svg>
